<svg width="18" height="18" viewBox="0 0 18 18" fill="none" xmlns="http://www.w3.org/2000/svg">
<g clip-path="url(#clip0_137_602)">
<path fill-rule="evenodd" clip-rule="evenodd" d="M6.74972 12.792L2.11389 15.9546C1.21659 16.5669 0 15.924 0 14.8381V3.16295C0 2.07645 1.21638 1.43321 2.11386 2.04549L10.6719 7.88308C11.4587 8.41974 11.4587 9.58089 10.672 10.1162L7.65088 12.1772V14.8369C7.65088 15.1993 8.05637 15.4133 8.35559 15.2092L16.9018 9.37269C17.1645 9.19301 17.1645 8.80709 16.902 8.62801L8.35574 2.79147C8.05634 2.58722 7.65085 2.8013 7.65085 3.16362V3.58717C7.65085 3.83601 7.44912 4.03773 7.20028 4.03773C6.95144 4.03773 6.74972 3.83601 6.74972 3.58717V3.16362C6.74972 2.07708 7.96613 1.43481 8.86379 2.0472L17.41 7.88374C18.1966 8.42032 18.1966 9.57894 17.4102 10.1167L8.86361 15.9535C7.96613 16.5658 6.74972 15.9235 6.74972 14.837V12.792ZM6.74972 11.7012L1.60605 15.2103C1.30695 15.4143 0.901155 15.1999 0.901155 14.8381V3.16295C0.901155 2.80036 1.30689 2.58583 1.60605 2.78993L10.1642 8.62752C10.4264 8.80636 10.4264 9.19337 10.1646 9.37146L7.65088 11.0864V9.4319C7.65088 9.18306 7.44915 8.98134 7.20031 8.98134C6.95147 8.98134 6.74975 9.18306 6.74975 9.4319L6.74972 11.7012Z" fill="white"/>
</g>
<defs>
<clipPath id="clip0_137_602">
<rect width="18" height="18" fill="white"/>
</clipPath>
</defs>
</svg>
