<svg width="58" height="58" viewBox="0 0 58 58" fill="none" xmlns="http://www.w3.org/2000/svg">
<g clip-path="url(#clip0_137_546)">
<path d="M35.5601 23.6124L26.8457 31.8434L22.6633 27.5407C22.1996 27.0633 21.4362 27.0524 20.9594 27.5161C20.4819 27.9802 20.471 28.7433 20.9347 29.2206L25.9509 34.3699C26.175 34.5956 26.4779 34.7254 26.7959 34.732C27.1138 34.7387 27.422 34.6217 27.6554 34.4057L37.2405 25.365C37.3557 25.2564 37.4484 25.1261 37.5132 24.9815C37.578 24.837 37.6136 24.6811 37.6181 24.5228C37.6226 24.3645 37.5958 24.2068 37.5393 24.0589C37.4828 23.9109 37.3977 23.7755 37.2888 23.6605C36.8222 23.1756 36.0531 23.1543 35.5601 23.6124Z" fill="#393939"/>
<path d="M29.0935 10.9449C19.134 10.9449 11.0356 19.0433 11.0356 29.0031C11.0356 38.9631 19.134 47.0615 29.0935 47.0615C39.0537 47.0615 47.1521 38.9631 47.1521 29.003C47.1521 19.0434 39.0537 10.9449 29.0935 10.9449ZM29.0935 44.6441C20.4636 44.6441 13.4531 37.6212 13.4531 29.003C13.4531 20.3847 20.4636 13.3625 29.0935 13.3625C37.7322 13.3625 44.7346 20.3649 44.7346 29.003C44.7346 37.641 37.7321 44.6441 29.0935 44.6441Z" fill="#393939"/>
<path d="M53.9449 22.3552L54.3437 15.1873C54.3573 14.9518 54.3016 14.7176 54.1835 14.5135C54.0653 14.3094 53.8899 14.1444 53.6789 14.039L47.297 10.8118L44.0697 4.42985C43.9622 4.22058 43.7968 4.04664 43.5932 3.92877C43.3896 3.8109 43.1564 3.75407 42.9214 3.76505L35.7414 4.1522L29.7583 0.199236C29.561 0.0691912 29.3298 -0.00012207 29.0935 -0.00012207C28.8572 -0.00012207 28.6261 0.0691912 28.4287 0.199236L22.4456 4.1522L15.2784 3.75321C15.043 3.73934 14.8086 3.79495 14.6044 3.91314C14.4003 4.03132 14.2354 4.20688 14.1302 4.418L10.9024 10.8L4.52091 14.0273C4.3115 14.1346 4.13744 14.2999 4.01955 14.5036C3.90166 14.7072 3.84491 14.9405 3.85611 15.1755L4.25451 22.3432L0.302141 28.3263C0.172096 28.5236 0.102783 28.7548 0.102783 28.9911C0.102783 29.2274 0.172096 29.4586 0.302141 29.6559L4.24278 35.6509L3.84379 42.8186C3.83007 43.0541 3.88575 43.2884 4.00392 43.4925C4.12209 43.6966 4.29756 43.8616 4.50858 43.9669L10.8906 47.1942L14.1178 53.5762C14.2251 53.7856 14.3905 53.9596 14.5941 54.0775C14.7978 54.1954 15.0311 54.2522 15.2661 54.241L22.4338 53.8421L28.4169 57.7943C28.6127 57.9283 28.8444 58.0001 29.0817 58.0001C29.3189 58.0001 29.5507 57.9283 29.7465 57.7943L35.7296 53.842L42.8975 54.241C43.1329 54.2545 43.3671 54.1988 43.5712 54.0806C43.7753 53.9625 43.9403 53.7871 44.0458 53.5762L47.2729 47.1942L53.6549 43.9669C53.8642 43.8595 54.0382 43.6941 54.1561 43.4905C54.2739 43.2869 54.3307 43.0536 54.3197 42.8186L53.9208 35.651L57.8732 29.6679C58.0032 29.4705 58.0725 29.2394 58.0725 29.0031C58.0725 28.7667 58.0032 28.5356 57.8732 28.3383L53.9449 22.3552ZM51.6964 34.6598C51.549 34.8761 51.4808 35.1366 51.5034 35.3974L51.8777 42.1779L45.8465 45.2238C45.6166 45.3392 45.4301 45.5259 45.3149 45.7559L42.2685 51.7871L35.488 51.4128C35.2285 51.4032 34.9719 51.4704 34.7504 51.6058L29.0936 55.3411L23.4372 51.6058C23.2409 51.4731 23.0095 51.4016 22.7724 51.4005H22.712L15.9309 51.7754L12.8849 45.7436C12.7697 45.5136 12.583 45.327 12.3529 45.212L6.30931 42.1779L6.68426 35.3974C6.69368 35.1376 6.62624 34.8813 6.49062 34.6598L2.75595 29.0031L6.49062 23.3461C6.63844 23.1302 6.70686 22.8698 6.68426 22.6091L6.30931 15.828L12.3411 12.7822C12.5711 12.667 12.7575 12.4805 12.8727 12.2506L15.9187 6.21874L22.6997 6.59368C22.9589 6.60262 23.2153 6.53566 23.4372 6.40004L29.0935 2.66537L34.7504 6.40004C34.9665 6.54785 35.2271 6.61627 35.488 6.59368L42.2685 6.21874L45.3149 12.2506C45.4301 12.4805 45.6166 12.667 45.8465 12.7822L51.8777 15.8281L51.5034 22.609C51.4941 22.8683 51.5612 23.1246 51.6964 23.3461L55.4317 29.0029L51.6964 34.6598Z" fill="#393939"/>
</g>
<defs>
<clipPath id="clip0_137_546">
<rect width="58" height="58" fill="white"/>
</clipPath>
</defs>
</svg>
