<svg width="17" height="19" viewBox="0 0 17 19" fill="none" xmlns="http://www.w3.org/2000/svg">
<path d="M7.76969 18.1604L7.54169 18.0061C6.4006 17.2077 5.34027 16.2997 4.37581 15.295C2.68125 13.5197 0.78125 10.8585 0.78125 7.71756C0.78125 3.85344 3.91744 0 8.5 0C13.0826 0 16.2188 3.85344 16.2188 7.71875C16.2188 10.8597 14.3187 13.5209 12.6242 15.2938C11.6597 16.2985 10.5994 17.2065 9.45831 18.0049C9.36173 18.0722 9.28573 18.1236 9.23031 18.1593C8.98925 18.3196 8.74344 18.4716 8.5 18.6259C8.25656 18.4716 8.01075 18.3196 7.76969 18.1604ZM8.5 10.0938C9.12989 10.0938 9.73398 9.84353 10.1794 9.39813C10.6248 8.95273 10.875 8.34864 10.875 7.71875C10.875 7.08886 10.6248 6.48477 10.1794 6.03937C9.73398 5.59397 9.12989 5.34375 8.5 5.34375C7.87011 5.34375 7.26602 5.59397 6.82062 6.03937C6.37522 6.48477 6.125 7.08886 6.125 7.71875C6.125 8.34864 6.37522 8.95273 6.82062 9.39813C7.26602 9.84353 7.87011 10.0938 8.5 10.0938Z" fill="white"/>
</svg>
