<svg width="17" height="17" viewBox="0 0 17 17" fill="none" xmlns="http://www.w3.org/2000/svg">
<path d="M8.20082 5.74C7.54839 5.74 6.92268 5.99918 6.46134 6.46052C6 6.92186 5.74082 7.54757 5.74082 8.2C5.74082 8.85243 6 9.47814 6.46134 9.93948C6.92268 10.4008 7.54839 10.66 8.20082 10.66C8.85325 10.66 9.47896 10.4008 9.9403 9.93948C10.4016 9.47814 10.6608 8.85243 10.6608 8.2C10.6608 7.54757 10.4016 6.92186 9.9403 6.46052C9.47896 5.99918 8.85325 5.74 8.20082 5.74ZM8.20082 4.1C9.28821 4.1 10.3311 4.53196 11.1 5.30086C11.8689 6.06976 12.3008 7.11261 12.3008 8.2C12.3008 9.28739 11.8689 10.3302 11.1 11.0991C10.3311 11.868 9.28821 12.3 8.20082 12.3C7.11343 12.3 6.07058 11.868 5.30168 11.0991C4.53278 10.3302 4.10082 9.28739 4.10082 8.2C4.10082 7.11261 4.53278 6.06976 5.30168 5.30086C6.07058 4.53196 7.11343 4.1 8.20082 4.1ZM13.5308 3.895C13.5308 4.16685 13.4228 4.42756 13.2306 4.61978C13.0384 4.81201 12.7777 4.92 12.5058 4.92C12.234 4.92 11.9733 4.81201 11.781 4.61978C11.5888 4.42756 11.4808 4.16685 11.4808 3.895C11.4808 3.62315 11.5888 3.36244 11.781 3.17022C11.9733 2.97799 12.234 2.87 12.5058 2.87C12.7777 2.87 13.0384 2.97799 13.2306 3.17022C13.4228 3.36244 13.5308 3.62315 13.5308 3.895ZM8.20082 1.64C6.17214 1.64 5.84086 1.64574 4.89704 1.68756C4.25416 1.7179 3.82284 1.804 3.42268 1.9598C3.08798 2.0831 2.78531 2.28012 2.53708 2.53626C2.28064 2.78441 2.08334 3.08709 1.9598 3.42186C1.804 3.82366 1.7179 4.25416 1.68838 4.89622C1.64574 5.8015 1.64 6.11802 1.64 8.2C1.64 10.2295 1.64574 10.56 1.68756 11.5038C1.7179 12.1458 1.804 12.578 1.95898 12.9773C2.09838 13.334 2.26238 13.5907 2.53462 13.8629C2.81096 14.1384 3.06762 14.3033 3.42022 14.4394C3.8253 14.596 4.25662 14.6829 4.89622 14.7124C5.8015 14.7551 6.11802 14.76 8.2 14.76C10.2295 14.76 10.56 14.7543 11.5038 14.7124C12.145 14.6821 12.5763 14.596 12.9773 14.441C13.312 14.3177 13.6147 14.1207 13.8629 13.8646C14.1393 13.589 14.3041 13.3324 14.4402 12.979C14.596 12.5755 14.6829 12.1442 14.7124 11.503C14.7551 10.5985 14.76 10.2812 14.76 8.2C14.76 6.17132 14.7543 5.84004 14.7124 4.89622C14.6821 4.25498 14.5952 3.82202 14.4402 3.42186C14.3169 3.08716 14.1199 2.78449 13.8637 2.53626C13.6156 2.27982 13.3129 2.08252 12.9781 1.95898C12.5763 1.80318 12.145 1.71708 11.5038 1.68756C10.5993 1.64492 10.2828 1.64 8.2 1.64M8.2 0C10.4279 0 10.7059 0.00819995 11.5809 0.0492C12.4533 0.0902 13.0487 0.22714 13.571 0.4305C14.1122 0.63878 14.5681 0.92086 15.024 1.37596C15.4412 1.78574 15.7638 2.28163 15.9695 2.829C16.172 3.35134 16.3098 3.94666 16.3508 4.81996C16.3893 5.69408 16.4 5.97206 16.4 8.2C16.4 10.4279 16.3918 10.7059 16.3508 11.58C16.3098 12.4542 16.172 13.0478 15.9695 13.571C15.7638 14.1184 15.4412 14.6143 15.024 15.024C14.6143 15.4412 14.1184 15.7638 13.571 15.9695C13.0487 16.172 12.4533 16.3098 11.5809 16.3508C10.7059 16.3893 10.4279 16.4 8.2 16.4C5.97206 16.4 5.69408 16.3918 4.81914 16.3508C3.94666 16.3098 3.35216 16.172 2.829 15.9695C2.28163 15.7638 1.78574 15.4412 1.37596 15.024C0.958831 14.6143 0.636169 14.1184 0.4305 13.571C0.22714 13.0487 0.0902 12.4533 0.0492 11.58C0.00983995 10.7059 0 10.4279 0 8.2C0 5.97206 0.00819995 5.69408 0.0492 4.81996C0.0902 3.94584 0.22714 3.35216 0.4305 2.829C0.636169 2.28163 0.958831 1.78574 1.37596 1.37596C1.78574 0.958831 2.28163 0.636169 2.829 0.4305C3.35134 0.22714 3.94584 0.0902 4.81914 0.0492C5.6949 0.01066 5.97288 0 8.20082 0" fill="white"/>
</svg>
