<svg width="263" height="146" viewBox="0 0 263 146" fill="none" xmlns="http://www.w3.org/2000/svg">
<path d="M131.649 11.2301L207.639 43.6844V32.4393L131.649 0L75.7066 23.8752V16.2792L63.3594 21.5518V29.1477L55.6592 32.4393V43.6844L63.3594 40.3928V42.7461L55.6592 46.0377V48.1228L63.3594 44.8461V84.2708H75.7066V67.2469H97.5116V84.2708H106.076H132.826C137.611 84.2807 141.856 83.3871 145.56 81.5899C149.264 79.8026 152.133 77.2656 154.169 73.979C156.214 70.6924 157.237 66.8447 157.237 62.4361C157.237 58.0274 156.214 54.1798 154.169 50.8931C152.133 47.6065 149.264 45.0695 145.56 43.2822C141.856 41.495 137.611 40.6013 132.826 40.6013H117.41V50.4612H132.334C136.077 50.4513 139.081 51.5088 141.345 53.6336C143.609 55.7585 144.741 58.6927 144.741 62.4361C144.741 66.1794 143.609 69.1136 141.345 71.2385C139.081 73.3534 136.077 74.4159 132.334 74.4258H109.859V40.6013H97.5116V56.9997H75.7066V39.5736L131.649 15.6835L207.639 48.1228V46.0377L131.649 13.5983L75.7066 37.4735V35.1203L131.649 11.2301Z" fill="white"/>
<path d="M167.916 58.9509C165.027 59.1743 159.695 63.583 159.695 63.583V84.2709H171.863V61.6021C171.863 60.1425 171.118 58.6977 167.916 58.9509Z" fill="white"/>
<path d="M196.855 65.0279C198.335 62.6746 199.075 59.9192 199.075 56.7617C199.075 53.475 198.285 50.6154 196.706 48.1827C195.118 45.74 192.869 43.8683 189.959 42.5676C187.05 41.2569 183.619 40.6016 179.668 40.6016H159.695V60.3958C165.444 48.4954 181.276 51.0125 181.276 51.0125C181.365 53.4701 185.61 52.8296 185.61 52.8296V51.3402H190.704C191.851 51.3402 192.774 52.2636 192.774 53.4105V59.4575C192.774 60.6043 191.851 61.5278 190.704 61.5278H185.61V59.5469C182.363 59.5469 182.289 61.4533 182.289 61.5874V77.7921L186.712 84.2711H199.953L190.525 70.5536C193.266 69.2231 195.376 67.3812 196.855 65.0279Z" fill="white"/>
<path d="M131.038 24.4263H125.602V29.8775H131.038V24.4263Z" fill="white"/>
<path d="M125.602 36.3568H131.038V30.9204H125.602V36.3568Z" fill="white"/>
<path d="M137.711 24.4263H132.275V29.8775H137.711V24.4263Z" fill="white"/>
<path d="M132.275 36.3568H137.711V30.9204H132.275V36.3568Z" fill="white"/>
<path d="M4.2895 102.472V109.963H12.1983V102.472H16.4878V121.998H12.1983V113.583H4.2895V121.998H0V102.472H4.2895Z" fill="white"/>
<path fill-rule="evenodd" clip-rule="evenodd" d="M22.088 108.25C22.5348 107.009 23.1653 105.922 23.9795 104.989C24.8036 104.055 25.8115 103.325 27.003 102.799C28.1945 102.273 29.54 102.01 31.0393 102.01C32.5486 102.01 33.899 102.273 35.0905 102.799C36.2721 103.325 37.275 104.055 38.0991 104.989C38.9133 105.922 39.5389 107.009 39.9758 108.25C40.4226 109.501 40.646 110.857 40.646 112.316C40.646 113.736 40.4226 115.062 39.9758 116.293C39.5389 117.524 38.9133 118.597 38.0991 119.51C37.275 120.424 36.2721 121.139 35.0905 121.655C33.899 122.181 32.5486 122.444 31.0393 122.444C29.54 122.444 28.1945 122.181 27.003 121.655C25.8115 121.139 24.8036 120.424 23.9795 119.51C23.1653 118.597 22.5348 117.524 22.088 116.293C21.6511 115.062 21.4326 113.736 21.4326 112.316C21.4326 110.857 21.6511 109.501 22.088 108.25ZM26.02 114.714C26.2087 115.489 26.5165 116.184 26.9434 116.8C27.3605 117.425 27.9066 117.922 28.5818 118.289C29.257 118.666 30.0762 118.855 31.0393 118.855C32.0025 118.855 32.8216 118.666 33.4968 118.289C34.172 117.922 34.7182 117.425 35.1352 116.8C35.5622 116.184 35.87 115.489 36.0586 114.714C36.2473 113.94 36.3416 113.141 36.3416 112.316C36.3416 111.463 36.2473 110.633 36.0586 109.829C35.87 109.025 35.5622 108.31 35.1352 107.684C34.7182 107.049 34.172 106.548 33.4968 106.18C32.8216 105.803 32.0025 105.614 31.0393 105.614C30.0762 105.614 29.257 105.803 28.5818 106.18C27.9066 106.548 27.3605 107.049 26.9434 107.684C26.5165 108.31 26.2087 109.025 26.02 109.829C25.8313 110.633 25.737 111.463 25.737 112.316C25.737 113.141 25.8313 113.94 26.02 114.714Z" fill="white"/>
<path d="M51.6378 102.472L56.1954 115.906H56.255L60.5743 102.472H66.6213V121.998H62.5999V108.161H62.5552L57.7593 121.998H54.4528L49.6718 108.295H49.6122V121.998H45.5908V102.472H51.6378Z" fill="white"/>
<path d="M87.0263 102.472V106.076H76.7196V110.261H86.1773V113.598H76.7196V118.393H87.2497V121.998H72.4152V102.472H87.0263Z" fill="white"/>
<path fill-rule="evenodd" clip-rule="evenodd" d="M110.216 102.472C111.477 102.472 112.649 102.67 113.731 103.067C114.824 103.475 115.762 104.08 116.546 104.885C117.341 105.679 117.961 106.682 118.408 107.893C118.855 109.095 119.078 110.505 119.078 112.123C119.078 113.543 118.9 114.859 118.542 116.07C118.175 117.271 117.619 118.309 116.874 119.183C116.139 120.057 115.221 120.747 114.119 121.253C113.016 121.75 111.716 121.998 110.216 121.998H101.801V102.472H110.216ZM109.904 118.393C110.529 118.393 111.135 118.294 111.721 118.096C112.297 117.887 112.813 117.554 113.27 117.098C113.726 116.631 114.094 116.02 114.372 115.266C114.64 114.521 114.774 113.612 114.774 112.54C114.774 111.557 114.68 110.668 114.491 109.874C114.302 109.08 113.989 108.4 113.553 107.834C113.116 107.268 112.535 106.836 111.81 106.538C111.095 106.23 110.206 106.076 109.144 106.076H106.076V118.393H109.904Z" fill="white"/>
<path d="M138.694 102.472V106.076H128.387V110.261H137.845V113.598H128.387V118.393H138.917V121.998H124.083V102.472H138.694Z" fill="white"/>
<path d="M157.565 102.472V106.076H148.137V110.589H156.314V113.925H148.137V121.998H143.832V102.472H157.565Z" fill="white"/>
<path d="M176.719 102.472V106.076H166.397V110.261H175.87V113.598H166.397V118.393H176.927V121.998H162.107V102.472H176.719Z" fill="white"/>
<path d="M186.117 102.472L194.264 115.578H194.323V102.472H198.345V121.998H194.055L185.923 108.921H185.878V121.998H181.857V102.472H186.117Z" fill="white"/>
<path fill-rule="evenodd" clip-rule="evenodd" d="M212.569 102.472C213.83 102.472 215.001 102.67 216.084 103.067C217.166 103.475 218.104 104.08 218.899 104.885C219.693 105.679 220.314 106.682 220.76 107.893C221.207 109.095 221.431 110.505 221.431 112.123C221.431 113.543 221.247 114.859 220.88 116.07C220.522 117.271 219.971 118.309 219.226 119.183C218.492 120.057 217.573 120.747 216.471 121.253C215.369 121.75 214.068 121.998 212.569 121.998H204.139V102.472H212.569ZM212.271 118.393C212.896 118.393 213.497 118.294 214.073 118.096C214.659 117.887 215.18 117.554 215.637 117.098C216.094 116.631 216.461 116.02 216.739 115.266C217.007 114.521 217.141 113.612 217.141 112.54C217.141 111.557 217.047 110.668 216.858 109.874C216.669 109.08 216.352 108.4 215.905 107.834C215.468 107.268 214.892 106.836 214.177 106.538C213.452 106.23 212.564 106.076 211.511 106.076H208.443V118.393H212.271Z" fill="white"/>
<path d="M241.046 102.472V106.076H230.724V110.261H240.197V113.598H230.724V118.393H241.255V121.998H226.435V102.472H241.046Z" fill="white"/>
<path fill-rule="evenodd" clip-rule="evenodd" d="M256.715 102.472C257.588 102.472 258.378 102.611 259.083 102.889C259.778 103.177 260.379 103.569 260.885 104.065C261.382 104.552 261.764 105.118 262.032 105.763C262.3 106.409 262.434 107.109 262.434 107.863C262.434 109.005 262.191 109.998 261.704 110.842C261.218 111.676 260.428 112.312 259.336 112.749V112.808C259.862 112.957 260.299 113.181 260.647 113.478C260.994 113.776 261.277 114.134 261.496 114.551C261.714 114.958 261.873 115.41 261.972 115.906C262.072 116.393 262.141 116.884 262.181 117.381C262.201 117.688 262.221 118.051 262.24 118.468C262.26 118.895 262.29 119.327 262.33 119.764C262.379 120.201 262.454 120.613 262.553 121C262.652 121.397 262.801 121.73 263 121.998H258.711C258.472 121.382 258.328 120.642 258.279 119.779C258.219 118.925 258.135 118.106 258.025 117.321C257.876 116.298 257.569 115.554 257.102 115.087C256.625 114.61 255.851 114.372 254.778 114.372H250.474V121.998H246.185V102.472H256.715ZM255.181 111.304C256.164 111.304 256.903 111.085 257.4 110.649C257.886 110.212 258.13 109.502 258.13 108.519C258.13 107.565 257.886 106.875 257.4 106.448C256.903 106.021 256.164 105.808 255.181 105.808H250.474V111.304H255.181Z" fill="white"/>
<path fill-rule="evenodd" clip-rule="evenodd" d="M73.7557 134.181C74.2323 134.181 74.6593 134.255 75.0366 134.404C75.4239 134.563 75.7565 134.776 76.0345 135.045C76.3026 135.313 76.5111 135.625 76.6601 135.983C76.809 136.33 76.8835 136.713 76.8835 137.13C76.8835 137.755 76.7494 138.296 76.4813 138.753C76.2132 139.21 75.7813 139.557 75.1856 139.796V139.826C75.4735 139.915 75.7118 140.039 75.9005 140.198C76.0891 140.367 76.243 140.56 76.3622 140.779C76.4913 141.007 76.5806 141.255 76.6303 141.523C76.6899 141.792 76.7296 142.06 76.7494 142.328C76.7594 142.497 76.7693 142.7 76.7792 142.938C76.7891 143.167 76.804 143.4 76.8239 143.638C76.8537 143.877 76.8934 144.105 76.9431 144.324C77.0026 144.532 77.087 144.711 77.1963 144.86H74.843C74.7139 144.522 74.6345 144.12 74.6047 143.653C74.5749 143.187 74.5302 142.735 74.4706 142.298C74.3912 141.742 74.2224 141.335 73.9642 141.077C73.7061 140.818 73.2791 140.689 72.6833 140.689H70.3301V144.86H67.9917V134.181H73.7557ZM72.9068 139.006C73.4529 139.006 73.86 138.887 74.1281 138.649C74.3962 138.411 74.5302 138.023 74.5302 137.487C74.5302 136.961 74.3962 136.584 74.1281 136.355C73.86 136.117 73.4529 135.998 72.9068 135.998H70.3301V139.006H72.9068Z" fill="white"/>
<path d="M89.7816 134.181V136.147H84.1367V138.44H89.3199V140.272H84.1367V142.894H89.9007V144.86H81.7834V134.181H89.7816Z" fill="white"/>
<path d="M97.7796 134.181L100.282 141.523H100.312L102.68 134.181H105.986V144.86H103.782V137.294H103.752L101.131 144.86H99.3137L96.6924 137.368H96.6626V144.86H94.4731V134.181H97.7796Z" fill="white"/>
<path fill-rule="evenodd" clip-rule="evenodd" d="M110.916 137.338C111.165 136.653 111.512 136.057 111.959 135.551C112.406 135.045 112.957 134.647 113.612 134.359C114.268 134.062 115.002 133.913 115.817 133.913C116.651 133.913 117.39 134.062 118.036 134.359C118.681 134.647 119.227 135.045 119.674 135.551C120.131 136.057 120.478 136.653 120.717 137.338C120.955 138.023 121.074 138.763 121.074 139.557C121.074 140.342 120.955 141.072 120.717 141.747C120.478 142.412 120.131 142.998 119.674 143.504C119.227 144.001 118.681 144.393 118.036 144.681C117.39 144.959 116.651 145.098 115.817 145.098C115.002 145.098 114.268 144.959 113.612 144.681C112.957 144.393 112.406 144.001 111.959 143.504C111.512 142.998 111.165 142.412 110.916 141.747C110.678 141.072 110.559 140.342 110.559 139.557C110.559 138.763 110.678 138.023 110.916 137.338ZM113.076 140.868C113.175 141.295 113.339 141.677 113.568 142.015C113.796 142.353 114.099 142.626 114.476 142.834C114.843 143.043 115.29 143.147 115.817 143.147C116.343 143.147 116.795 143.043 117.172 142.834C117.539 142.626 117.837 142.353 118.066 142.015C118.294 141.677 118.463 141.295 118.572 140.868C118.671 140.451 118.721 140.014 118.721 139.557C118.721 139.091 118.671 138.639 118.572 138.202C118.463 137.765 118.294 137.373 118.066 137.025C117.837 136.678 117.539 136.405 117.172 136.206C116.795 135.998 116.343 135.894 115.817 135.894C115.29 135.894 114.843 135.998 114.476 136.206C114.099 136.405 113.796 136.678 113.568 137.025C113.339 137.373 113.175 137.765 113.076 138.202C112.967 138.639 112.912 139.091 112.912 139.557C112.912 140.014 112.967 140.451 113.076 140.868Z" fill="white"/>
<path fill-rule="evenodd" clip-rule="evenodd" d="M130.264 134.181C130.959 134.181 131.599 134.29 132.185 134.508C132.781 134.727 133.297 135.054 133.734 135.491C134.171 135.928 134.509 136.479 134.747 137.145C134.995 137.8 135.119 138.569 135.119 139.453C135.119 140.238 135.02 140.957 134.821 141.613C134.623 142.268 134.32 142.839 133.913 143.326C133.506 143.802 132.999 144.18 132.394 144.458C131.798 144.726 131.088 144.86 130.264 144.86H125.661V134.181H130.264ZM130.1 142.894C130.438 142.894 130.765 142.839 131.083 142.73C131.401 142.611 131.684 142.427 131.932 142.179C132.18 141.921 132.379 141.588 132.528 141.181C132.677 140.774 132.751 140.272 132.751 139.677C132.751 139.14 132.701 138.654 132.602 138.217C132.493 137.79 132.319 137.423 132.081 137.115C131.843 136.797 131.525 136.559 131.128 136.4C130.74 136.231 130.254 136.147 129.668 136.147H128V142.894H130.1Z" fill="white"/>
<path d="M147.72 134.181V136.147H142.075V138.44H147.258V140.272H142.075V142.894H147.839V144.86H139.721V134.181H147.72Z" fill="white"/>
<path d="M154.765 134.181V142.894H159.963V144.86H152.411V134.181H154.765Z" fill="white"/>
<path d="M166.635 134.181V144.86H164.282V134.181H166.635Z" fill="white"/>
<path d="M174.008 134.181L178.476 141.345H178.506V134.181H180.71V144.86H178.357L173.904 137.711H173.874V144.86H171.684V134.181H174.008Z" fill="white"/>
<path d="M192.089 144.785C191.573 144.994 191.056 145.098 190.54 145.098C189.726 145.098 188.991 144.959 188.336 144.681C187.68 144.393 187.129 144.001 186.683 143.504C186.236 142.998 185.888 142.412 185.64 141.747C185.402 141.072 185.282 140.342 185.282 139.557C185.282 138.763 185.402 138.023 185.64 137.338C185.888 136.653 186.236 136.057 186.683 135.551C187.129 135.045 187.68 134.647 188.336 134.359C188.991 134.062 189.726 133.913 190.54 133.913C191.086 133.913 191.617 133.997 192.134 134.166C192.65 134.335 193.117 134.578 193.534 134.896C193.941 135.213 194.279 135.606 194.547 136.072C194.825 136.539 194.993 137.08 195.053 137.696H192.804C192.665 137.09 192.397 136.638 192 136.34C191.593 136.042 191.106 135.894 190.54 135.894C190.014 135.894 189.567 135.998 189.2 136.206C188.822 136.405 188.519 136.678 188.291 137.025C188.063 137.373 187.899 137.765 187.8 138.202C187.69 138.639 187.636 139.091 187.636 139.557C187.636 140.014 187.69 140.451 187.8 140.868C187.899 141.295 188.063 141.677 188.291 142.015C188.519 142.353 188.822 142.626 189.2 142.834C189.567 143.043 190.014 143.147 190.54 143.147C191.315 143.147 191.915 142.948 192.342 142.551C192.769 142.154 193.017 141.583 193.087 140.838H190.719V139.081H195.217V144.86H193.713L193.474 143.653C193.057 144.19 192.595 144.567 192.089 144.785Z" fill="white"/>
</svg>
