<svg width="18" height="18" viewBox="0 0 18 18" fill="none" xmlns="http://www.w3.org/2000/svg">
<g clip-path="url(#clip0_137_588)">
<path d="M3.9375 6.1875V14.0625C3.9375 14.2863 4.02639 14.5009 4.18463 14.6591C4.34286 14.8174 4.55747 14.9062 4.78125 14.9062H13.2188C13.4425 14.9062 13.6571 14.8174 13.8154 14.6591C13.9736 14.5009 14.0625 14.2863 14.0625 14.0625V6.1875C14.0625 5.96372 13.9736 5.74911 13.8154 5.59088C13.6571 5.43264 13.4425 5.34375 13.2188 5.34375H4.78125C4.55747 5.34375 4.34286 5.43264 4.18463 5.59088C4.02639 5.74911 3.9375 5.96372 3.9375 6.1875ZM13.5 6.1875V14.0625C13.5 14.1371 13.4704 14.2086 13.4176 14.2614C13.3649 14.3141 13.2933 14.3438 13.2188 14.3438H4.78125C4.70666 14.3438 4.63512 14.3141 4.58238 14.2614C4.52963 14.2086 4.5 14.1371 4.5 14.0625V6.1875C4.5 6.11291 4.52963 6.04137 4.58238 5.98863C4.63512 5.93588 4.70666 5.90625 4.78125 5.90625H13.2188C13.2933 5.90625 13.3649 5.93588 13.4176 5.98863C13.4704 6.04137 13.5 6.11291 13.5 6.1875Z" fill="white"/>
<path d="M7.16965 10.3163C7.36665 10.3157 7.55857 10.3788 7.71668 10.4963L7.17612 11.0372H6.89487C6.85008 11.0372 6.80594 11.0479 6.76612 11.0684C6.7263 11.0889 6.69195 11.1186 6.66593 11.155L5.67171 12.5469C5.63302 12.6011 5.61478 12.6672 5.62024 12.7335C5.6257 12.7999 5.6545 12.8621 5.70153 12.9092L6.4969 13.7048C6.54396 13.7519 6.60618 13.7808 6.67251 13.7863C6.73884 13.7918 6.80497 13.7736 6.85915 13.7349L8.25134 12.7404C8.28779 12.7144 8.3175 12.6801 8.338 12.6402C8.35849 12.6004 8.36919 12.5563 8.36918 12.5115V12.2303L8.9179 11.6815L10.5559 13.3221C10.66 13.427 10.784 13.5101 10.9205 13.5668C11.057 13.6234 11.2035 13.6523 11.3513 13.652C11.5744 13.6526 11.7927 13.5869 11.9785 13.4633C12.1643 13.3396 12.3091 13.1636 12.3947 12.9575C12.4803 12.7514 12.5027 12.5245 12.4591 12.3057C12.4156 12.0868 12.308 11.8858 12.15 11.7282L10.7095 10.2877L12.4639 8.53322C12.5714 8.42944 12.6571 8.30531 12.716 8.16805C12.775 8.0308 12.806 7.88317 12.8073 7.7338C12.8086 7.58442 12.7801 7.43628 12.7236 7.29802C12.667 7.15976 12.5835 7.03416 12.4778 6.92853C12.3722 6.8229 12.2466 6.73936 12.1083 6.6828C11.9701 6.62623 11.822 6.59777 11.6726 6.59906C11.5232 6.60036 11.3756 6.6314 11.2383 6.69036C11.1011 6.74932 10.9769 6.83502 10.8732 6.94247L9.18565 8.62997C9.15826 8.54694 9.14439 8.46005 9.14459 8.37263C9.14922 8.1097 9.10065 7.84855 9.00182 7.60486C8.90298 7.36118 8.75591 7.13998 8.56943 6.95456C8.28054 6.66797 7.91013 6.47768 7.5089 6.40977C7.10768 6.34185 6.69527 6.39961 6.32815 6.57516C6.28759 6.59463 6.25229 6.62355 6.22521 6.65949C6.19814 6.69542 6.18009 6.73733 6.17256 6.78169C6.16504 6.82605 6.16827 6.87157 6.18199 6.91443C6.1957 6.95728 6.21949 6.99622 6.25137 7.02797L7.25262 8.02697L7.15221 8.3251L6.85381 8.42494L5.85199 7.42313C5.8202 7.39133 5.78124 7.36762 5.73839 7.35398C5.69554 7.34034 5.65005 7.33718 5.60572 7.34476C5.5614 7.35233 5.51954 7.37043 5.48365 7.39752C5.44776 7.42461 5.41889 7.45992 5.39946 7.50047C5.24862 7.82023 5.18567 8.1744 5.21711 8.52655C5.24855 8.8787 5.37323 9.21612 5.57834 9.5041C5.76023 9.75591 5.99937 9.96089 6.27605 10.1021C6.55273 10.2433 6.85901 10.3168 7.16965 10.3163ZM7.88937 11.915C7.83662 11.9677 7.80698 12.0392 7.80696 12.1138V12.3669L6.7264 13.1387L6.26768 12.68L7.03943 11.5997H7.29256C7.36714 11.5997 7.43867 11.57 7.4914 11.5173L9.08243 9.92625L9.48012 10.3239L7.88937 11.915ZM11.7515 12.1268C11.8565 12.2325 11.9156 12.3754 11.9159 12.5244C11.9162 12.6734 11.8578 12.8165 11.7532 12.9227C11.6459 13.0258 11.5029 13.0836 11.3541 13.084C11.2052 13.0844 11.062 13.0273 10.9542 12.9247L9.31587 11.2838L9.87837 10.7213C9.93111 10.7741 10.0026 10.8037 10.0772 10.8037C10.1518 10.8037 10.2233 10.7741 10.2761 10.7213L10.3115 10.6859L11.7515 12.1268ZM11.27 7.34072C11.3771 7.23839 11.5195 7.18129 11.6677 7.18129C11.8158 7.18129 11.9583 7.23839 12.0654 7.34072C12.1708 7.44621 12.2301 7.58925 12.2301 7.73841C12.2301 7.88756 12.1708 8.03061 12.0654 8.1361L10.0767 10.1251L9.28128 9.32944L11.27 7.34072ZM5.78562 8.15072L6.58071 8.94553C6.61768 8.98247 6.66421 9.00838 6.71508 9.02035C6.76595 9.03233 6.81915 9.02989 6.86871 9.01331L7.46496 8.81363C7.50624 8.79983 7.54374 8.77665 7.57454 8.74591C7.60533 8.71516 7.62857 8.67769 7.64243 8.63644L7.84212 8.03991C7.85872 7.99028 7.86114 7.93701 7.84911 7.88608C7.83709 7.83515 7.8111 7.78859 7.77406 7.75163L6.97924 6.9585C7.19505 6.92748 7.41512 6.94688 7.62217 7.0152C7.82922 7.08352 8.01762 7.19889 8.17259 7.35225C8.3055 7.48477 8.41031 7.64274 8.48072 7.81672C8.55113 7.9907 8.5857 8.1771 8.58237 8.36475C8.58057 8.6062 8.64163 8.84396 8.75956 9.05466L8.68615 9.12807C8.63342 9.18081 8.6038 9.25233 8.6038 9.32691C8.6038 9.40149 8.63342 9.47301 8.68615 9.52575L8.11521 10.097C7.8546 9.87348 7.52224 9.75128 7.17893 9.75272C6.95506 9.75588 6.73377 9.70462 6.53408 9.60336C6.3344 9.5021 6.16229 9.35386 6.03256 9.17138C5.82192 8.87571 5.73301 8.51039 5.78421 8.151L5.78562 8.15072Z" fill="white"/>
<path d="M17.2547 3.67313L15.1875 2.89125V0.84375C15.1875 0.769158 15.1579 0.697621 15.1051 0.644876C15.0524 0.592132 14.9808 0.5625 14.9063 0.5625H12.9375C12.8629 0.5625 12.7914 0.592132 12.7386 0.644876C12.6859 0.697621 12.6563 0.769158 12.6563 0.84375V1.92938L9.09844 0.579375C9.03475 0.556879 8.96527 0.556879 8.90157 0.579375L0.74532 3.67313C0.691647 3.69348 0.645424 3.72965 0.612777 3.77687C0.580129 3.82408 0.562599 3.8801 0.562508 3.9375V5.625C0.562171 5.67042 0.573029 5.71522 0.594122 5.75544C0.615216 5.79567 0.645894 5.83008 0.683445 5.85563C0.720729 5.88154 0.763686 5.89813 0.808711 5.904C0.853735 5.90988 0.899511 5.90486 0.942195 5.88938L1.68751 5.60531V15.75H1.12501C1.05042 15.75 0.978878 15.7796 0.926134 15.8324C0.873389 15.8851 0.843758 15.9567 0.843758 16.0312V17.1562C0.843758 17.2308 0.873389 17.3024 0.926134 17.3551C0.978878 17.4079 1.05042 17.4375 1.12501 17.4375H16.875C16.9496 17.4375 17.0211 17.4079 17.0739 17.3551C17.1266 17.3024 17.1563 17.2308 17.1563 17.1562V16.0312C17.1563 15.9567 17.1266 15.8851 17.0739 15.8324C17.0211 15.7796 16.9496 15.75 16.875 15.75H16.3125V5.60531L17.0578 5.88938C17.0894 5.90066 17.1227 5.90637 17.1563 5.90625C17.2309 5.90625 17.3024 5.87662 17.3551 5.82387C17.4079 5.77113 17.4375 5.69959 17.4375 5.625V3.9375C17.4374 3.8801 17.4199 3.82408 17.3872 3.77687C17.3546 3.72965 17.3084 3.69348 17.2547 3.67313ZM13.2188 1.125H14.625V2.6775L13.2188 2.14312V1.125ZM16.5938 16.3125V16.875H1.40626V16.3125H16.5938ZM2.25001 15.75V5.39156L9.00001 2.83219L15.75 5.39156V15.75H2.25001ZM16.875 5.21719L9.09844 2.26688C9.03475 2.24438 8.96527 2.24438 8.90157 2.26688L1.12501 5.21719V4.13156L9.00001 1.14469L16.875 4.13156V5.21719Z" fill="white"/>
</g>
<defs>
<clipPath id="clip0_137_588">
<rect width="18" height="18" fill="white"/>
</clipPath>
</defs>
</svg>
