<svg width="58" height="58" viewBox="0 0 58 58" fill="none" xmlns="http://www.w3.org/2000/svg">
<g clip-path="url(#clip0_137_534)">
<path d="M0.54182 37.5651L4.66434 39.504C5.02068 39.6719 5.40969 39.759 5.80359 39.759C6.17327 39.7587 6.53895 39.6824 6.87799 39.535C7.21703 39.3877 7.52223 39.1723 7.77471 38.9023L9.37169 40.0495C9.80008 40.5442 10.0656 41.4183 10.346 42.3418C10.6095 43.2095 10.8806 44.1007 11.3368 44.8728L10.8257 45.7459C10.4984 46.304 10.3449 46.947 10.3848 47.5927C10.4247 48.2385 10.6562 48.8576 11.0497 49.3712C11.4432 49.8847 11.9809 50.2693 12.594 50.4758C13.2071 50.6823 13.8679 50.7013 14.4919 50.5304C14.668 51.232 15.073 51.8548 15.6426 52.3005C16.2123 52.7462 16.9142 52.9894 17.6375 52.9916C17.9191 52.9913 18.1994 52.955 18.4716 52.8834C18.4809 52.881 18.49 52.8779 18.4992 52.8755C18.6741 53.5779 19.079 54.2017 19.6495 54.6474C20.2199 55.0931 20.9231 55.3352 21.647 55.335C22.3609 55.3346 23.0552 55.1019 23.625 54.6719C23.9064 55.1727 24.3161 55.5894 24.8119 55.8794C25.3077 56.1693 25.8719 56.3219 26.4463 56.3215C27.2005 56.3208 27.9316 56.0612 28.5173 55.586L31.1502 57.1493C31.69 57.471 32.3067 57.6409 32.9351 57.641C33.2331 57.6408 33.53 57.6032 33.8186 57.529C34.5701 57.3387 35.2374 56.9051 35.7167 56.2958C36.1959 55.6865 36.4601 54.9358 36.4681 54.1606C37.0407 54.3342 37.6481 54.3586 38.2328 54.2317C38.8174 54.1048 39.36 53.8307 39.8091 53.4354C40.2582 53.0401 40.5989 52.5366 40.799 51.9728C40.9991 51.4089 41.0519 50.8033 40.9524 50.2134C41.4573 50.183 41.9497 50.0438 42.3959 49.8054C42.8421 49.5671 43.2315 49.2351 43.5375 48.8323C43.8435 48.4295 44.0588 47.9653 44.1688 47.4715C44.2788 46.9778 44.2808 46.4661 44.1746 45.9715C44.3283 45.953 44.4806 45.9245 44.6306 45.8864C45.0788 45.7727 45.5001 45.5716 45.8705 45.2947C46.2408 45.0178 46.5528 44.6705 46.7886 44.2728C47.0244 43.875 47.1793 43.4346 47.2446 42.9769C47.3098 42.5191 47.284 42.053 47.1687 41.6052C47.119 41.4111 47.0532 41.2215 46.972 41.0384C48.4194 40.6207 49.6339 40.0345 50.6453 39.2671C51.0988 39.5874 51.6404 39.7596 52.1957 39.76C52.5899 39.7597 52.9792 39.6722 53.3357 39.5038L57.4574 37.5651C57.5693 37.5133 57.6699 37.4399 57.7533 37.3491C57.8368 37.2583 57.9015 37.1519 57.9436 37.036C57.9858 36.9201 58.0046 36.7971 57.999 36.6739C57.9934 36.5507 57.9636 36.4298 57.9111 36.3182C57.8586 36.2066 57.7846 36.1065 57.6933 36.0236C57.602 35.9407 57.4952 35.8767 57.379 35.8353C57.2629 35.7938 57.1397 35.7758 57.0165 35.7821C56.8934 35.7884 56.7727 35.8191 56.6614 35.8722L52.539 37.8108C52.3425 37.9023 52.1177 37.9124 51.9138 37.8388C51.7099 37.7652 51.5433 37.614 51.4504 37.4181L45.0678 23.8469C44.9756 23.6507 44.9649 23.426 45.0379 23.2219C45.111 23.0178 45.2619 22.851 45.4577 22.7579L49.5803 20.8191C49.8033 20.7126 49.975 20.5222 50.058 20.2895C50.1411 20.0568 50.1287 19.8007 50.0236 19.5771C49.9184 19.3535 49.7291 19.1806 49.4969 19.0961C49.2647 19.0116 49.0086 19.0225 48.7843 19.1262L44.6608 21.0654C44.1965 21.2851 43.8049 21.633 43.5319 22.068C43.259 22.5031 43.1162 23.0071 43.1204 23.5207C42.0175 23.9196 40.8573 24.2663 39.683 24.3777C38.4944 24.4936 36.8896 24.2854 35.1907 24.0653C32.1112 23.6661 28.9269 23.2534 26.7951 24.5096L25.6244 25.1986C23.6657 23.7839 21.8123 24.006 19.8604 24.2417C18.5991 24.3937 17.2947 24.5513 15.7449 24.321C15.4285 24.2733 15.1146 24.2106 14.8042 24.133C14.9492 23.531 14.8826 22.8975 14.6154 22.3389C14.3483 21.7803 13.8969 21.3307 13.3373 21.0658L9.2149 19.1262C8.99067 19.0225 8.7345 19.0116 8.50232 19.0961C8.27014 19.1806 8.08081 19.3535 7.97568 19.5771C7.87055 19.8007 7.85815 20.0568 7.9412 20.2895C8.02425 20.5222 8.19599 20.7126 8.41892 20.8191L12.5406 22.7574C12.7365 22.8504 12.8877 23.0171 12.961 23.2212C13.0342 23.4253 13.0237 23.6501 12.9316 23.8464L6.54859 37.4181C6.45612 37.6144 6.28958 37.766 6.08551 37.8396C5.88144 37.9133 5.65648 37.903 5.45997 37.8111L1.33686 35.8722C1.11329 35.773 0.859767 35.7654 0.630613 35.8509C0.401459 35.9364 0.214909 36.1082 0.110937 36.3296C0.00696555 36.551 -0.00615496 36.8043 0.074387 37.0352C0.154929 37.2662 0.322726 37.4564 0.54182 37.5651ZM12.938 48.5875C12.6213 48.4009 12.3913 48.0965 12.2982 47.7409C12.2052 47.3852 12.2567 47.0072 12.4415 46.6894L13.2316 45.3396C13.2454 45.3179 13.2586 45.2959 13.2704 45.2732L14.7812 42.6926C14.9682 42.3781 15.2719 42.1501 15.6261 42.0585C15.9804 41.9668 16.3565 42.0189 16.6725 42.2034C16.9886 42.3878 17.2189 42.6897 17.3134 43.0432C17.4078 43.3967 17.3587 43.7733 17.1768 44.0907L14.8374 48.0904C14.6507 48.4075 14.346 48.6377 13.99 48.7309C13.634 48.824 13.2557 48.7725 12.9376 48.5875H12.938ZM16.9483 50.9305C16.6316 50.7447 16.4014 50.4409 16.3083 50.0856C16.2153 49.7303 16.2669 49.3527 16.4519 49.0354L18.7919 45.0351C18.9778 44.7179 19.2821 44.4875 19.6378 44.3947C19.8139 44.3487 19.9974 44.3379 20.1777 44.3629C20.358 44.3878 20.5317 44.448 20.6888 44.5401C20.8458 44.6321 20.9832 44.7542 21.0931 44.8993C21.2029 45.0445 21.2832 45.2098 21.3291 45.386C21.3751 45.5621 21.3859 45.7456 21.361 45.9259C21.336 46.1062 21.2758 46.2799 21.1838 46.4369L18.8431 50.4355C18.6567 50.7516 18.3528 50.981 17.9978 51.0738C17.6428 51.1666 17.2655 51.1151 16.9483 50.9307V50.9305ZM20.955 53.2769C20.6383 53.0902 20.4082 52.7859 20.3152 52.4302C20.2222 52.0746 20.2737 51.6966 20.4584 51.3788L22.7982 47.3821C22.9844 47.0646 23.2889 46.834 23.645 46.7408C24.0011 46.6477 24.3796 46.6996 24.6974 46.8852C25.0125 47.0725 25.2413 47.3763 25.3342 47.7309C25.427 48.0855 25.3766 48.4625 25.1937 48.7802L24.0222 50.7829L23.6469 51.4201C23.6294 51.4498 23.6133 51.4801 23.5968 51.5102L22.8548 52.7788C22.6679 53.0959 22.3632 53.3262 22.0072 53.4195C21.6511 53.5128 21.2726 53.4615 20.9543 53.2769H20.955ZM25.7589 54.2655C25.6015 54.173 25.464 54.0504 25.3542 53.9046C25.2444 53.7587 25.1645 53.5927 25.1191 53.4159C25.0285 53.0786 25.0703 52.7194 25.236 52.4119L25.6336 51.7322L26.8127 49.731C26.9507 49.4931 27.1564 49.3018 27.4036 49.1814C27.6508 49.0609 27.9283 49.0168 28.2007 49.0547C28.473 49.0926 28.7279 49.2107 28.9329 49.394C29.1379 49.5773 29.2836 49.8175 29.3515 50.0839C29.398 50.2588 29.4092 50.4412 29.3845 50.6205C29.3598 50.7998 29.2996 50.9724 29.2075 51.1281L27.6573 53.7647C27.4704 54.0814 27.1662 54.3116 26.8107 54.4055C26.4552 54.4993 26.077 54.4492 25.7582 54.266L25.7589 54.2655ZM27.7451 26.1208C29.3235 25.1908 32.3133 25.5782 34.9509 25.9201C36.7583 26.1539 38.4653 26.376 39.8627 26.2395C41.2058 26.112 42.4848 25.7367 43.687 25.305L49.5421 37.7558C48.5222 38.5364 47.2195 39.0987 45.5859 39.4628C45.576 39.4568 45.5665 39.4503 45.5566 39.4444L40.0554 36.1788C39.8907 36.0812 39.7 36.0363 39.509 36.0502C35.6099 36.339 31.4924 35.9566 27.7968 31.2457C27.6748 31.0903 27.5068 30.9774 27.3168 30.9234C27.1268 30.8693 26.9245 30.8769 26.739 30.9448L24.5059 31.7633C24.3335 31.8264 24.1836 31.9389 24.0747 32.0867L22.5597 34.1432C21.7107 35.2672 20.5528 35.6356 19.462 35.1284C19.3104 35.0574 19.1762 34.954 19.0689 34.8255C18.9615 34.697 18.8836 34.5465 18.8407 34.3847C18.7977 34.2229 18.7908 34.0536 18.8203 33.8888C18.8498 33.7239 18.9151 33.5676 19.0116 33.4308L21.5954 29.7397L26.0149 27.1388L26.0163 27.1379L27.7451 26.1208ZM20.0849 26.0982C21.5718 25.9188 22.6829 25.7851 23.7861 26.2803L20.4726 28.2306C20.357 28.2985 20.2573 28.3905 20.1803 28.5002L17.4818 32.3543C17.2279 32.715 17.0561 33.1269 16.9787 33.5612C16.9012 33.9954 16.92 34.4414 17.0335 34.8676C17.1471 35.2938 17.3528 35.69 17.6361 36.0281C17.9194 36.3662 18.2733 36.6381 18.6731 36.8245C20.5641 37.7037 22.6755 37.0934 24.0593 35.2618L25.4134 33.4237L26.7564 32.9316C30.8005 37.7253 35.3596 38.1967 39.3519 37.9371L44.6029 41.053C44.9735 41.2797 45.2399 41.6434 45.3444 42.0651C45.4489 42.4869 45.3831 42.9328 45.1612 43.3064C44.9393 43.6799 44.5792 43.9511 44.1588 44.0611C43.7385 44.1711 43.2917 44.1111 42.9153 43.8941L38.6666 41.3753C38.5609 41.3117 38.4437 41.2697 38.3217 41.2516C38.1997 41.2335 38.0753 41.2397 37.9557 41.2699C37.8362 41.3 37.7237 41.3536 37.6249 41.4274C37.5261 41.5011 37.4428 41.5938 37.3799 41.6999C37.317 41.8059 37.2757 41.9234 37.2584 42.0455C37.2411 42.1677 37.2481 42.292 37.279 42.4114C37.31 42.5308 37.3642 42.6429 37.4386 42.7412C37.5131 42.8396 37.6062 42.9222 37.7127 42.9845L41.5412 45.2542C41.5529 45.262 41.5645 45.2705 41.5772 45.2776C41.9514 45.5036 42.2216 45.8677 42.3296 46.2913C42.4376 46.7148 42.3746 47.1639 42.1543 47.5414C41.93 47.9176 41.5658 48.1896 41.1415 48.2979C40.7171 48.4062 40.2672 48.342 39.89 48.1194L35.6639 45.6115C35.5583 45.5472 35.4409 45.5046 35.3187 45.486C35.1964 45.4673 35.0717 45.4732 34.9517 45.5031C34.8317 45.533 34.7188 45.5864 34.6196 45.6602C34.5204 45.734 34.4368 45.8268 34.3737 45.9331C34.3105 46.0395 34.2691 46.1573 34.2518 46.2797C34.2345 46.4022 34.2416 46.5268 34.2728 46.6465C34.304 46.7662 34.3586 46.8785 34.4335 46.9769C34.5083 47.0753 34.602 47.1579 34.709 47.2199L38.3136 49.3601C38.3177 49.3626 38.3214 49.3655 38.3253 49.3679C38.6996 49.5939 38.9699 49.958 39.0779 50.3816C39.1859 50.8053 39.1229 51.2544 38.9026 51.6319C38.6783 52.0081 38.3141 52.28 37.8897 52.3883C37.4654 52.4966 37.0154 52.4323 36.6383 52.2096L34.7505 51.089L34.7468 51.0867L33.0099 50.0555C32.7966 49.9289 32.5417 49.8922 32.3013 49.9535C32.0609 50.0148 31.8548 50.1691 31.7281 50.3824C31.6015 50.5958 31.5648 50.8506 31.6261 51.091C31.6874 51.3314 31.8417 51.5376 32.055 51.6642L33.7924 52.6954C34.1641 52.9239 34.4321 53.2882 34.5397 53.711C34.6474 54.1338 34.5861 54.5818 34.369 54.9602C34.1443 55.3358 33.7804 55.6074 33.3564 55.716C32.9325 55.8247 32.4828 55.7616 32.1052 55.5404L29.6427 54.0789L30.8189 52.0782C31.1478 51.5201 31.3026 50.8765 31.2633 50.2299C31.224 49.5833 30.9925 48.9631 30.5984 48.449C30.2043 47.9348 29.6657 47.5501 29.0515 47.3441C28.4373 47.1381 27.7755 47.1203 27.1511 47.2929C27.1482 47.2812 27.1459 47.2695 27.1427 47.2571C27.0346 46.8407 26.8449 46.45 26.5845 46.1076C26.3242 45.7652 25.9984 45.4779 25.6261 45.2624C25.2538 45.0469 24.8424 44.9075 24.4158 44.8523C23.9892 44.7972 23.5559 44.8273 23.141 44.941C23.1384 44.9309 23.1364 44.9207 23.1337 44.9107C23.0256 44.4947 22.836 44.1042 22.5759 43.762C22.3157 43.4199 21.9902 43.1327 21.6183 42.9173C21.2464 42.7018 20.8353 42.5624 20.4091 42.507C19.9828 42.4516 19.5498 42.4813 19.1351 42.5945C18.977 41.9675 18.6358 41.4018 18.155 40.9694C17.6741 40.537 17.0754 40.2576 16.4352 40.1668C15.795 40.076 15.1422 40.1779 14.5601 40.4595C13.9779 40.7411 13.4928 41.1896 13.1666 41.7479L12.4908 42.9016C12.3631 42.5453 12.2486 42.1695 12.136 41.7984C11.7936 40.6712 11.4397 39.5058 10.6745 38.7018L10.6141 38.6383L8.69099 37.2575L14.0482 25.8678C14.5156 25.997 14.9904 26.0981 15.4699 26.1706C17.2683 26.438 18.7643 26.2575 20.0842 26.0982H20.0849ZM28.6459 21.0379C28.8726 21.1305 29.1266 21.1305 29.3533 21.0379C33.6831 19.2691 38.3092 13.8911 38.3092 4.10203C38.3092 3.8557 38.2121 3.6193 38.0388 3.44417C37.8656 3.26905 37.6302 3.16934 37.3839 3.16669C34.2622 3.13302 31.7115 2.28279 29.5869 0.567254C29.4205 0.432901 29.2131 0.359619 28.9993 0.359619C28.7854 0.359619 28.578 0.432901 28.4116 0.567254C26.2871 2.28244 23.7368 3.13267 20.6149 3.16634C20.3685 3.16899 20.1332 3.2687 19.96 3.44382C19.7867 3.61895 19.6896 3.85534 19.6896 4.10168C19.6896 13.8906 24.3161 19.2686 28.6459 21.0379ZM28.9996 2.47021C31.0941 3.97541 33.5853 4.82493 36.4247 5.00277C36.1705 13.023 32.5305 17.5226 28.9996 19.1518C25.4687 17.5226 21.8286 13.023 21.5744 5.00277C24.4139 4.82493 26.905 3.97541 28.9996 2.47021ZM27.6451 13.3192L26.061 11.7948C25.8836 11.6225 25.7816 11.3869 25.7774 11.1396C25.7732 10.8923 25.8672 10.6534 26.0386 10.4752C26.2101 10.297 26.4452 10.1939 26.6925 10.1886C26.9398 10.1833 27.1791 10.2761 27.3581 10.4468L28.2501 11.3052L30.5986 8.73069C30.7658 8.54737 30.9989 8.43797 31.2468 8.42655C31.4946 8.41514 31.7368 8.50265 31.9202 8.66984C32.1035 8.83702 32.2129 9.07018 32.2243 9.31802C32.2357 9.56587 32.1482 9.80809 31.981 9.99142L28.9851 13.2756C28.9009 13.3678 28.7991 13.4422 28.6856 13.4944C28.5722 13.5466 28.4495 13.5756 28.3247 13.5796H28.2941C28.0523 13.58 27.8197 13.4867 27.6451 13.3192Z" fill="#393939"/>
</g>
<defs>
<clipPath id="clip0_137_534">
<rect width="58" height="58" fill="white"/>
</clipPath>
</defs>
</svg>
