<svg width="63" height="63" viewBox="0 0 63 63" fill="none" xmlns="http://www.w3.org/2000/svg">
<path d="M31.5 0C14.103 0 0 14.103 0 31.5C0 48.897 14.103 63 31.5 63C48.897 63 63 48.897 63 31.5C63 14.103 48.897 0 31.5 0ZM29.089 14.8272L30.4425 21.0603C26.4766 21.9382 22.8298 23.0799 23.1251 27.5087H27.7855V44.097H13.7467V28.593C13.7516 16.2717 22.7977 15.2693 29.089 14.8272ZM47.896 14.8272L49.2533 21.0603C45.2874 21.9382 41.6406 23.0799 41.9359 27.5087H46.5963V44.097H32.5575V28.593C32.5624 16.2717 41.6047 15.2693 47.896 14.8272Z" fill="white"/>
</svg>
