<svg width="20" height="15" viewBox="0 0 20 15" fill="none" xmlns="http://www.w3.org/2000/svg">
<path d="M19.2592 0.0064663C19.172 -0.00215543 19.0841 -0.00215543 18.9969 0.0064663H1.07987C0.965034 0.00816368 0.850961 0.0246813 0.740723 0.0555743L9.98718 8.88889L19.2592 0.0064663Z" fill="white"/>
<path d="M19.925 0.740723L10.825 9.76655C10.5908 9.99843 10.274 10.1286 9.94375 10.1286C9.61352 10.1286 9.2967 9.99843 9.0625 9.76655L0.04375 0.809195C0.0160246 0.910683 0.00132418 1.01526 0 1.12043V13.5699C0 13.9 0.131696 14.2167 0.366117 14.4502C0.600537 14.6836 0.918479 14.8148 1.25 14.8148H18.75C19.0815 14.8148 19.3995 14.6836 19.6339 14.4502C19.8683 14.2167 20 13.9 20 13.5699V1.12043C19.995 0.990741 19.9697 0.862625 19.925 0.740723ZM2.10625 13.5699H1.2375V12.6797L5.78125 8.1917L6.6625 9.06939L2.10625 13.5699ZM18.7375 13.5699H17.8625L13.3062 9.06939L14.1875 8.1917L18.7312 12.6797L18.7375 13.5699Z" fill="white"/>
</svg>
