<svg width="28" height="26" viewBox="0 0 28 26" fill="none" xmlns="http://www.w3.org/2000/svg">
<path d="M25.4798 23.9904C25.5198 23.9904 25.5594 23.9826 25.5963 23.9673C25.6333 23.952 25.6669 23.9295 25.6951 23.9013C25.7234 23.873 25.7458 23.8394 25.7611 23.8025C25.7764 23.7655 25.7843 23.7259 25.7843 23.6859V18.9369C25.7843 18.7686 25.6481 18.6324 25.4798 18.6324C25.3116 18.6324 25.1753 18.7686 25.1753 18.9369V23.6859C25.1753 23.7259 25.1832 23.7655 25.1985 23.8025C25.2138 23.8394 25.2362 23.873 25.2645 23.9013C25.2928 23.9295 25.3263 23.952 25.3633 23.9673C25.4002 23.9826 25.4398 23.9904 25.4798 23.9904ZM14.9656 8.28101C14.9256 8.28099 14.886 8.28885 14.8491 8.30415C14.8121 8.31945 14.7786 8.34187 14.7503 8.37015C14.722 8.39843 14.6996 8.432 14.6843 8.46895C14.669 8.5059 14.6611 8.5455 14.6611 8.58549V10.6558C14.6611 10.824 14.7974 10.9602 14.9656 10.9602C15.1339 10.9602 15.2701 10.824 15.2701 10.6558V8.58549C15.2701 8.5455 15.2623 8.50589 15.247 8.46894C15.2317 8.43199 15.2092 8.39841 15.181 8.37013C15.1527 8.34185 15.1191 8.31943 15.0822 8.30413C15.0452 8.28884 15.0056 8.28098 14.9656 8.28101Z" fill="#141515"/>
<path d="M27.0475 0H0.654228C0.293457 0 0 0.294935 0 0.657554V2.09479C0 2.47028 0.287422 2.76435 0.654228 2.76435H0.723635V4.49356C0.723635 6.09196 2.00696 7.3921 3.58418 7.3921H11.1894V10.7043C11.1894 12.5914 11.923 14.3717 13.2539 15.7155C14.5744 17.0621 16.3389 17.8041 18.2218 17.8041H20.3677C20.7109 17.8041 21.0436 17.947 21.2849 18.2012C21.5312 18.45 21.6671 18.7761 21.6671 19.1192V25.6955C21.667 25.7355 21.6749 25.7751 21.6902 25.8121C21.7055 25.849 21.7279 25.8826 21.7562 25.9109C21.7845 25.9391 21.818 25.9616 21.855 25.9769C21.8919 25.9921 21.9315 26 21.9715 26H27.1077C27.1477 26 27.1873 25.9921 27.2243 25.9769C27.2612 25.9616 27.2948 25.9391 27.3231 25.9109C27.3514 25.8826 27.3738 25.849 27.3891 25.8121C27.4044 25.7751 27.4122 25.7355 27.4122 25.6955V19.1192C27.4122 17.2322 26.6786 15.4518 25.3469 14.1068C24.014 12.7609 22.2457 12.0195 20.3678 12.0195H18.2219C17.8842 12.0195 17.5627 11.8828 17.3209 11.6394C17.0716 11.3773 16.9346 11.0454 16.9346 10.7044V7.39223H24.1178C25.7017 7.39223 26.9902 6.09209 26.9902 4.49368V2.76435H27.0475C27.421 2.76435 27.7138 2.47028 27.7138 2.09479V0.657554C27.7137 0.288654 27.4209 0 27.0475 0ZM0.608962 0.657554C0.608962 0.630579 0.629347 0.608962 0.654228 0.608962H27.0475C27.0819 0.608962 27.1047 0.628485 27.1047 0.657554V1.07166H0.608962V0.657554ZM16.8843 12.0635C17.2452 12.4278 17.7204 12.6285 18.2218 12.6285H20.3677C22.082 12.6285 23.6966 13.3055 24.9141 14.5355C26.1324 15.7654 26.8033 17.3937 26.8033 19.1192V25.3911H22.276V19.1192C22.276 18.6145 22.0778 18.1364 21.7219 17.7771C21.3705 17.4074 20.8766 17.1952 20.3678 17.1952H18.2219C16.5039 17.1952 14.8938 16.5185 13.6876 15.2881C12.4693 14.0582 11.7984 12.4298 11.7984 10.7044V7.39216H16.3256V10.7044C16.3256 11.2021 16.5225 11.6835 16.8843 12.0635ZM26.3812 4.49362C26.3812 5.75595 25.366 6.7832 24.1177 6.7832H3.58418C2.34261 6.7832 1.3326 5.75595 1.3326 4.49362V2.76435H26.3812V4.49362H26.3812ZM27.0475 2.15545H0.654289C0.628115 2.15545 0.609024 2.13007 0.609024 2.09479V1.68062H27.1048V2.09479C27.1047 2.11763 27.0973 2.15545 27.0475 2.15545Z" fill="#141515"/>
</svg>
