<svg width="62" height="42" viewBox="0 0 62 42" fill="none" xmlns="http://www.w3.org/2000/svg">
<path d="M55.1343 41.6454H6.8665C5.29759 41.6436 3.79347 41.0195 2.68413 39.9101C1.5748 38.8007 0.950865 37.2965 0.949219 35.7276V5.91784C0.950865 4.34894 1.5748 2.84475 2.68413 1.73531C3.79347 0.625877 5.29759 0.00179611 6.8665 0H55.1343C56.7032 0.00179611 58.2073 0.625877 59.3167 1.73531C60.426 2.84475 61.0499 4.34894 61.0516 5.91784V35.7276C61.0499 37.2965 60.426 38.8007 59.3167 39.9101C58.2073 41.0195 56.7032 41.6436 55.1343 41.6454ZM6.8665 2.26174C5.89721 2.26279 4.96793 2.64834 4.2826 3.33378C3.59726 4.01922 3.21186 4.94856 3.21096 5.91784V35.7276C3.21186 36.6969 3.59726 37.6262 4.2826 38.3116C4.96793 38.9971 5.89721 39.3826 6.8665 39.3837H55.1343C56.1036 39.3826 57.0329 38.9971 57.7182 38.3116C58.4035 37.6262 58.7889 36.6969 58.7898 35.7276V5.91784C58.7889 4.94856 58.4035 4.01922 57.7182 3.33378C57.0329 2.64834 56.1036 2.26279 55.1343 2.26174H6.8665Z" fill="black"/>
<path d="M31.0006 27.4779C30.725 27.4781 30.4588 27.3776 30.252 27.1952L2.99805 3.1371L4.49475 1.4408L31.0006 24.8408L57.5077 1.44362L59.0044 3.13993L31.7504 27.1981C31.5431 27.3799 31.2764 27.4795 31.0006 27.4779Z" fill="black"/>
<path d="M2.38281 38.0946L20.6916 17.2329L22.393 18.7256L4.08421 39.5868L2.38281 38.0946ZM39.6659 18.7041L41.3667 17.2114L59.6761 38.072L57.9753 39.5647L39.6659 18.7041Z" fill="black"/>
</svg>
