<svg width="17" height="31" viewBox="0 0 17 31" fill="none" xmlns="http://www.w3.org/2000/svg">
<path d="M15.505 0.0643856H10.9291C5.10121 0.00607205 4.35685 3.61294 4.35685 7.51652V10.355H1.78419C1.66791 10.3395 1.54962 10.351 1.4385 10.3886C1.32737 10.4262 1.22642 10.4889 1.14346 10.5718C1.06051 10.6548 0.997799 10.7558 0.960195 10.8669C0.922591 10.978 0.911109 11.0963 0.926641 11.2126V16.3579C0.911109 16.4742 0.922591 16.5925 0.960195 16.7036C0.997799 16.8147 1.06051 16.9157 1.14346 16.9986C1.22642 17.0816 1.32737 17.1443 1.4385 17.1819C1.54962 17.2195 1.66791 17.231 1.78419 17.2154H4.35685V30.0787C4.34291 30.1951 4.35567 30.3132 4.39417 30.424C4.43268 30.5347 4.4959 30.6352 4.57906 30.7179C4.66222 30.8006 4.76312 30.8632 4.8741 30.901C4.98507 30.9389 5.10322 30.9509 5.21955 30.9363H10.4592C10.9652 30.9946 11.3751 30.5847 11.2138 30.0787L11.2173 17.2154H15.505C15.6213 17.231 15.7396 17.2195 15.8507 17.1819C15.9619 17.1443 16.0628 17.0816 16.1458 16.9986C16.2287 16.9157 16.2914 16.8147 16.329 16.7036C16.3666 16.5925 16.3781 16.4742 16.3626 16.3579V11.2126C16.3781 11.0963 16.3666 10.978 16.329 10.8669C16.2914 10.7558 16.2287 10.6548 16.1458 10.5718C16.0628 10.4889 15.9619 10.4262 15.8507 10.3886C15.7396 10.351 15.6213 10.3395 15.505 10.355H11.2121L11.2173 7.78236C11.3836 6.68641 11.3836 6.86478 12.4007 6.92481H15.469C15.7074 6.87164 15.9613 6.9008 16.1396 6.72757C16.318 6.55434 16.4209 6.31766 16.3609 6.06725V0.921938C16.3767 0.805753 16.3655 0.687481 16.3281 0.576341C16.2907 0.4652 16.2282 0.364195 16.1453 0.281197C16.0625 0.198199 15.9616 0.135451 15.8506 0.0978437C15.7395 0.0602366 15.6213 0.0487866 15.505 0.0643856ZM14.5875 5.11366L12.4367 5.03133C9.77316 5.03133 9.55019 6.47716 9.55019 7.9573L9.54333 11.2091C9.54311 11.3296 9.56663 11.4488 9.61256 11.5602C9.65848 11.6715 9.72591 11.7726 9.81098 11.8579C9.89604 11.9431 9.99708 12.0107 10.1083 12.0568C10.2195 12.103 10.3388 12.1267 10.4592 12.1267H14.6475V15.4403H10.4626C10.2196 15.4403 9.98643 15.5367 9.8144 15.7085C9.64237 15.8802 9.5455 16.1131 9.54504 16.3562L9.54333 29.2212H6.07196V16.3579C6.07196 15.8519 5.72722 15.442 5.21955 15.442H2.64175V12.1284H5.21955C5.33995 12.129 5.45926 12.1056 5.57055 12.0597C5.68184 12.0138 5.7829 11.9462 5.86786 11.8609C6.03937 11.6877 6.07024 11.4544 6.07024 11.2109V7.5148C6.07024 3.66954 6.84718 1.83781 10.9274 1.83781H14.5857L14.5875 5.11366Z" fill="black"/>
</svg>
