<svg width="9" height="17" viewBox="0 0 9 17" fill="none" xmlns="http://www.w3.org/2000/svg">
<path d="M4.5 13.9091C3.672 13.9091 3.00001 14.6014 3.00001 15.4546C3.00001 16.3077 3.672 17 4.5 17C5.328 17 5.99999 16.3076 5.99999 15.4546C5.99999 14.6015 5.328 13.9091 4.5 13.9091ZM4.5 0C2.01449 0 0 2.07553 0 4.63635H1.49999C1.49999 2.93018 2.84249 1.54547 4.5 1.54547C6.15751 1.54547 7.49998 2.93018 7.49998 4.63635C7.49998 6.34253 6.15751 7.72726 4.5 7.72726C4.239 7.72726 3.9915 7.68244 3.74999 7.61756V11.5909C3.74999 12.0174 4.08599 12.3636 4.5 12.3636C4.91402 12.3636 5.25001 12.0174 5.25001 11.5909V9.19541C7.377 8.82453 9 6.93288 9 4.63632C9 2.07556 6.98551 0 4.5 0Z" fill="black"/>
</svg>
