<svg width="42" height="50" viewBox="0 0 42 50" fill="none" xmlns="http://www.w3.org/2000/svg">
<path d="M20.879 10.7771C13.8022 10.7771 8.02051 16.5588 8.02051 23.6356C8.02051 27.3358 9.63938 30.8974 12.3683 33.3025C14.4035 35.3377 14.2185 39.6855 14.1722 39.7318C14.1722 39.963 14.2185 40.1481 14.4035 40.3331C14.5422 40.4718 14.7735 40.5643 14.9585 40.5643H26.7532C26.9844 40.5643 27.1694 40.4718 27.3082 40.3331C27.447 40.1943 27.5395 39.963 27.5395 39.7318C27.5395 39.6855 27.3082 35.3377 29.3434 33.3025L29.4821 33.1638C32.1648 30.7123 33.7374 27.2433 33.7374 23.6356C33.7374 16.5588 27.9558 10.7771 20.879 10.7771ZM28.2795 32.1C28.2333 32.1462 28.1408 32.2387 28.1408 32.285C26.3369 34.2276 26.0131 37.4191 25.9669 38.9455H15.7448C15.6986 37.4191 15.3748 34.0889 13.4322 32.1C10.9807 29.9723 9.54687 26.8733 9.54687 23.5893C9.54687 17.3451 14.5885 12.3035 20.8327 12.3035C27.0769 12.3035 32.1186 17.3451 32.1186 23.5893C32.1186 26.8733 30.731 29.9723 28.2795 32.1Z" fill="white"/>
<path d="M20.833 14.0611C20.4167 14.0611 20.0467 14.4311 20.0467 14.8474C20.0467 15.2636 20.4167 15.6337 20.833 15.6337C25.5046 15.6337 29.2511 19.4265 29.2511 24.0518C29.2511 24.4681 29.6211 24.8381 30.0374 24.8381C30.4537 24.8381 30.8237 24.4681 30.8237 24.0518C30.87 18.5476 26.3834 14.0611 20.833 14.0611ZM25.9671 41.4431H15.6988C14.635 41.4431 13.7562 42.3219 13.7562 43.3858C13.7562 44.4496 14.635 45.3284 15.6988 45.3284H25.9208C27.0309 45.2821 27.9097 44.4496 27.9097 43.3858C27.9097 42.3219 27.0309 41.4431 25.9671 41.4431ZM25.9671 43.7095H15.6988C15.5138 43.7095 15.3288 43.5708 15.3288 43.3395C15.3288 43.1082 15.4676 42.9695 15.6988 42.9695H25.9208C26.1059 42.9695 26.2909 43.1082 26.2909 43.3395C26.2909 43.5708 26.1521 43.7095 25.9671 43.7095ZM24.4407 46.1147H17.2252C16.1614 46.1147 15.2825 46.9935 15.2825 48.0574C15.2825 49.1212 16.1614 50 17.2252 50H24.4407C25.5046 50 26.3834 49.1212 26.3834 48.0574C26.3834 46.9473 25.5046 46.1147 24.4407 46.1147ZM24.4407 48.3811H17.2252C17.0402 48.3811 16.8552 48.2424 16.8552 48.0111C16.8552 47.7798 16.9939 47.6411 17.2252 47.6411H24.4407C24.6257 47.6411 24.8108 47.7798 24.8108 48.0111C24.8108 48.2424 24.6257 48.3811 24.4407 48.3811ZM20.833 6.93802C21.2955 6.93802 21.6193 6.56799 21.6193 6.15171V0.786309C21.6193 0.370028 21.2492 0 20.833 0C20.4167 0 20.0467 0.370028 20.0467 0.786309V6.15171C20.0467 6.56799 20.4167 6.93802 20.833 6.93802ZM33.9227 3.9778C33.5527 3.70028 33.0901 3.83904 32.8589 4.16281L29.8986 8.60315C29.6211 8.97317 29.7136 9.48196 30.0837 9.71323C30.2224 9.80574 30.3612 9.85199 30.4999 9.85199C30.7775 9.85199 31.0087 9.71323 31.1475 9.48196L34.1077 5.04163C34.3852 4.71785 34.2927 4.20907 33.9227 3.9778ZM11.4435 9.66698C11.5823 9.66698 11.721 9.62072 11.8598 9.52821C12.2298 9.29695 12.3223 8.78816 12.0911 8.41813L9.22334 3.93155C8.99207 3.56152 8.48329 3.46901 8.11326 3.70028C7.74323 3.93155 7.65072 4.44033 7.88199 4.81036L10.7497 9.29695C10.9347 9.57447 11.166 9.66698 11.4435 9.66698ZM5.84684 14.5698L1.17524 12.0259C0.805211 11.8409 0.296423 11.9796 0.111409 12.3497C-0.119858 12.7197 0.0189023 13.2285 0.435184 13.4135L5.10678 15.9574C5.24554 16.0037 5.33805 16.05 5.47681 16.05C5.75433 16.05 6.03185 15.9112 6.17061 15.6337C6.35563 15.2636 6.21687 14.7549 5.84684 14.5698ZM41.6008 12.3497C41.4158 11.9796 40.907 11.8409 40.5369 12.0259L35.8191 14.5698C35.4491 14.7549 35.3103 15.2636 35.4953 15.6337C35.6341 15.9112 35.9116 16.05 36.1891 16.05C36.3279 16.05 36.4666 16.0037 36.5591 15.9574L41.277 13.4135C41.647 13.2285 41.7858 12.7197 41.6008 12.3497Z" fill="white"/>
</svg>
