<svg width="26" height="26" viewBox="0 0 26 26" fill="none" xmlns="http://www.w3.org/2000/svg">
<g clip-path="url(#clip0_137_1384)">
<path d="M4.0625 19.4234H2.40625C1.76851 19.4234 1.15685 19.1703 0.705658 18.7195C0.25447 18.2688 0.000662592 17.6574 0 17.0197V12.7584C0.000661799 12.1211 0.254126 11.5101 0.704773 11.0594C1.15542 10.6088 1.76644 10.3553 2.40375 10.3547H4.06C4.19261 10.3547 4.31979 10.4074 4.41356 10.5011C4.50732 10.5949 4.56 10.7221 4.56 10.8547V18.9234C4.56 19.0556 4.50767 19.1824 4.41444 19.2761C4.32121 19.3698 4.19468 19.4228 4.0625 19.4234ZM2.40625 11.3547C2.03372 11.3547 1.67642 11.5025 1.41277 11.7657C1.14911 12.0289 1.00066 12.3859 1 12.7584V17.0197C1.00066 17.3918 1.14877 17.7484 1.41188 18.0116C1.67499 18.2747 2.03166 18.4228 2.40375 18.4234H3.56V11.3547H2.40625Z" fill="#393939"/>
<path d="M6.19656 19.4234H4.0625C3.92989 19.4234 3.80272 19.3708 3.70895 19.277C3.61518 19.1832 3.5625 19.056 3.5625 18.9234V10.8547C3.5625 10.7221 3.61518 10.5949 3.70895 10.5011C3.80272 10.4074 3.92989 10.3547 4.0625 10.3547H6.19813C6.33074 10.3547 6.45791 10.4074 6.55168 10.5011C6.64545 10.5949 6.69813 10.7221 6.69813 10.8547V18.9234C6.69813 18.9892 6.68514 19.0544 6.65992 19.1151C6.63469 19.1759 6.59772 19.2311 6.55113 19.2775C6.50453 19.324 6.44923 19.3608 6.38839 19.3858C6.32754 19.4109 6.26236 19.4236 6.19656 19.4234ZM4.56094 18.4234H5.69656V11.3547H4.5625L4.56094 18.4234ZM23.5963 19.4234H21.94C21.8074 19.4234 21.6802 19.3708 21.5865 19.277C21.4927 19.1832 21.44 19.056 21.44 18.9234V10.8547C21.44 10.7221 21.4927 10.5949 21.5865 10.5011C21.6802 10.4074 21.8074 10.3547 21.94 10.3547H23.5963C24.2336 10.3553 24.8446 10.6088 25.2952 11.0594C25.7459 11.5101 25.9994 12.1211 26 12.7584V17.0197C25.9994 17.657 25.7459 18.268 25.2952 18.7187C24.8446 19.1693 24.2336 19.4228 23.5963 19.4234ZM22.44 18.4234H23.5963C23.9684 18.4228 24.325 18.2747 24.5881 18.0115C24.8512 17.7484 24.9994 17.3918 25 17.0197V12.7584C24.9994 12.3863 24.8512 12.0297 24.5881 11.7666C24.325 11.5034 23.9684 11.3553 23.5963 11.3547H22.44V18.4234Z" fill="#393939"/>
<path d="M21.9393 19.4234H19.8037C19.6711 19.4234 19.5439 19.3708 19.4502 19.277C19.3564 19.1832 19.3037 19.056 19.3037 18.9234V10.8547C19.3037 10.7221 19.3564 10.5949 19.4502 10.5011C19.5439 10.4074 19.6711 10.3547 19.8037 10.3547H21.9393C22.0719 10.3547 22.1991 10.4074 22.2929 10.5011C22.3867 10.5949 22.4393 10.7221 22.4393 10.8547V18.9234C22.4393 19.056 22.3867 19.1832 22.2929 19.277C22.1991 19.3708 22.0719 19.4234 21.9393 19.4234ZM20.3037 18.4234H21.4393V11.3547H20.3037V18.4234Z" fill="#393939"/>
<path d="M23.2412 11.3547H20.8315C20.6989 11.3547 20.5717 11.302 20.478 11.2082C20.3842 11.1145 20.3315 10.9873 20.3315 10.8547C20.3315 6.90624 17.1193 3.69374 13.1709 3.69374C9.22247 3.69374 6.01028 6.90624 6.01028 10.8547C6.01028 10.9873 5.9576 11.1145 5.86383 11.2082C5.77006 11.302 5.64288 11.3547 5.51028 11.3547H3.10059C2.96798 11.3547 2.8408 11.302 2.74703 11.2082C2.65326 11.1145 2.60059 10.9873 2.60059 10.8547C2.60059 8.05126 3.71424 5.36266 5.69656 3.38034C7.67888 1.39802 10.3675 0.284363 13.1709 0.284363C15.9743 0.284363 18.6629 1.39802 20.6452 3.38034C22.6276 5.36266 23.7412 8.05126 23.7412 10.8547C23.7412 10.9873 23.6885 11.1145 23.5948 11.2082C23.501 11.302 23.3738 11.3547 23.2412 11.3547ZM21.3165 10.3547H22.7284C22.6001 7.9065 21.5371 5.60091 19.7588 3.91339C17.9805 2.22587 15.6225 1.28511 13.1709 1.28511C10.7194 1.28511 8.36128 2.22587 6.58298 3.91339C4.80467 5.60091 3.74175 7.9065 3.6134 10.3547H5.02527C5.28434 6.08655 8.83778 2.69374 13.1709 2.69374C17.504 2.69374 21.0575 6.08655 21.3165 10.3547ZM14.9378 24.2269C14.8101 24.2266 14.6874 24.1775 14.5948 24.0896C14.5021 24.0017 14.4466 23.8818 14.4396 23.7543C14.4327 23.6268 14.4747 23.5015 14.5571 23.404C14.6396 23.3065 14.7562 23.2443 14.8831 23.23C20.5593 22.5988 21.4434 18.855 21.4515 18.8166C21.4841 18.6914 21.5639 18.5838 21.6742 18.5162C21.7844 18.4487 21.9165 18.4264 22.0428 18.4542C22.1691 18.482 22.2797 18.5576 22.3514 18.6652C22.4232 18.7728 22.4504 18.904 22.4275 19.0312C22.4172 19.0788 22.1615 20.2037 21.0993 21.4034C20.4843 22.0981 19.7212 22.6813 18.8318 23.1363C17.7356 23.6963 16.444 24.0625 14.9925 24.2238C14.9743 24.2258 14.9561 24.2269 14.9378 24.2269Z" fill="#393939"/>
<path d="M13.5454 25.716H12.7954C12.2928 25.716 11.8108 25.5163 11.4554 25.1609C11.1 24.8056 10.9004 24.3236 10.9004 23.821C10.9004 23.3184 11.1 22.8364 11.4554 22.481C11.8108 22.1256 12.2928 21.926 12.7954 21.926H13.5454C14.048 21.926 14.53 22.1256 14.8854 22.481C15.2407 22.8364 15.4404 23.3184 15.4404 23.821C15.4404 24.3236 15.2407 24.8056 14.8854 25.1609C14.53 25.5163 14.048 25.716 13.5454 25.716ZM12.7954 22.926C12.558 22.926 12.3304 23.0203 12.1625 23.1881C11.9947 23.3559 11.9004 23.5836 11.9004 23.821C11.9004 24.0583 11.9947 24.286 12.1625 24.4538C12.3304 24.6217 12.558 24.716 12.7954 24.716H13.5454C13.7828 24.716 14.0104 24.6217 14.1783 24.4538C14.3461 24.286 14.4404 24.0583 14.4404 23.821C14.4404 23.5836 14.3461 23.3559 14.1783 23.1881C14.0104 23.0203 13.7828 22.926 13.5454 22.926H12.7954Z" fill="#393939"/>
</g>
<defs>
<clipPath id="clip0_137_1384">
<rect width="26" height="26" fill="white"/>
</clipPath>
</defs>
</svg>
