<svg width="37" height="50" viewBox="0 0 37 50" fill="none" xmlns="http://www.w3.org/2000/svg">
<path d="M18.4702 0C8.28553 0 0 8.28553 0 18.4702C0 21.8231 1.50369 25.4292 1.56671 25.5813C2.05237 26.734 3.01065 28.5246 3.70165 29.5741L16.3657 48.7625C16.884 49.5491 17.651 50 18.4702 50C19.2894 50 20.0565 49.5491 20.5748 48.7636L33.2399 29.5741C33.932 28.5246 34.8892 26.734 35.3748 25.5813C35.4379 25.4302 36.9405 21.8242 36.9405 18.4702C36.9405 8.28553 28.6549 0 18.4702 0ZM33.3714 24.7382C32.9379 25.7714 32.0458 27.437 31.4255 28.3779L18.7603 47.5674C18.5104 47.9465 18.4311 47.9465 18.1812 47.5674L5.51608 28.3779C4.8957 27.437 4.00369 25.7703 3.57019 24.7371C3.55172 24.6925 2.17297 21.3733 2.17297 18.4702C2.17297 9.48392 9.48392 2.17297 18.4702 2.17297C27.4565 2.17297 34.7675 9.48392 34.7675 18.4702C34.7675 21.3777 33.3855 24.7056 33.3714 24.7382Z" fill="black"/>
<path d="M18.4717 8.69312C13.0795 8.69312 8.69336 13.0803 8.69336 18.4715C8.69336 23.8626 13.0795 28.2498 18.4717 28.2498C23.8639 28.2498 28.2501 23.8626 28.2501 18.4715C28.2501 13.0803 23.8639 8.69312 18.4717 8.69312ZM18.4717 26.0769C14.279 26.0769 10.8663 22.6653 10.8663 18.4715C10.8663 14.2776 14.279 10.8661 18.4717 10.8661C22.6645 10.8661 26.0771 14.2776 26.0771 18.4715C26.0771 22.6653 22.6645 26.0769 18.4717 26.0769Z" fill="black"/>
</svg>
