<svg width="50" height="50" viewBox="0 0 50 50" fill="none" xmlns="http://www.w3.org/2000/svg">
<path d="M48.6914 38.5733L38.5705 31.8238C37.2862 30.9742 35.5645 31.2537 34.615 32.4663L31.6669 36.2568C31.4836 36.4984 31.2193 36.6659 30.9225 36.7283C30.6257 36.7908 30.3163 36.7441 30.0512 36.5968L29.4904 36.2876C27.6313 35.2743 25.3182 34.0128 20.6578 29.3507C15.9973 24.6885 14.7332 22.3737 13.7199 20.5181L13.4124 19.9573C13.2631 19.6922 13.2147 19.3821 13.2759 19.0842C13.3371 18.7862 13.504 18.5204 13.7457 18.3357L17.5337 15.3885C18.7457 14.4388 19.0257 12.7177 18.177 11.4329L11.4275 1.31201C10.5577 0.00371644 8.81277 -0.389027 7.46629 0.420383L3.23409 2.96267C1.90431 3.74441 0.928732 5.01055 0.511843 6.4957C-1.01216 12.0486 0.134333 21.632 14.2516 35.751C25.4816 46.9801 33.8418 49.9999 39.588 49.9999C40.9105 50.0055 42.2278 49.8335 43.5044 49.4883C44.9898 49.0719 46.2561 48.0962 47.0375 46.766L49.5823 42.5364C50.3929 41.1896 50.0003 39.4435 48.6914 38.5733ZM48.1465 41.6814L45.6075 45.9136C45.0464 46.8737 44.1357 47.5796 43.066 47.8834C37.9397 49.2908 28.9838 48.1251 15.4306 34.5719C1.87746 21.0188 0.711828 12.0636 2.11924 6.93658C2.42355 5.86553 3.13028 4.95365 4.09155 4.39176L8.32374 1.85279C8.90797 1.50126 9.66534 1.67165 10.0427 2.23938L13.7092 7.74394L16.7865 12.3594C17.155 12.9167 17.0339 13.6636 16.5082 14.076L12.7193 17.0232C11.5663 17.9049 11.237 19.5002 11.9469 20.7663L12.2478 21.3129C13.3127 23.2661 14.6367 25.6959 19.4705 30.5289C24.3043 35.3618 26.7334 36.6859 28.6856 37.7508L29.2331 38.0524C30.4991 38.7622 32.0945 38.4331 32.9761 37.28L35.9234 33.4912C36.3358 32.9657 37.0825 32.8447 37.6399 33.2129L47.76 39.9624C48.3281 40.3395 48.4985 41.0972 48.1465 41.6814ZM28.3338 8.33647C36.1536 8.34516 42.4906 14.6823 42.4994 22.5021C42.4994 22.9623 42.8724 23.3353 43.3327 23.3353C43.7929 23.3353 44.1659 22.9623 44.1659 22.5021C44.1562 13.7622 37.0737 6.67957 28.3338 6.67C27.8736 6.67 27.5006 7.04302 27.5006 7.50324C27.5006 7.96345 27.8736 8.33647 28.3338 8.33647Z" fill="black"/>
<path d="M28.3332 13.3361C33.393 13.342 37.4933 17.4423 37.4992 22.5021C37.4992 22.7231 37.587 22.935 37.7433 23.0913C37.8995 23.2475 38.1115 23.3353 38.3325 23.3353C38.5535 23.3353 38.7654 23.2475 38.9217 23.0913C39.0779 22.935 39.1657 22.7231 39.1657 22.5021C39.1588 16.5223 34.313 11.6765 28.3332 11.6696C27.873 11.6696 27.5 12.0426 27.5 12.5029C27.5 12.9631 27.873 13.3361 28.3332 13.3361Z" fill="black"/>
<path d="M28.3332 18.3357C30.6331 18.3385 32.4968 20.2022 32.4996 22.5021C32.4996 22.7231 32.5874 22.935 32.7437 23.0913C32.8999 23.2476 33.1119 23.3353 33.3329 23.3353C33.5538 23.3353 33.7658 23.2476 33.922 23.0913C34.0783 22.935 34.1661 22.7231 34.1661 22.5021C34.1624 19.2822 31.5531 16.6729 28.3332 16.6693C27.873 16.6693 27.5 17.0423 27.5 17.5025C27.5 17.9627 27.873 18.3357 28.3332 18.3357Z" fill="black"/>
</svg>
