<svg width="40" height="50" viewBox="0 0 40 50" fill="none" xmlns="http://www.w3.org/2000/svg">
<path d="M36.6667 50C37.5507 50 38.3986 49.6488 39.0237 49.0237C39.6488 48.3986 40 47.5507 40 46.6667V13.535C39.9976 12.6515 39.6467 11.8045 39.0233 11.1783L28.8217 0.976667C28.1955 0.353352 27.3485 0.00237016 26.465 0L3.33333 0C2.44928 0 1.60143 0.35119 0.976311 0.976311C0.351189 1.60143 0 2.44928 0 3.33333V46.6667C0 47.5507 0.351189 48.3986 0.976311 49.0237C1.60143 49.6488 2.44928 50 3.33333 50H36.6667ZM37.155 11.6667H30C29.558 11.6667 29.1341 11.4911 28.8215 11.1785C28.5089 10.8659 28.3333 10.442 28.3333 10V2.845L37.155 11.6667ZM1.66667 46.6667V3.33333C1.66667 2.89131 1.84226 2.46738 2.15482 2.15482C2.46738 1.84226 2.89131 1.66667 3.33333 1.66667H26.465C26.5326 1.6692 26.5999 1.67588 26.6667 1.68667V10C26.6667 10.8841 27.0179 11.7319 27.643 12.357C28.2681 12.9821 29.1159 13.3333 30 13.3333H38.3133C38.3241 13.4001 38.3308 13.4674 38.3333 13.535V46.6667C38.3333 47.1087 38.1577 47.5326 37.8452 47.8452C37.5326 48.1577 37.1087 48.3333 36.6667 48.3333H3.33333C2.89131 48.3333 2.46738 48.1577 2.15482 47.8452C1.84226 47.5326 1.66667 47.1087 1.66667 46.6667Z" fill="white"/>
<path d="M7.50033 21.6667H32.5003C32.7213 21.6667 32.9333 21.5789 33.0896 21.4226C33.2459 21.2663 33.3337 21.0543 33.3337 20.8333C33.3337 20.6123 33.2459 20.4004 33.0896 20.2441C32.9333 20.0878 32.7213 20 32.5003 20H7.50033C7.27931 20 7.06735 20.0878 6.91107 20.2441C6.75479 20.4004 6.66699 20.6123 6.66699 20.8333C6.66699 21.0543 6.75479 21.2663 6.91107 21.4226C7.06735 21.5789 7.27931 21.6667 7.50033 21.6667ZM7.50033 28.3333H32.5003C32.7213 28.3333 32.9333 28.2455 33.0896 28.0893C33.2459 27.933 33.3337 27.721 33.3337 27.5C33.3337 27.279 33.2459 27.067 33.0896 26.9107C32.9333 26.7545 32.7213 26.6667 32.5003 26.6667H7.50033C7.27931 26.6667 7.06735 26.7545 6.91107 26.9107C6.75479 27.067 6.66699 27.279 6.66699 27.5C6.66699 27.721 6.75479 27.933 6.91107 28.0893C7.06735 28.2455 7.27931 28.3333 7.50033 28.3333ZM7.50033 35H32.5003C32.7213 35 32.9333 34.9122 33.0896 34.7559C33.2459 34.5996 33.3337 34.3877 33.3337 34.1667C33.3337 33.9457 33.2459 33.7337 33.0896 33.5774C32.9333 33.4211 32.7213 33.3333 32.5003 33.3333H7.50033C7.27931 33.3333 7.06735 33.4211 6.91107 33.5774C6.75479 33.7337 6.66699 33.9457 6.66699 34.1667C6.66699 34.3877 6.75479 34.5996 6.91107 34.7559C7.06735 34.9122 7.27931 35 7.50033 35ZM7.50033 41.6667H24.167C24.388 41.6667 24.6 41.5789 24.7562 41.4226C24.9125 41.2663 25.0003 41.0543 25.0003 40.8333C25.0003 40.6123 24.9125 40.4004 24.7562 40.2441C24.6 40.0878 24.388 40 24.167 40H7.50033C7.27931 40 7.06735 40.0878 6.91107 40.2441C6.75479 40.4004 6.66699 40.6123 6.66699 40.8333C6.66699 41.0543 6.75479 41.2663 6.91107 41.4226C7.06735 41.5789 7.27931 41.6667 7.50033 41.6667Z" fill="white"/>
</svg>
