<svg width="42" height="26" viewBox="0 0 42 26" fill="none" xmlns="http://www.w3.org/2000/svg">
<path d="M41.4516 25.2387L32.8022 8.88715V0.516745C32.8022 0.231674 32.5705 0 32.2855 0H26.2714C25.9863 0 25.7547 0.231674 25.7547 0.516745V2.77492H12.2056C12.0136 2.77492 11.8379 2.88085 11.7483 3.05052L8.82613 8.59777L5.90394 14.145L2.98175 19.6923L0.0595575 25.2387C-0.000270109 25.3523 -0.015685 25.4841 0.0163139 25.6084C0.0483127 25.7327 0.125435 25.8407 0.232667 25.9113C0.319652 25.969 0.418695 25.9966 0.516015 25.9966C0.667594 25.9966 0.817449 25.9302 0.919076 25.8045C1.6296 24.9235 2.46845 24.4558 3.34519 24.4541C4.21246 24.4506 5.08748 24.9321 5.79973 25.8071L5.80145 25.8062C5.83418 25.8467 5.87121 25.8829 5.91686 25.913C6.00384 25.9707 6.10288 25.9983 6.2002 25.9983C6.35178 25.9983 6.50164 25.932 6.60326 25.8062C7.31379 24.9252 8.15264 24.4575 9.02938 24.4558C9.90182 24.4524 10.7725 24.9338 11.4839 25.8088L11.4856 25.8079C11.5184 25.8484 11.5554 25.8846 11.601 25.9147C11.688 25.9724 11.7871 26 11.8844 26C12.036 26 12.1858 25.9337 12.2875 25.8079C12.998 24.9269 13.8368 24.4592 14.7136 24.4575H14.7196C15.5335 24.4575 16.3473 24.8787 17.0312 25.6486C17.0432 25.6839 17.0579 25.7184 17.0777 25.7502C17.1715 25.9053 17.3395 26 17.5204 26H40.9952C41.1761 26 41.344 25.9053 41.4379 25.7502C41.5317 25.5918 41.5369 25.3989 41.4516 25.2387ZM26.7873 1.03349H31.7679V6.93299L29.7138 3.04965C29.6698 2.96675 29.6041 2.89738 29.5237 2.84898C29.4433 2.80058 29.3512 2.77498 29.2573 2.77492H26.7873V1.03349ZM23.8849 3.80927H28.3995L26.2103 7.94839C25.3998 7.18964 24.4542 6.77969 23.4862 6.77969H23.4776C23.0392 6.78055 22.606 6.86581 22.1883 7.03031L23.8849 3.80927ZM20.3495 19.0265C19.5434 18.2781 18.6029 17.8733 17.6418 17.8733H17.6332C17.1948 17.8742 16.7616 17.9595 16.3439 18.124L18.1603 14.6764C18.8647 13.8177 19.6924 13.363 20.5579 13.3604H20.564C21.3382 13.3604 22.1125 13.7428 22.7748 14.443L20.3495 19.0265ZM14.6895 19.0489C13.8773 18.2859 12.9291 17.8733 11.9585 17.8733H11.9498C11.5115 17.8742 11.0783 17.9595 10.6606 18.124L12.4769 14.6764C13.1814 13.8177 14.0091 13.363 14.8746 13.3604H14.8806C15.6609 13.3604 16.4421 13.7488 17.1078 14.4602L14.6895 19.0489ZM15.3991 9.12829C16.1036 8.26964 16.9313 7.8149 17.7959 7.81232H17.802C18.5823 7.81232 19.3634 8.20074 20.0291 8.91212L17.6116 13.5017C16.7995 12.7386 15.8513 12.3261 14.8806 12.3261H14.872C14.4337 12.3269 14.0005 12.4122 13.5828 12.5767L15.3991 9.12829ZM23.2803 13.487C22.4716 12.7334 21.5286 12.3269 20.564 12.3269H20.5554C20.117 12.3278 19.6838 12.4131 19.2661 12.5776L21.0824 9.12915C21.7869 8.2705 22.6146 7.81576 23.4793 7.81318H23.4853C24.263 7.81318 25.0398 8.19815 25.7039 8.90351L23.2803 13.487ZM18.2007 3.80927H22.7171L20.533 7.95528C19.7208 7.19222 18.7726 6.77969 17.802 6.77969H17.7934C17.355 6.78055 16.9218 6.86581 16.5041 7.03031L18.2007 3.80927ZM12.5165 3.80927H17.0329L14.8488 7.95528C14.0366 7.19222 13.0884 6.77969 12.1178 6.77969H12.1092C11.6708 6.78055 11.2376 6.86581 10.8199 7.03031L12.5165 3.80927ZM9.71493 9.12829C10.4194 8.26964 11.2471 7.8149 12.1118 7.81232H12.1178C12.8981 7.81232 13.6792 8.20074 14.345 8.91212L11.9275 13.5017C11.1153 12.7386 10.1671 12.3261 9.19646 12.3261H9.18785C8.74948 12.3269 8.31627 12.4122 7.89857 12.5767L9.71493 9.12829ZM6.79274 14.6755C7.49723 13.8169 8.32489 13.3622 9.18957 13.3596H9.1956C9.97588 13.3596 10.757 13.748 11.4228 14.4594L9.00527 19.0489C8.19312 18.2859 7.24489 17.8733 6.27427 17.8733H6.26566C5.82729 17.8742 5.39408 17.9595 4.97638 18.124L6.79274 14.6755ZM6.08308 24.5962C5.27093 23.8331 4.3227 23.4206 3.35208 23.4206H3.34347C2.9051 23.4214 2.47189 23.5067 2.05419 23.6712L3.87055 20.2228C4.57504 19.3641 5.4027 18.9094 6.26738 18.9068H6.27341C7.05369 18.9068 7.83484 19.2952 8.50058 20.0066L6.08308 24.5962ZM11.7673 24.5962C10.9551 23.8331 10.0069 23.4206 9.03627 23.4206H9.02766C8.58929 23.4214 8.15608 23.5067 7.73838 23.6712L9.55474 20.2228C10.2592 19.3641 11.0869 18.9094 11.9516 18.9068H11.9576C12.7379 18.9068 13.519 19.2952 14.1848 20.0066L11.7673 24.5962ZM14.7205 23.4206H14.7118C14.2735 23.4214 13.8403 23.5067 13.4226 23.6712L15.2389 20.2228C15.9434 19.3641 16.7711 18.9094 17.6358 18.9068H17.6418C18.4126 18.9068 19.1843 19.2858 19.8448 19.9808L17.4196 24.566C16.6143 23.8228 15.6782 23.4206 14.7205 23.4206ZM20.9291 24.9639L29.2582 9.26781L37.5873 24.9639H20.9291ZM38.7568 24.9639L29.7138 7.92255C29.6242 7.75375 29.4485 7.64782 29.2573 7.64782C29.0661 7.64782 28.8905 7.75375 28.8009 7.92255L19.7587 24.9639H18.3781L29.2573 4.3975L40.1365 24.9639H38.7568Z" fill="#393939"/>
</svg>
