<svg width="20" height="26" viewBox="0 0 20 26" fill="none" xmlns="http://www.w3.org/2000/svg">
<path d="M9.92785 1.7771C14.4865 1.7771 18.1953 5.48587 18.1953 10.0446V23.9524C18.1953 24.1842 18.0408 24.3388 17.809 24.3388H2.04672C1.81493 24.3388 1.66039 24.1842 1.66039 23.9524V10.0446C1.66039 5.48587 5.36916 1.7771 9.92785 1.7771ZM15.3751 4.90637L10.855 9.65823H17.4227C17.3068 7.80385 16.5341 6.14263 15.3751 4.90637ZM10.3142 23.5661H17.4227V17.3848H10.3142V23.5661ZM10.3142 16.6122H17.4227V10.4309H10.3142V16.6122ZM10.3142 9.07873L14.7956 4.36551C13.5594 3.32242 12.014 2.66566 10.3142 2.54976V9.07873ZM2.47169 9.65823H9.00066L4.4806 4.90637C3.28298 6.14263 2.54895 7.80385 2.47169 9.65823ZM9.54152 2.54976C7.84167 2.62703 6.25772 3.28379 5.0601 4.36551L9.54152 9.07873V2.54976ZM2.43305 23.5661H9.54152V17.3848H2.43305V23.5661ZM2.43305 16.6122H9.54152V10.4309H2.43305V16.6122Z" fill="#393939"/>
<path d="M2.89699 2.82021C4.71274 1.00446 7.22389 0 9.9282 0C15.3754 0 19.6251 3.94056 19.8955 9.19465V25.6137C19.8955 25.8455 19.741 26 19.5092 26H0.385849C0.154051 26 -0.000480652 25.8455 -0.000480652 25.6137V9.19465C0.115419 6.83804 1.15851 4.52006 2.89699 2.82021ZM0.733545 25.266H19.0842V9.23328C18.8911 4.40416 14.9119 0.77266 9.9282 0.77266C5.63993 0.77266 1.00398 3.94056 0.733545 9.23328V25.266Z" fill="#393939"/>
</svg>
