<svg width="49" height="43" viewBox="0 0 49 43" fill="none" xmlns="http://www.w3.org/2000/svg">
<path d="M33.6875 43C32.063 43 30.5051 42.3529 29.3565 41.201C28.2078 40.0492 27.5625 38.4869 27.5625 36.8579V18.4316C27.5625 8.81924 32.6156 2.48367 42.1308 0.0974655C42.522 -0.00379036 42.9293 -0.0264314 43.3293 0.0308571C43.7292 0.0881456 44.1139 0.22423 44.4612 0.431263C44.8085 0.638296 45.1115 0.912189 45.3527 1.23716C45.594 1.56214 45.7687 1.93177 45.8669 2.32477C45.9651 2.71777 45.9848 3.12636 45.9248 3.52701C45.8648 3.92766 45.7263 4.31245 45.5174 4.65921C45.3085 5.00597 45.0332 5.30785 44.7074 5.54745C44.3816 5.78706 44.0118 5.95965 43.6192 6.05529C36.799 7.76587 33.6875 11.6661 33.6875 18.4316V21.5027H42.875C44.4203 21.5022 45.9086 22.0874 47.0417 23.1411C48.1747 24.1947 48.8688 25.6389 48.9847 27.1841L49 27.6448V36.8579C49 38.4869 48.3547 40.0492 47.206 41.201C46.0574 42.3529 44.4995 43 42.875 43H33.6875ZM6.125 43C4.50055 43 2.94263 42.3529 1.79397 41.201C0.645312 40.0492 0 38.4869 0 36.8579V18.4316C0 8.81924 5.05313 2.48367 14.5683 0.0974655C14.9595 -0.00379036 15.3668 -0.0264314 15.7668 0.0308571C16.1667 0.0881456 16.5514 0.22423 16.8987 0.431263C17.246 0.638296 17.549 0.912189 17.7902 1.23716C18.0315 1.56214 18.2062 1.93177 18.3044 2.32477C18.4026 2.71777 18.4223 3.12636 18.3623 3.52701C18.3023 3.92766 18.1638 4.31245 17.9549 4.65921C17.746 5.00597 17.4707 5.30785 17.1449 5.54745C16.8191 5.78706 16.4493 5.95965 16.0567 6.05529C9.2365 7.76587 6.125 11.6661 6.125 18.4316V21.5027H15.3125C16.8578 21.5022 18.3461 22.0874 19.4792 23.1411C20.6122 24.1947 21.3063 25.6389 21.4222 27.1841L21.4375 27.6448V36.8579C21.4375 38.4869 20.7922 40.0492 19.6435 41.201C18.4949 42.3529 16.937 43 15.3125 43H6.125Z" fill="black"/>
</svg>
