<svg width="74" height="74" viewBox="0 0 74 74" fill="none" xmlns="http://www.w3.org/2000/svg">
<path d="M71.8099 12.6377C74.6992 9.7484 74.6992 5.05622 71.8099 2.16695C68.9207 -0.722318 64.2285 -0.722318 61.3392 2.16695L37 26.5293L12.6377 2.19007C9.7484 -0.699204 5.05622 -0.699204 2.16695 2.19007C-0.722318 5.07934 -0.722318 9.77151 2.16695 12.6608L26.5293 37L2.19007 61.3623C-0.699203 64.2516 -0.699203 68.9438 2.19007 71.833C5.07934 74.7223 9.77151 74.7223 12.6608 71.833L37 47.4707L61.3623 71.8099C64.2516 74.6992 68.9438 74.6992 71.833 71.8099C74.7223 68.9207 74.7223 64.2285 71.833 61.3392L47.4707 37L71.8099 12.6377Z" fill="white"/>
</svg>
