<svg width="82" height="63" viewBox="0 0 82 63" fill="none" xmlns="http://www.w3.org/2000/svg">
<path d="M0 5.25C0 2.34609 2.61741 0 5.85714 0H76.1429C79.3826 0 82 2.34609 82 5.25C82 8.15391 79.3826 10.5 76.1429 10.5H5.85714C2.61741 10.5 0 8.15391 0 5.25ZM0 31.5C0 28.5961 2.61741 26.25 5.85714 26.25H76.1429C79.3826 26.25 82 28.5961 82 31.5C82 34.4039 79.3826 36.75 76.1429 36.75H5.85714C2.61741 36.75 0 34.4039 0 31.5ZM82 57.75C82 60.6539 79.3826 63 76.1429 63H5.85714C2.61741 63 0 60.6539 0 57.75C0 54.8461 2.61741 52.5 5.85714 52.5H76.1429C79.3826 52.5 82 54.8461 82 57.75Z" fill="black"/>
</svg>
