<svg width="26" height="18" viewBox="0 0 26 18" fill="none" xmlns="http://www.w3.org/2000/svg">
<path d="M9.69435 0.443269C9.56016 0.302812 9.4005 0.191329 9.2246 0.115249C9.04869 0.0391699 8.86002 0 8.66946 0C8.4789 0 8.29022 0.0391699 8.11432 0.115249C7.93841 0.191329 7.77875 0.302812 7.64456 0.443269L0.426989 7.93603C0.291691 8.07534 0.184302 8.24108 0.111016 8.42369C0.0377309 8.6063 0 8.80217 0 9C0 9.19783 0.0377309 9.3937 0.111016 9.57631C0.184302 9.75892 0.291691 9.92466 0.426989 10.064L7.64456 17.5567C7.77875 17.6972 7.93841 17.8087 8.11432 17.8848C8.29022 17.9608 8.4789 18 8.66946 18C8.86002 18 9.04869 17.9608 9.2246 17.8848C9.4005 17.8087 9.56016 17.6972 9.69435 17.5567C9.82965 17.4174 9.93704 17.2517 10.0103 17.0691C10.0836 16.8865 10.1213 16.6906 10.1213 16.4928C10.1213 16.2949 10.0836 16.0991 10.0103 15.9165C9.93704 15.7338 9.82965 15.5681 9.69435 15.4288L3.48724 9L9.69435 2.57121C9.82965 2.4319 9.93704 2.26616 10.0103 2.08355C10.0836 1.90094 10.1213 1.70507 10.1213 1.50724C10.1213 1.30941 10.0836 1.11355 10.0103 0.930933C9.93704 0.74832 9.82965 0.582579 9.69435 0.443269ZM25.573 7.93603L18.3554 0.443269C18.2208 0.303546 18.0611 0.192713 17.8852 0.117095C17.7094 0.0414777 17.5209 0.00255743 17.3305 0.00255743C16.9461 0.00255743 16.5775 0.161086 16.3056 0.443269C16.1711 0.582992 16.0643 0.748867 15.9915 0.931424C15.9186 1.11398 15.8811 1.30964 15.8811 1.50724C15.8811 1.90631 16.0338 2.28903 16.3056 2.57121L22.5128 9L16.3056 15.4288C16.1703 15.5681 16.063 15.7338 15.9897 15.9165C15.9164 16.0991 15.8787 16.2949 15.8787 16.4928C15.8787 16.6906 15.9164 16.8865 15.9897 17.0691C16.063 17.2517 16.1703 17.4174 16.3056 17.5567C16.4398 17.6972 16.5995 17.8087 16.7754 17.8848C16.9513 17.9608 17.14 18 17.3305 18C17.5211 18 17.7098 17.9608 17.8857 17.8848C18.0616 17.8087 18.2212 17.6972 18.3554 17.5567L25.573 10.064C25.7083 9.92466 25.8157 9.75892 25.889 9.57631C25.9623 9.3937 26 9.19783 26 9C26 8.80217 25.9623 8.6063 25.889 8.42369C25.8157 8.24108 25.7083 8.07534 25.573 7.93603Z" fill="black"/>
</svg>
