<svg width="118" height="118" viewBox="0 0 118 118" fill="none" xmlns="http://www.w3.org/2000/svg">
<path d="M59 11.0625C71.7138 11.0625 83.9069 16.113 92.8969 25.1031C101.887 34.0931 106.938 46.2862 106.938 59C106.938 71.7138 101.887 83.9069 92.8969 92.8969C83.9069 101.887 71.7138 106.938 59 106.938C46.2862 106.938 34.0931 101.887 25.1031 92.8969C16.113 83.9069 11.0625 71.7138 11.0625 59C11.0625 46.2862 16.113 34.0931 25.1031 25.1031C34.0931 16.113 46.2862 11.0625 59 11.0625ZM59 118C74.6478 118 89.6547 111.784 100.719 100.719C111.784 89.6547 118 74.6478 118 59C118 43.3522 111.784 28.3453 100.719 17.2807C89.6547 6.21605 74.6478 0 59 0C43.3522 0 28.3453 6.21605 17.2807 17.2807C6.21605 28.3453 0 43.3522 0 59C0 74.6478 6.21605 89.6547 17.2807 100.719C28.3453 111.784 43.3522 118 59 118ZM85.043 48.168C87.2094 46.0016 87.2094 42.4984 85.043 40.3551C82.8766 38.2117 79.3734 38.1887 77.2301 40.3551L51.648 65.9371L40.816 55.1051C38.6496 52.9387 35.1465 52.9387 33.0031 55.1051C30.8598 57.2715 30.8367 60.7746 33.0031 62.918L47.7531 77.668C49.9195 79.8344 53.4227 79.8344 55.566 77.668L85.043 48.168Z" fill="#14D437"/>
</svg>
