<svg width="58" height="58" viewBox="0 0 58 58" fill="none" xmlns="http://www.w3.org/2000/svg">
<path d="M57.9054 28.6172C57.8126 28.4432 57.6734 28.304 57.511 28.2228L48.1085 23.5215C48.078 23.5039 48.0464 23.4881 48.0139 23.4743L44.9966 21.9655L57.511 15.7058C57.9402 15.4969 58.1142 14.9749 57.9054 14.5457C57.8126 14.3717 57.6734 14.2441 57.511 14.1629L29.3796 0.0914061C29.136 -0.0362 28.846 -0.0245995 28.614 0.0914061L0.482624 14.1629C0.0534036 14.3717 -0.120605 14.8937 0.0882053 15.3229C0.18101 15.4969 0.320216 15.6246 0.482624 15.7058L12.9971 21.9655L0.482624 28.2228C0.0534036 28.4432 -0.120605 28.9652 0.0882053 29.3828C0.18101 29.5568 0.320216 29.696 0.482624 29.7772L4.88852 31.9793C4.93619 32.0093 4.98643 32.0344 5.03886 32.0544L12.9919 36.0292L0.482624 42.2942C0.0534036 42.5031 -0.120605 43.0251 0.0882053 43.4543C0.18101 43.6283 0.320216 43.7559 0.482624 43.8371L28.614 57.9086C28.8576 58.0362 29.1476 58.0246 29.3796 57.9086L57.511 43.8371C57.9402 43.6283 58.1142 43.1063 57.9054 42.6771C57.8126 42.503 57.6734 42.3754 57.511 42.2942L45.0017 36.0292L57.511 29.7772C57.9402 29.5568 58.1142 29.0348 57.9054 28.6172ZM21.4793 38.3383L47.6645 25.2403L50.3399 26.5768L24.1536 39.6754L21.4793 38.3383ZM45.7376 24.2778L19.5423 37.3698L16.8684 36.0328L29.3796 29.7772L43.054 22.9372L45.7376 24.2778ZM7.28705 31.2422L19.4223 25.1795L22.0901 26.5139L9.96028 32.5788L7.28705 31.2422ZM24.0327 27.4857L27.0593 28.9995L14.9253 35.0613L11.9033 33.5502L24.0327 27.4857ZM28.9968 1.83149L55.1909 14.9285L28.9968 28.0372L24.4606 25.767C24.4343 25.7521 24.4072 25.7386 24.3794 25.7264L19.8478 23.4585C19.8213 23.4435 19.794 23.4299 19.766 23.4177L2.80274 14.9285L28.9968 1.83149ZM14.9396 22.9372L17.4803 24.2082L5.35486 30.2759L2.80274 29L14.9396 22.9372ZM55.1909 43.0715L28.9968 56.1685L2.80274 43.0715L14.9343 37.0001L23.7037 41.383C23.7463 41.409 23.7907 41.4312 23.8369 41.4496L28.614 43.8371C28.8576 43.9647 29.1476 43.9531 29.3796 43.8371L43.0593 37.0001L55.1909 43.0715ZM28.9968 42.097L26.0963 40.6468L52.2838 27.5476L55.1909 29L28.9968 42.097Z" fill="white"/>
</svg>
