<svg width="58" height="58" viewBox="0 0 58 58" fill="none" xmlns="http://www.w3.org/2000/svg">
<g clip-path="url(#clip0_137_1897)">
<path d="M57.5945 15.3043C57.7636 15.179 57.889 15.0036 57.9528 14.8031C58.0166 14.6025 58.0156 14.387 57.95 14.187C57.884 13.9871 57.7566 13.8131 57.586 13.6898C57.4154 13.5664 57.2103 13.5 56.9997 13.5H49.9997C49.786 13.5 49.5777 13.5687 49.405 13.6957L3.40499 47.6957C3.23585 47.821 3.11047 47.9964 3.04666 48.1969C2.98284 48.3975 2.98383 48.613 3.04949 48.813C3.11549 49.0129 3.24285 49.1869 3.41346 49.3102C3.58406 49.4336 3.78922 49.5 3.99974 49.5H10.9997C11.2135 49.5 11.4217 49.4312 11.5945 49.3042L16.9997 45.309V55.5C16.9997 56.0522 17.447 56.5 17.9997 56.5C18.5525 56.5 18.9997 56.0522 18.9997 55.5V43.8307L57.5945 15.3043ZM10.6707 47.5H7.03499L50.329 15.5H53.9647L10.6707 47.5ZM56.9997 35.5H43.9997C43.447 35.5 42.9997 35.9477 42.9997 36.5V55.5C42.9997 56.0522 43.447 56.5 43.9997 56.5C44.5525 56.5 44.9997 56.0522 44.9997 55.5V37.5H56.9997C57.5525 37.5 57.9997 37.0522 57.9997 36.5C57.9997 35.9477 57.5525 35.5 56.9997 35.5Z" fill="#393939"/>
<path d="M56.9998 38.5H46.9998C46.447 38.5 45.9998 38.9478 45.9998 39.5V55.5C45.9998 56.0522 46.447 56.5 46.9998 56.5C47.5525 56.5 47.9998 56.0522 47.9998 55.5V40.5H56.9998C57.5525 40.5 57.9998 40.0522 57.9998 39.5C57.9998 38.9478 57.5525 38.5 56.9998 38.5ZM21.9998 29.5C22.5525 29.5 22.9998 29.0522 22.9998 28.5V27.7425L25.242 25.5H25.9998C26.5525 25.5 26.9998 25.0522 26.9998 24.5C26.9998 23.9478 26.5525 23.5 25.9998 23.5H25.242L22.9998 21.2575V20.5C22.9998 19.9478 22.5525 19.5 21.9998 19.5C21.447 19.5 20.9998 19.9478 20.9998 20.5V21.2575L18.7575 23.5H17.9998C17.447 23.5 16.9998 23.9478 16.9998 24.5C16.9998 25.0522 17.447 25.5 17.9998 25.5H18.7575L20.9998 27.7425V28.5C20.9998 28.7652 21.1051 29.0196 21.2926 29.2071C21.4802 29.3946 21.7345 29.5 21.9998 29.5ZM21.9998 23.086L23.4138 24.5L21.9998 25.914L20.5858 24.5L21.9998 23.086ZM16.9998 7.5H17.7575L19.9998 9.7425V10.5C19.9998 11.0522 20.447 11.5 20.9998 11.5C21.5525 11.5 21.9998 11.0522 21.9998 10.5V9.7425L24.242 7.5H24.9998C25.5525 7.5 25.9998 7.05225 25.9998 6.5C25.9998 5.94775 25.5525 5.5 24.9998 5.5H24.242L21.9998 3.2575V2.5C21.9998 1.94775 21.5525 1.5 20.9998 1.5C20.447 1.5 19.9998 1.94775 19.9998 2.5V3.2575L17.7575 5.5H16.9998C16.7345 5.5 16.4802 5.60536 16.2926 5.79289C16.1051 5.98043 15.9998 6.23478 15.9998 6.5C15.9998 6.76522 16.1051 7.01957 16.2926 7.20711C16.4802 7.39464 16.7345 7.5 16.9998 7.5ZM20.9998 5.086L22.414 6.5L21 7.914L19.5858 6.5L20.9998 5.086ZM32.9998 7.5H33.7575L35.9998 9.7425V10.5C35.9998 11.0522 36.447 11.5 36.9998 11.5C37.5525 11.5 37.9998 11.0522 37.9998 10.5V9.7425L40.242 7.5H40.9998C41.5525 7.5 41.9998 7.05225 41.9998 6.5C41.9998 5.94775 41.5525 5.5 40.9998 5.5H40.242L37.9998 3.2575V2.5C37.9998 1.94775 37.5525 1.5 36.9998 1.5C36.447 1.5 35.9998 1.94775 35.9998 2.5V3.2575L33.7575 5.5H32.9998C32.7345 5.5 32.4802 5.60536 32.2926 5.79289C32.1051 5.98043 31.9998 6.23478 31.9998 6.5C31.9998 6.76522 32.1051 7.01957 32.2926 7.20711C32.4802 7.39464 32.7345 7.5 32.9998 7.5ZM36.9998 5.086L38.414 6.5L37 7.914L35.5858 6.5L36.9998 5.086ZM4.02426 32.379C4.01901 32.4205 3.99976 32.457 3.99976 32.5V33.5C3.99976 34.0522 4.44701 34.5 4.99976 34.5C5.55251 34.5 5.99976 34.0522 5.99976 33.5V32.5C5.99976 32.457 5.98051 32.4205 5.97526 32.3787L8.24201 30.1118H8.99976C9.55251 30.1118 9.99976 29.664 9.99976 29.1118C9.99976 28.5595 9.55251 28.1118 8.99976 28.1118H8.24201L5.99976 25.8693V25.1118C5.99976 24.5595 5.55251 24.1118 4.99976 24.1118C4.44701 24.1118 3.99976 24.5595 3.99976 25.1118V25.8693L1.75751 28.1118H0.999756C0.447006 28.1118 -0.000244141 28.5595 -0.000244141 29.1118C-0.000244141 29.664 0.447006 30.1118 0.999756 30.1118H1.75751L4.02426 32.379ZM4.99976 27.6978L6.41376 29.1118L4.99976 30.5257L3.58576 29.1118L4.99976 27.6978ZM6.99976 16.5H7.75751L9.99976 18.7425V19.5C9.99976 20.0522 10.447 20.5 10.9998 20.5C11.5525 20.5 11.9998 20.0522 11.9998 19.5V18.7425L14.242 16.5H14.9998C15.5525 16.5 15.9998 16.0522 15.9998 15.5C15.9998 14.9478 15.5525 14.5 14.9998 14.5H14.242L11.9998 12.2575V11.5C11.9998 10.9478 11.5525 10.5 10.9998 10.5C10.447 10.5 9.99976 10.9478 9.99976 11.5V12.2575L7.75751 14.5H6.99976C6.73454 14.5 6.48019 14.6054 6.29265 14.7929C6.10511 14.9804 5.99976 15.2348 5.99976 15.5C5.99976 15.7652 6.10511 16.0196 6.29265 16.2071C6.48019 16.3946 6.73454 16.5 6.99976 16.5ZM10.9998 14.086L12.414 15.5L11 16.914L9.58576 15.5L10.9998 14.086ZM26.7578 16.2598H26C25.4473 16.2598 25 16.7075 25 17.2598C25 17.812 25.4473 18.2598 26 18.2598H26.7578L29 20.5023V21.2598C29 21.812 29.4473 22.2598 30 22.2598C30.5528 22.2598 31 21.812 31 21.2598V20.5023L33.2423 18.2598H34C34.5528 18.2598 35 17.812 35 17.2598C35 16.7075 34.5528 16.2598 34 16.2598H33.2423L31 14.0175V13.2598C31 12.7075 30.5528 12.2598 30 12.2598C29.4473 12.2598 29 12.7075 29 13.2598V14.0175L26.7578 16.2598ZM29.9998 18.6737L28.5858 17.2598L29.9998 15.8458L31.4138 17.2598L29.9998 18.6737Z" fill="#393939"/>
</g>
<defs>
<clipPath id="clip0_137_1897">
<rect width="58" height="58" fill="white"/>
</clipPath>
</defs>
</svg>
