<svg width="56" height="56" viewBox="0 0 56 56" fill="none" xmlns="http://www.w3.org/2000/svg">
<mask id="mask0_137_2038" style="mask-type:luminance" maskUnits="userSpaceOnUse" x="-1" y="0" width="57" height="57">
<path d="M55 55.001V0.999516H0.998535V55.001H55Z" fill="white" stroke="white" stroke-width="2"/>
</mask>
<g mask="url(#mask0_137_2038)">
<path d="M30.3958 20.5078L31.2507 19.6547L33.488 17.4224C34.6426 16.2704 34.6426 14.3836 33.488 13.2317C32.3335 12.0796 30.4426 12.0796 29.288 13.2317L26.1958 16.3171" stroke="black" stroke-width="2" stroke-miterlimit="10" stroke-linecap="round" stroke-linejoin="round"/>
<path d="M44.7808 26.5883C43.7699 25.5796 42.1129 25.5796 41.1019 26.5883L37.1733 30.5113C36.1623 31.5201 36.1623 33.1703 37.1733 34.179C38.1843 35.1877 39.8382 35.1877 40.8492 34.179L44.7808 30.256C45.7919 29.2473 45.7919 27.5971 44.7808 26.5883Z" stroke="black" stroke-width="2" stroke-miterlimit="10" stroke-linecap="round" stroke-linejoin="round"/>
<path d="M37.2949 22.0049L37.7223 21.5784C38.8425 20.4233 38.8301 18.5645 37.688 17.4218C36.5335 16.2699 34.6425 16.2699 33.4879 17.4218L31.9402 18.9661" stroke="black" stroke-width="2" stroke-miterlimit="10" stroke-linecap="round" stroke-linejoin="round"/>
<path d="M36.8362 46.5511C36.7769 45.1406 37.0453 43.7147 37.6476 42.4102L24.0738 28.8635M39.6852 34.8476L42.4561 37.6123C45.77 36.0929 49.842 36.6908 52.563 39.4056C54.7349 41.5726 55.5556 44.5989 55.022 47.4135C54.4633 50.3681 52.9033 48.1327 52.5849 47.8151L48.7748 44.0136C47.4425 42.6841 45.2988 42.6281 43.8978 43.8485C42.6745 45.2465 42.7307 47.3855 44.063 48.715L47.8731 52.5165C48.1914 52.834 50.4319 54.3908 47.4706 54.9481C44.6497 55.4806 41.6167 54.6616 39.445 52.4946C38.7855 51.835 38.2327 51.0767 37.8067 50.2468M21.7523 16.9576L18.3509 13.5607C19.8737 10.2542 19.2745 6.19118 16.5535 3.47631C14.3818 1.30931 11.3489 0.490403 8.52793 1.02285C5.56664 1.58013 7.80713 3.13691 8.12542 3.45443L11.9355 7.25597C13.2678 8.58546 13.324 10.7244 12.1009 12.1223C10.6997 13.3428 8.55604 13.2867 7.22371 11.9574L3.41364 8.15582C3.09535 7.83819 1.53519 5.60272 0.976487 8.55746C0.443052 11.3721 1.2636 14.3983 3.43552 16.5653C6.15651 19.2802 10.2285 19.8781 13.5425 18.3587L17.1434 21.9515" stroke="black" stroke-width="2" stroke-miterlimit="10" stroke-linecap="round" stroke-linejoin="round"/>
<path d="M15.7735 43.0833L20.479 47.7783C21.2062 48.5038 21.2062 49.69 20.479 50.4155L16.2947 54.5907C15.5675 55.3161 14.3787 55.3161 13.6517 54.5907L2.09679 43.0615C1.36976 42.336 1.36976 41.1498 2.09679 40.4243L6.28126 36.2493C7.00829 35.5238 8.19712 35.5238 8.92426 36.2493L13.0619 40.3777" stroke="black" stroke-width="2" stroke-miterlimit="10" stroke-linecap="round" stroke-linejoin="round"/>
<path d="M20.479 47.7783L26.052 42.2177C28.1396 40.1348 28.5452 40.5831 31.0103 40.935C32.1149 41.0937 33.6908 40.5052 34.9577 39.7269" stroke="black" stroke-width="2" stroke-miterlimit="10" stroke-linecap="round" stroke-linejoin="round"/>
<path d="M41.1018 22.3973C39.9472 21.2453 38.0563 21.2453 36.9018 22.3973L33.8219 25.4703C32.6642 26.6254 32.6642 28.509 33.8219 29.661C34.9764 30.8161 36.8674 30.8161 38.022 29.661L41.1018 26.588C42.2595 25.4361 42.2595 23.5493 41.1018 22.3973Z" stroke="black" stroke-width="2" stroke-miterlimit="10" stroke-linecap="round" stroke-linejoin="round"/>
<path d="M34.2026 25.0935C34.287 24.2747 32.9326 23.0386 31.5409 21.6499L25.4219 15.5445C24.804 14.928 23.7867 14.928 23.1659 15.5476L18.1138 20.5883C16.9656 21.734 16.4506 23.4185 16.5412 24.9316C16.6816 27.248 15.6018 29.5893 12.4003 32.7807L8.92432 36.249M24.0583 22.5653C24.1112 22.6213 26.1801 24.6825 26.2331 24.7355C27.8713 26.3171 31.1758 27.6807 33.307 26.1614" stroke="black" stroke-width="2" stroke-miterlimit="10" stroke-linecap="round" stroke-linejoin="round"/>
<path d="M24.0581 22.565C25.8834 24.3863 25.378 27.8423 22.9316 30.2832" stroke="black" stroke-width="2" stroke-miterlimit="10" stroke-linecap="round" stroke-linejoin="round"/>
</g>
</svg>
