<svg width="58" height="58" viewBox="0 0 58 58" fill="none" xmlns="http://www.w3.org/2000/svg">
<path d="M50.2336 51.6582C50.1145 51.6584 49.9965 51.6352 49.8864 51.5898C49.7763 51.5444 49.6763 51.4777 49.5919 51.3936L46.7445 48.5444C46.5794 48.3734 46.4881 48.1445 46.4902 47.9069C46.4922 47.6693 46.5875 47.442 46.7556 47.274C46.9236 47.1059 47.1509 47.0106 47.3885 47.0086C47.6261 47.0065 47.855 47.0978 48.0259 47.2629L49.7424 48.9794L51.8358 40.6038L43.4584 42.6972L45.1749 44.4155C45.34 44.5864 45.4313 44.8153 45.4292 45.0529C45.4272 45.2906 45.3319 45.5179 45.1638 45.6859C44.9958 45.8539 44.7685 45.9492 44.5309 45.9513C44.2933 45.9533 44.0644 45.862 43.8934 45.6969L41.046 42.8477C40.9329 42.7342 40.8519 42.5927 40.8113 42.4377C40.7707 42.2826 40.7719 42.1196 40.8149 41.9652C40.8578 41.8109 40.9409 41.6706 41.0557 41.5588C41.1705 41.447 41.3129 41.3676 41.4683 41.3288L52.8617 38.4814C53.0136 38.4425 53.1729 38.4438 53.3241 38.4852C53.4753 38.5266 53.6131 38.6067 53.7239 38.7175C53.8348 38.8283 53.9148 38.9661 53.9562 39.1173C53.9977 39.2685 53.999 39.4279 53.9601 39.5797L51.1126 50.9713C51.064 51.1676 50.951 51.3419 50.7916 51.4664C50.6323 51.591 50.4358 51.6585 50.2336 51.6582Z" fill="#393939"/>
<path d="M29 52.5627C28.7596 52.5627 28.5291 52.4672 28.3592 52.2972C28.1892 52.1273 28.0938 51.8968 28.0938 51.6564C28.0938 51.4161 28.1892 51.1855 28.3592 51.0156C28.5291 50.8456 28.7596 50.7502 29 50.7502C34.6314 50.7617 40.0455 48.5778 44.0927 44.662C44.1784 44.5794 44.2795 44.5145 44.3903 44.471C44.501 44.4274 44.6193 44.4062 44.7383 44.4084C44.8573 44.4105 44.9747 44.4361 45.0838 44.4837C45.1929 44.5313 45.2915 44.5998 45.3741 44.6855C45.4567 44.7712 45.5216 44.8723 45.5651 44.9831C45.6087 45.0939 45.6299 45.2121 45.6277 45.3311C45.6256 45.4501 45.5999 45.5675 45.5524 45.6766C45.5048 45.7857 45.4363 45.8844 45.3506 45.967C40.9661 50.2092 35.1008 52.5752 29 52.5627Z" fill="#393939"/>
<path d="M29 56.1873C14.0088 56.1873 1.8125 43.991 1.8125 28.9998C1.8125 28.3708 1.83425 27.7455 1.87594 27.1238C1.89932 26.8867 2.0123 26.6675 2.19184 26.5109C2.37137 26.3542 2.60392 26.272 2.842 26.281C2.96079 26.2891 3.07682 26.3205 3.18347 26.3734C3.29012 26.4263 3.3853 26.4997 3.46357 26.5894C3.54184 26.6791 3.60167 26.7834 3.63963 26.8962C3.67759 27.0091 3.69294 27.1283 3.68481 27.2471C3.64494 27.8271 3.625 28.4107 3.625 28.9998C3.625 42.9923 15.0075 54.3748 29 54.3748C35.5177 54.386 41.7877 51.878 46.4997 47.3749C46.5859 47.2928 46.6873 47.2284 46.7984 47.1856C46.9094 47.1427 47.0278 47.1221 47.1468 47.1249C47.2658 47.1278 47.383 47.154 47.4919 47.2022C47.6007 47.2504 47.699 47.3196 47.7811 47.4057C47.8632 47.4919 47.9276 47.5934 47.9705 47.7044C48.0134 47.8154 48.034 47.9338 48.0311 48.0528C48.0283 48.1718 48.002 48.2891 47.9538 48.3979C47.9056 48.5068 47.8365 48.605 47.7503 48.6872C42.7016 53.5121 35.9835 56.1993 29 56.1873ZM4.91913 19.5476C4.78135 19.5479 4.64533 19.5167 4.52143 19.4565C4.39754 19.3962 4.28905 19.3084 4.20425 19.1999C4.11944 19.0913 4.06057 18.9648 4.03211 18.8299C4.00366 18.6951 4.00638 18.5556 4.04006 18.422L6.8875 7.02865C6.92566 6.87247 7.00475 6.72929 7.11664 6.61385C7.22853 6.4984 7.36917 6.41487 7.52408 6.37185C7.67899 6.32883 7.84257 6.32788 7.99796 6.36909C8.15336 6.41031 8.29496 6.4922 8.40819 6.60634L11.2556 9.4574C11.4207 9.62832 11.5121 9.85724 11.51 10.0949C11.5079 10.3325 11.4126 10.5598 11.2446 10.7278C11.0766 10.8958 10.8493 10.9911 10.6116 10.9932C10.374 10.9953 10.1451 10.9039 9.97419 10.7388L8.25775 9.0224L6.16431 17.3962L14.5417 15.3027L12.8234 13.5845C12.6584 13.4135 12.567 13.1846 12.5691 12.947C12.5711 12.7094 12.6665 12.4821 12.8345 12.3141C13.0025 12.146 13.2298 12.0507 13.4674 12.0487C13.705 12.0466 13.934 12.1379 14.1049 12.303L16.9541 15.1523C17.0677 15.2657 17.1491 15.4074 17.19 15.5626C17.2309 15.7179 17.2298 15.8812 17.1868 16.0359C17.1438 16.1906 17.0606 16.3311 16.9455 16.443C16.8304 16.5549 16.6876 16.6343 16.5318 16.673L5.13844 19.5204C5.06671 19.5384 4.99306 19.5475 4.91913 19.5476Z" fill="#393939"/>
<path d="M13.2783 13.592C13.0977 13.592 12.9211 13.538 12.7714 13.4369C12.6216 13.3359 12.5055 13.1924 12.4379 13.0248C12.3703 12.8573 12.3543 12.6734 12.392 12.4967C12.4297 12.32 12.5193 12.1586 12.6494 12.0332C17.0338 7.79105 22.8992 5.425 29 5.43755C29.2403 5.43755 29.4708 5.53303 29.6408 5.70298C29.8107 5.87294 29.9062 6.10345 29.9062 6.3438C29.9062 6.58415 29.8107 6.81466 29.6408 6.98462C29.4708 7.15457 29.2403 7.25005 29 7.25005C23.3686 7.23847 17.9544 9.42245 13.9073 13.3382C13.7388 13.5017 13.5131 13.5928 13.2783 13.592Z" fill="#393939"/>
<path d="M55.2197 31.7152L55.1563 31.7134C54.9166 31.6966 54.6933 31.5855 54.5353 31.4045C54.3773 31.2234 54.2976 30.9871 54.3135 30.7473C54.3552 30.1691 54.3751 29.5873 54.3751 29C54.3751 15.0075 42.9926 3.62504 29.0001 3.62504C22.4824 3.61386 16.2125 6.12183 11.5004 10.6249C11.4143 10.707 11.3128 10.7714 11.2018 10.8143C11.0907 10.8572 10.9723 10.8778 10.8533 10.8749C10.7343 10.872 10.6171 10.8458 10.5082 10.7976C10.3994 10.7494 10.3011 10.6803 10.219 10.5941C10.1369 10.5079 10.0725 10.4064 10.0296 10.2954C9.98676 10.1844 9.96615 10.066 9.96901 9.947C9.97479 9.70669 10.0758 9.47851 10.2498 9.31266C15.2986 4.48773 22.0166 1.80052 29.0001 1.81254C43.9913 1.81254 56.1876 14.0089 56.1876 29C56.1876 29.6272 56.1659 30.2525 56.1242 30.8705C56.1086 31.0997 56.0065 31.3145 55.8386 31.4713C55.6707 31.6281 55.4495 31.7152 55.2197 31.7152Z" fill="#393939"/>
<path d="M25.375 52.5625C25.8755 52.5625 26.2812 52.1568 26.2812 51.6562C26.2812 51.1557 25.8755 50.75 25.375 50.75C24.8745 50.75 24.4688 51.1557 24.4688 51.6562C24.4688 52.1568 24.8745 52.5625 25.375 52.5625Z" fill="#393939"/>
<path d="M32.625 7.25C33.1255 7.25 33.5312 6.84426 33.5312 6.34375C33.5312 5.84324 33.1255 5.4375 32.625 5.4375C32.1245 5.4375 31.7188 5.84324 31.7188 6.34375C31.7188 6.84426 32.1245 7.25 32.625 7.25Z" fill="#393939"/>
<path d="M25.0272 47.1246C24.8928 47.1238 24.7602 47.0932 24.639 47.0351C24.5178 46.977 24.411 46.8927 24.3263 46.7884C24.2415 46.6841 24.181 46.5623 24.1489 46.4317C24.1169 46.3012 24.1141 46.1652 24.1409 46.0335L26.5606 34.4371H18.1252C17.9603 34.4371 17.7985 34.3922 17.6573 34.307C17.516 34.2219 17.4007 34.0999 17.3236 33.9541C17.2466 33.8082 17.2109 33.6442 17.2202 33.4795C17.2295 33.3149 17.2836 33.1559 17.3766 33.0197L32.2246 11.2697C32.3419 11.0949 32.5165 10.9665 32.7182 10.9066C32.92 10.8466 33.1363 10.859 33.33 10.9414C33.5237 11.0239 33.6825 11.1713 33.7792 11.3582C33.8758 11.5452 33.9042 11.76 33.8595 11.9657L31.2115 24.6532C31.1539 24.8795 31.0111 25.0748 30.813 25.1985C30.6149 25.3221 30.3768 25.3645 30.1482 25.3168C29.9196 25.2691 29.7182 25.1351 29.586 24.9425C29.4539 24.75 29.4012 24.5139 29.4388 24.2835L31.1571 16.0493L19.8416 32.6246H27.6753C27.8099 32.6247 27.9428 32.6548 28.0643 32.7128C28.1858 32.7707 28.2929 32.8549 28.3778 32.9594C28.4627 33.0639 28.5232 33.186 28.555 33.3168C28.5868 33.4477 28.589 33.5839 28.5616 33.7157L26.8433 41.9499L39.1266 23.9572C39.1938 23.8589 39.2796 23.7748 39.3792 23.7097C39.4789 23.6445 39.5903 23.5996 39.7073 23.5776C39.8243 23.5556 39.9445 23.5568 40.061 23.5812C40.1775 23.6055 40.288 23.6526 40.3863 23.7198C40.4846 23.7869 40.5688 23.8727 40.6339 23.9723C40.699 24.072 40.7439 24.1835 40.7659 24.3004C40.788 24.4174 40.7868 24.5376 40.7624 24.6541C40.738 24.7706 40.6909 24.8812 40.6238 24.9795L25.7758 46.7295C25.6926 46.8513 25.5809 46.9509 25.4505 47.0198C25.32 47.0886 25.1747 47.1246 25.0272 47.1246Z" fill="#393939"/>
</svg>
