<svg width="69" height="51" viewBox="0 0 69 51" fill="none" xmlns="http://www.w3.org/2000/svg">
<path fill-rule="evenodd" clip-rule="evenodd" d="M53.478 50.7032C48.587 50.7032 45.5958 45.408 47.9402 41.2445H38.7241C38.2794 41.2445 37.9156 40.8807 37.9156 40.4361V27.9053C37.9156 27.0565 39.0879 26.814 39.4517 27.5415C41.6344 32.0688 48.4657 30.5328 48.4657 25.48C48.4657 20.4677 41.6344 18.8913 39.4517 23.4185C39.0879 24.1865 37.9156 23.944 37.9156 23.0951V10.5644C37.9156 10.1198 38.2794 9.75596 38.7241 9.75596H47.9402C45.5958 5.55209 48.587 0.256836 53.478 0.256836C58.4095 0.256836 61.4007 5.55209 59.0562 9.75596H68.1916C68.6362 9.75596 69 10.1198 69 10.5644V23.0951C69 23.944 67.8278 24.1865 67.464 23.4185C65.2408 18.8913 58.4095 20.4677 58.4095 25.48C58.4095 30.5328 65.2812 32.0688 67.464 27.5415C67.8278 26.7735 69 27.0565 69 27.9053V40.4361C69 40.8807 68.6362 41.2445 68.1916 41.2445H59.0562C61.4007 45.408 58.4095 50.7032 53.478 50.7032ZM39.5325 39.6277H49.5571C50.2847 39.6277 50.6485 40.4765 50.123 41.002C47.1722 43.9528 49.2742 49.0864 53.478 49.0864C57.7223 49.0864 59.8243 43.9932 56.8735 41.002C56.348 40.4765 56.7118 39.6277 57.4394 39.6277H67.3831V30.2902C63.2601 33.8878 56.7926 30.937 56.7926 25.48C56.7926 20.0635 63.2601 17.1127 67.3831 20.7103V11.3728H57.4394C56.7118 11.3728 56.348 10.4836 56.8735 9.99849C59.8243 7.00728 57.7223 1.87371 53.478 1.87371C49.2742 1.87371 47.1722 7.00728 50.123 9.99849C50.6485 10.4836 50.2847 11.3728 49.5571 11.3728H39.5325V20.7103C43.6555 17.1127 50.123 20.0635 50.123 25.48C50.123 30.937 43.6555 33.8878 39.5325 30.2902V39.6277ZM25.8295 38.4554H15.6432C14.7944 38.4554 14.5114 37.3236 15.2794 36.9194C19.1195 34.8983 17.6643 29.0372 13.2988 29.0372C10.9947 29.0372 9.0949 30.8966 9.0949 33.2006C9.0949 34.7366 9.94376 36.1514 11.2777 36.879C12.0861 37.2832 11.9244 38.3746 10.9947 38.4554H0.808436C0.363796 38.4554 0 38.0916 0 37.647V13.3535C0 12.9089 0.363796 12.5451 0.808436 12.5451H10.9947C11.8032 12.5451 12.0861 13.6769 11.3585 14.0407C7.51845 16.1022 8.93322 21.9633 13.2988 21.9633C17.6643 21.9633 19.1195 16.0618 15.2794 14.0407C14.5114 13.6769 14.7944 12.5451 15.6432 12.5451H25.8295C26.2742 12.5451 26.638 12.9089 26.638 13.3535V21.1953C30.3568 17.7999 36.3392 20.4677 36.3392 25.48C36.3392 30.5328 30.3568 33.1602 26.638 29.8052V37.647C26.638 38.0916 26.2742 38.4554 25.8295 38.4554ZM17.8664 36.8386H25.0211V27.2182C25.0211 26.3289 26.2742 26.0864 26.5571 26.9352C28.174 31.3008 34.7223 30.169 34.7223 25.48C34.7223 20.8315 28.174 19.6997 26.5571 24.0249C26.2742 24.8737 25.0211 24.6716 25.0211 23.7823V14.1619H17.8664C20.8576 17.9212 18.1898 23.5802 13.2988 23.5802C8.40773 23.5802 5.73989 17.9212 8.77153 14.1619H1.61687V36.8386H8.77153C5.73989 33.0793 8.40773 27.4203 13.2988 27.4203C18.1898 27.4203 20.8576 33.0793 17.8664 36.8386Z" fill="black"/>
</svg>
