<svg width="58" height="58" viewBox="0 0 58 58" fill="none" xmlns="http://www.w3.org/2000/svg">
<g clip-path="url(#clip0_137_1862)">
<path d="M57.278 49.3614H55.6078V0.721992C55.6078 0.323693 55.2841 0 54.8858 0H8.02734C7.62905 0 7.30535 0.323693 7.30535 0.721992V26.5621H4.859C2.18042 26.5621 0 28.7413 0 31.4211V33.4294C0 35.8469 1.7749 37.8564 4.08888 38.2271L3.17676 51.4588C2.52456 51.7283 2.06369 52.3709 2.06369 53.1193V56.2034C2.06369 57.1938 2.86992 58 3.86025 58H15.1546C15.5529 58 15.8766 57.6763 15.8766 57.278V55.5849H57.278C57.6763 55.5849 58 55.2612 58 54.8629V50.0834C58 49.6839 57.6763 49.3614 57.278 49.3614ZM8.74934 1.44398H54.1638V49.3614H50.981V5.34876C50.981 4.95046 50.6573 4.62676 50.259 4.62676H12.6541C12.2558 4.62676 11.9321 4.95046 11.9321 5.34876V26.5621H8.74934V1.44398ZM5.80722 38.2872L6.65195 41.6108L5.75909 46.1834H4.98776L5.53166 38.2872H5.80722ZM4.88909 47.6274H6.35353C6.69888 47.6274 6.9961 47.3831 7.06228 47.0438L8.10075 41.7287C8.1212 41.624 8.11759 41.5157 8.09232 41.4122L7.29813 38.2872H9.42079L10.3052 41.7131L8.21747 49.2868C8.17174 49.4516 8.18618 49.6273 8.25838 49.7813L8.97195 51.3228H4.63398L4.88909 47.6274ZM12.4712 40.9971H11.612L10.9117 38.2872H13.198L12.4712 40.9971ZM11.6024 42.4411H11.9321V49.3614H9.69515L11.6024 42.4411ZM13.3761 42.3484C13.4606 42.3016 13.5348 42.2383 13.5944 42.1622C13.6539 42.0861 13.6975 41.9989 13.7227 41.9056L14.6925 38.2872H17.2652C18.3434 38.2872 19.2772 37.6555 19.7164 36.7434H21.2939C21.9883 36.7434 22.5899 36.3402 22.8799 35.7566H24.3937C25.2685 35.7566 25.9953 35.1225 26.1445 34.291H27.4983C27.6234 34.291 27.7473 34.2585 27.8568 34.1959L29.8568 33.0516C29.9672 32.9884 30.059 32.8971 30.1228 32.787C30.1867 32.6769 30.2203 32.5519 30.2203 32.4246C30.2203 32.2974 30.1867 32.1724 30.1228 32.0623C30.059 31.9522 29.9672 31.8609 29.8568 31.7977L27.8568 30.6534C27.7473 30.5908 27.6246 30.5583 27.4983 30.5583H26.1445C25.9953 29.7268 25.2673 29.0927 24.3937 29.0927H22.8799C22.7506 28.8328 22.5598 28.6085 22.324 28.4393H30.7352V49.3626H13.3761V42.3484ZM49.5371 26.9941H32.1792V6.07075H49.5371V26.9941ZM30.7352 26.9941H18.7345C18.297 26.7115 17.7872 26.5615 17.2664 26.5621H13.3773V6.07075H30.7364V26.9941H30.7352ZM19.9847 29.5499H21.2951C21.472 29.5499 21.6224 29.7003 21.6224 29.8772V34.9721C21.6224 35.149 21.472 35.2994 21.2951 35.2994H19.9847V29.5499ZM23.0652 30.5354H24.3937C24.5766 30.5354 24.7306 30.6895 24.7306 30.8724V33.9757C24.7306 34.1586 24.5766 34.3127 24.3937 34.3127H23.0652V30.5354ZM26.1746 32.0023H27.3069L28.0458 32.4246L27.3069 32.847H26.1746V32.0023ZM32.1792 28.438H49.5371V49.3614H32.1792V28.438ZM1.44398 33.4282V31.4199C1.44398 29.5367 2.97581 28.0049 4.859 28.0049H17.2652C17.968 28.0049 18.5407 28.5764 18.5407 29.2804V35.5677C18.5407 36.2705 17.9692 36.8432 17.2652 36.8432H4.859C2.97581 36.8432 1.44398 35.3114 1.44398 33.4282ZM3.50768 56.2034V55.3046H11.0898C11.2486 55.3046 11.3822 55.4381 11.3822 55.597V56.556H3.86025C3.67012 56.556 3.50768 56.3948 3.50768 56.2034ZM14.4326 56.556H12.8262V55.597C12.8262 54.6391 12.0476 53.8606 11.0898 53.8606H3.50768V53.1193C3.50768 52.928 3.66892 52.7668 3.86025 52.7668H12.5374C13.5819 52.7668 14.4314 53.6163 14.4314 54.6608V56.556H14.4326ZM56.556 54.141H15.8357C15.5854 52.5466 14.2016 51.3228 12.5386 51.3228H10.5627L10.3233 50.8054H56.556V54.141ZM9.79743 33.5931V31.255C9.79743 30.3622 9.07062 29.6366 8.17896 29.6366H4.66286C3.77 29.6366 3.0444 30.3622 3.0444 31.255V33.5931C3.0444 34.4859 3.77 35.2115 4.66286 35.2115H8.17896C9.07183 35.2115 9.79743 34.4859 9.79743 33.5931ZM4.48838 33.5931V31.255C4.48838 31.16 4.569 31.0805 4.66286 31.0805H8.17896C8.27402 31.0805 8.35344 31.1612 8.35344 31.255V33.5931C8.35344 33.6881 8.27282 33.7676 8.17896 33.7676H4.66286C4.569 33.7676 4.48838 33.6881 4.48838 33.5931ZM12.0561 30.3706C12.0561 29.9723 12.3798 29.6486 12.7781 29.6486H16.2183C16.6166 29.6486 16.9403 29.9723 16.9403 30.3706C16.9403 30.7689 16.6166 31.0926 16.2183 31.0926H12.7781C12.3798 31.0926 12.0561 30.7689 12.0561 30.3706ZM12.0561 32.3958C12.0561 31.9975 12.3798 31.6738 12.7781 31.6738H16.2183C16.6166 31.6738 16.9403 31.9975 16.9403 32.3958C16.9403 32.7941 16.6166 33.1178 16.2183 33.1178H12.7781C12.3798 33.1178 12.0561 32.7953 12.0561 32.3958ZM12.0561 34.4222C12.0561 34.0239 12.3798 33.7002 12.7781 33.7002H16.2183C16.6166 33.7002 16.9403 34.0239 16.9403 34.4222C16.9403 34.8205 16.6166 35.1441 16.2183 35.1441H12.7781C12.3798 35.1441 12.0561 34.8205 12.0561 34.4222Z" fill="#393939"/>
</g>
<defs>
<clipPath id="clip0_137_1862">
<rect width="58" height="58" fill="white"/>
</clipPath>
</defs>
</svg>
