<svg width="58" height="58" viewBox="0 0 58 58" fill="none" xmlns="http://www.w3.org/2000/svg">
<path d="M1.2106 34.1472C1.87496 34.1472 2.41925 33.6044 2.41925 32.9393C2.41925 32.275 1.87496 31.7307 1.2106 31.7307C0.545521 31.7307 0.00195312 32.275 0.00195312 32.9393C0.00267213 33.6037 0.545521 34.1472 1.2106 34.1472ZM1.2106 29.3134C1.87496 29.3134 2.41925 28.7698 2.41925 28.1054V25.3747C2.41925 24.7103 1.87496 24.166 1.2106 24.166C0.545521 24.166 0.00195312 24.7096 0.00195312 25.3747V28.1054C0.00267213 28.7705 0.545521 29.3134 1.2106 29.3134Z" fill="white"/>
<path d="M46.8849 37.4587V33.8098C48.1001 33.7249 49.2694 33.3114 50.2678 32.6134C50.9217 32.1561 51.4902 31.5876 51.9474 30.9338C52.7424 29.8014 53.1688 28.4513 53.1683 27.0677V21.4652C55.9595 20.6311 58.0022 18.0427 58.0022 14.9841V1.20865C57.9914 0.89531 57.8593 0.598415 57.6338 0.380575C57.4083 0.162735 57.107 0.0409766 56.7935 0.0409766C56.48 0.0409766 56.1787 0.162735 55.9532 0.380575C55.7278 0.598415 55.5957 0.89531 55.5849 1.20865V14.9841C55.5836 16.0111 55.2191 17.0045 54.5557 17.7886C53.8924 18.5726 52.973 19.0966 51.9604 19.2679C51.7208 19.3102 51.4781 19.332 51.2349 19.3333C51.0717 19.3333 50.9106 19.3225 50.7517 19.3046C48.5803 19.0637 46.8849 17.218 46.8849 14.9834V9.64258C50.3908 9.39308 53.1683 6.46817 53.1683 2.90047V1.20865C53.1683 0.88819 53.041 0.580856 52.8144 0.354258C52.5878 0.12766 52.2805 0.000359305 51.96 0.000359305C51.6395 0.000359305 51.3322 0.12766 51.1056 0.354258C50.879 0.580856 50.7517 0.88819 50.7517 1.20865V2.90047C50.7517 5.13585 49.0563 6.98082 46.8849 7.22241C46.726 7.23966 46.5649 7.25117 46.4017 7.25117H46.0394C45.9164 7.25117 45.7963 7.24254 45.677 7.23247C45.2627 7.19796 44.8556 7.10376 44.4683 6.95278C42.8448 6.32078 41.6894 4.74472 41.6894 2.90119V1.21009C41.6786 0.896748 41.5465 0.599853 41.321 0.382013C41.0955 0.164173 40.7942 0.0424152 40.4807 0.0424152C40.1672 0.0424152 39.8659 0.164173 39.6404 0.382013C39.415 0.599853 39.2829 0.896748 39.2721 1.21009V2.90047C39.2721 5.00931 37.7629 6.77159 35.7684 7.16633C35.4897 7.22178 35.2062 7.24996 34.9221 7.25045H34.5597C34.1508 7.24958 33.7441 7.19076 33.3518 7.07573C31.5399 6.55014 30.2097 4.87845 30.2097 2.89975V1.20865C30.2097 0.88819 30.0824 0.580856 29.8558 0.354258C29.6292 0.12766 29.3219 0.000359305 29.0014 0.000359305C28.681 0.000359305 28.3737 0.12766 28.1471 0.354258C27.9205 0.580856 27.7932 0.88819 27.7932 1.20865V2.90047C27.7932 4.87917 26.463 6.55086 24.6511 7.07645C24.2587 7.19148 23.8521 7.2503 23.4432 7.25117H23.0801C22.7903 7.25117 22.5077 7.22097 22.2345 7.16705C20.24 6.77231 18.7301 5.01003 18.7301 2.90119V1.21009C18.7301 0.889628 18.6028 0.582295 18.3762 0.355697C18.1496 0.129099 17.8423 0.00179721 17.5218 0.00179721C17.2013 0.00179721 16.894 0.129099 16.6674 0.355697C16.4408 0.582295 16.3135 0.889628 16.3135 1.21009V2.90047C16.3135 4.74472 15.1581 6.32006 13.5346 6.95206C13.1474 7.10345 12.7402 7.19767 12.3259 7.23176C12.2054 7.24306 12.0845 7.2493 11.9635 7.25045H11.6019C11.4379 7.25045 11.2769 7.23966 11.1187 7.22169C8.94658 6.9801 7.25189 5.13514 7.25189 2.89975V1.20865C7.25189 0.88819 7.12459 0.580856 6.89799 0.354258C6.67139 0.12766 6.36406 0.000359305 6.0436 0.000359305C5.72314 0.000359305 5.41581 0.12766 5.18921 0.354258C4.96261 0.580856 4.83531 0.88819 4.83531 1.20865V2.90047C4.83531 6.46889 7.61355 9.39308 11.1187 9.64258V14.9834C11.1187 17.218 9.42329 19.0637 7.25189 19.3046C7.09299 19.3225 6.93265 19.3333 6.76872 19.3333C6.52138 19.3333 6.27979 19.3074 6.04396 19.2679C5.03127 19.0966 4.11181 18.5726 3.44834 17.7886C2.78486 17.0046 2.42014 16.0111 2.41873 14.9841V1.20865C2.41873 0.888094 2.2914 0.58067 2.06473 0.354005C1.83806 0.127339 1.53064 0 1.21009 0C0.889533 0 0.582109 0.127339 0.355443 0.354005C0.128778 0.58067 0.00143859 0.888094 0.00143859 1.20865V14.9834C0.00143859 18.0427 2.04341 20.6311 4.83459 21.4652V27.0662C4.83459 28.5035 5.28829 29.8351 6.05546 30.9323C6.51288 31.586 7.08135 32.1545 7.73506 32.6119C8.73319 33.3099 9.90226 33.7235 11.1173 33.8083V39.1491C11.1173 41.378 9.41753 43.2273 7.25117 43.4703C7.09227 43.4883 6.93121 43.4991 6.76728 43.4991C6.51994 43.4991 6.27908 43.4732 6.04252 43.4337C5.62229 43.3624 5.21496 43.2291 4.83387 43.0382C3.40593 42.3228 2.4173 40.8474 2.4173 39.1491V37.7722C2.4173 37.1079 1.87301 36.5643 1.20865 36.5643C0.543569 36.5643 0 37.1079 0 37.7722V39.1498C0 42.2114 2.04054 44.7991 4.83315 45.6324V51.2334C4.83257 52.6171 5.25892 53.9672 6.05403 55.0995C6.51144 55.7532 7.07991 56.3217 7.73362 56.7791C8.86602 57.5742 10.2161 58.0005 11.5997 58H11.9621C13.3457 58.0005 14.6958 57.5742 15.8282 56.7791C16.4819 56.3217 17.0504 55.7532 17.5078 55.0995L17.5207 55.0823L17.5337 55.0995C17.9911 55.7532 18.5596 56.3217 19.2133 56.7791C20.3457 57.5742 21.6957 58.0005 23.0794 58H23.4417C24.8253 58.0005 26.1754 57.5742 27.3078 56.7791C27.9615 56.3217 28.53 55.7532 28.9874 55.0995L29.0004 55.0823L29.0133 55.0995C29.4705 55.7534 30.039 56.3219 30.6929 56.7791C31.8253 57.5742 33.1754 58.0005 34.559 58H34.9214C36.305 58.0005 37.6551 57.5742 38.7875 56.7791C39.4412 56.3217 40.0096 55.7532 40.4671 55.0995L40.48 55.0823L40.4929 55.0995C40.9504 55.7532 41.5188 56.3217 42.1725 56.7791C43.3049 57.5742 44.655 58.0005 46.0386 58H46.4017C47.7853 58.0005 49.1354 57.5742 50.2678 56.7791C50.9217 56.3219 51.4902 55.7534 51.9474 55.0995C52.7424 53.9671 53.1688 52.6171 53.1683 51.2334V45.6324C55.9595 44.7983 58.0022 42.2099 58.0022 39.1506V25.3751C57.9914 25.0618 57.8593 24.7649 57.6338 24.5471C57.4083 24.3292 57.107 24.2075 56.7935 24.2075C56.48 24.2075 56.1787 24.3292 55.9532 24.5471C55.7278 24.7649 55.5957 25.0618 55.5849 25.3751V39.1498C55.5838 40.177 55.2193 41.1706 54.5559 41.9548C53.8926 42.7389 52.9731 43.2631 51.9604 43.4344C51.7208 43.4763 51.4781 43.4982 51.2349 43.4998C51.0717 43.4998 50.9106 43.489 50.7517 43.4711C48.5803 43.2295 46.8849 41.3845 46.8849 39.1498V38.6667V37.4587ZM44.4683 38.6667V39.1498C44.4683 40.9941 43.3129 42.5701 41.6894 43.2022C41.3021 43.3532 40.895 43.4474 40.4807 43.4818C40.3602 43.4929 40.2393 43.4989 40.1183 43.4998C39.8286 43.4998 39.546 43.4703 39.2721 43.4157C37.2775 43.021 35.7684 41.2587 35.7684 39.1498V33.7746C36.8546 33.6392 37.8913 33.2403 38.7882 32.6126C39.4419 32.1552 40.0104 31.5868 40.4678 30.933L40.4807 30.9158L40.4937 30.933C40.9511 31.5868 41.5196 32.1552 42.1733 32.6126C42.8668 33.0969 43.6454 33.4462 44.4683 33.6423V37.4587V38.6667ZM30.2104 43.3258C29.8178 43.4409 29.4109 43.4997 29.0018 43.5005C28.5929 43.4997 28.1862 43.4408 27.7939 43.3258C25.982 42.8009 24.6518 41.1293 24.6518 39.1506V33.7199C25.6073 33.5469 26.514 33.1695 27.31 32.6134C27.9637 32.1559 28.5322 31.5875 28.9896 30.9338L29.0025 30.9165L29.0155 30.9338C29.4727 31.5876 30.0412 32.1561 30.6951 32.6134C31.4906 33.1703 32.3975 33.5478 33.3532 33.7199V39.1506C33.3518 41.1293 32.0223 42.8009 30.2104 43.3258ZM18.7308 43.4164C18.4524 43.4718 18.1692 43.5 17.8853 43.5005C17.7623 43.5005 17.6422 43.4919 17.5229 43.4826C17.1089 43.4481 16.702 43.3538 16.315 43.2029C14.6914 42.5709 13.536 40.9948 13.536 39.1506V33.6423C14.3589 33.4462 15.1375 33.0969 15.8311 32.6126C16.4848 32.1552 17.0532 31.5868 17.5107 30.933L17.5236 30.9158L17.5365 30.933C17.994 31.5868 18.5624 32.1552 19.2161 32.6126C20.113 33.2403 21.1497 33.6392 22.236 33.7746V39.1498C22.2342 40.1564 21.8841 41.1312 21.2452 41.909C20.6063 42.6867 19.7179 43.2193 18.7308 43.4164ZM13.5353 13.2923V9.47577C15.1538 9.08734 16.5728 8.11716 17.5222 6.75002C18.0632 7.53039 18.7624 8.1882 19.5742 8.68072C20.3861 9.17324 21.2925 9.48944 22.2345 9.60879V14.9841C22.2345 17.0929 20.7253 18.8545 18.7301 19.2499C18.4516 19.3053 18.1685 19.3335 17.8845 19.3341C17.7616 19.3341 17.6415 19.3254 17.5222 19.3161C17.1082 19.2812 16.7014 19.187 16.3142 19.0364C14.6907 18.4044 13.5353 16.8283 13.5353 14.9848V14.5016V13.2923ZM44.4683 12.0836V14.9834C44.4683 16.8276 43.3129 18.4037 41.6894 19.0349C41.3021 19.186 40.895 19.2802 40.4807 19.3146C40.3602 19.3257 40.2393 19.3317 40.1183 19.3326C39.8286 19.3326 39.546 19.3031 39.2721 19.2485C37.2775 18.853 35.7684 17.0908 35.7684 14.9826V9.60735C36.7104 9.48805 37.6168 9.17186 38.4287 8.67934C39.2406 8.18682 39.9397 7.52898 40.4807 6.74858C41.4301 8.11597 42.8495 9.08619 44.4683 9.47433V12.0836ZM35.7684 31.3328C35.4897 31.3883 35.2062 31.4164 34.9221 31.4169H34.5597C34.1508 31.4161 33.7441 31.3572 33.3518 31.2422C31.5399 30.7166 30.2097 29.0449 30.2097 27.0662V21.6363C31.9738 21.3143 33.5381 20.3059 34.5597 18.8322C35.1007 19.6127 35.7999 20.2706 36.6117 20.7632C37.4236 21.2559 38.33 21.5722 39.2721 21.6917V27.0662C39.2709 28.0727 38.9212 29.0477 38.2825 29.8255C37.6438 30.6033 36.7554 31.1359 35.7684 31.3328ZM24.6518 31.2429C24.2594 31.3576 23.8527 31.4164 23.4439 31.4177H23.0808C22.791 31.4177 22.5085 31.3875 22.2352 31.3335C20.2407 30.9381 18.7308 29.1765 18.7308 27.0677V21.6931C19.673 21.574 20.5796 21.2579 21.3915 20.7652C22.2034 20.2725 22.9025 19.6144 23.4432 18.8336C24.4654 20.3071 26.0298 21.3154 27.7939 21.6377V27.0677C27.7932 29.0457 26.4637 30.7173 24.6518 31.2429ZM33.3518 12.0836V14.9834C33.3518 16.9621 32.0216 18.6337 30.2097 19.1586C29.8171 19.2736 29.4102 19.3325 29.0011 19.3333C28.5922 19.3328 28.1854 19.274 27.7932 19.1586C25.9813 18.6337 24.6511 16.9621 24.6511 14.9834V9.5527C26.415 9.23086 27.9793 8.22272 29.0011 6.7493C30.0232 8.22265 31.5877 9.23074 33.3518 9.5527V12.0836ZM50.7517 27.067C50.7517 29.3023 49.0563 31.1473 46.8849 31.3889C46.726 31.4061 46.5649 31.4177 46.4017 31.4177H46.0394C45.9164 31.4177 45.7963 31.409 45.677 31.399C45.2627 31.3644 44.8556 31.2702 44.4683 31.1193C42.8448 30.4873 41.6894 28.9112 41.6894 27.0677V21.5587C43.308 21.1702 44.7272 20.1997 45.6763 18.8322C46.2522 19.6631 47.0071 20.3544 47.8855 20.8551C48.7638 21.3558 49.7433 21.6532 50.7517 21.7255V25.3751V27.067ZM7.25189 27.067V21.7262C8.26037 21.654 9.23983 21.3566 10.1182 20.8559C10.9966 20.3552 11.7515 19.6639 12.3273 18.8329C13.2769 20.2003 14.6962 21.1707 16.315 21.5594V27.067C16.315 28.9112 15.1595 30.4865 13.536 31.1185L13.5353 31.1193C13.1482 31.2703 12.7414 31.3645 12.3273 31.399C12.2069 31.4103 12.086 31.4165 11.965 31.4177H11.6019C11.4379 31.4177 11.2769 31.4069 11.1187 31.3889C8.9473 31.1466 7.25189 29.3016 7.25189 27.067ZM11.9643 55.5834H11.6019C10.4485 55.5819 9.34273 55.123 8.52714 54.3074C7.71156 53.4919 7.25269 52.3861 7.25117 51.2327V45.8919C8.2597 45.8203 9.23929 45.5233 10.1177 45.0226C10.9961 44.522 11.751 43.8306 12.3266 42.9994L12.3389 43.0159C13.286 44.3766 14.7008 45.341 16.3135 45.7251V51.2327C16.3126 52.3861 15.8541 53.4919 15.0387 54.3076C14.2233 55.1232 13.1176 55.5821 11.9643 55.5834ZM23.4432 55.5834H23.0808C21.9274 55.5819 20.8218 55.123 20.0063 54.3074C19.1908 53.4918 18.7321 52.3861 18.7308 51.2327V45.8574C19.817 45.7217 20.8536 45.3229 21.7506 44.6955C22.4043 44.2381 22.9728 43.6696 23.4302 43.0159L23.4432 42.9987L23.4561 43.0159C23.9135 43.6696 24.482 44.2381 25.1357 44.6955C25.9314 45.2522 26.8383 45.6297 27.7939 45.8021V51.2327C27.7923 52.3861 27.3335 53.4919 26.5179 54.3074C25.7023 55.123 24.5966 55.5819 23.4432 55.5834ZM34.9221 55.5834H34.5597C33.4064 55.5819 32.3007 55.123 31.4852 54.3074C30.6698 53.4918 30.2111 52.3861 30.2097 51.2327V45.8021C31.1652 45.6291 32.0719 45.2516 32.8679 44.6955C33.5215 44.2383 34.0898 43.6698 34.5468 43.0159L34.5597 42.9987L34.5727 43.0159C35.0299 43.6698 35.5984 44.2383 36.2523 44.6955C37.1491 45.3232 38.1858 45.722 39.2721 45.8574V51.2327C39.2709 52.3861 38.8123 53.492 37.9968 54.3076C37.1813 55.1233 36.0755 55.5821 34.9221 55.5834ZM50.7517 51.2334C50.7504 52.3868 50.2917 53.4925 49.4762 54.3081C48.6607 55.1237 47.5551 55.5826 46.4017 55.5841H46.0394C44.886 55.5826 43.7803 55.1237 42.9649 54.3081C42.1494 53.4925 41.6907 52.3868 41.6894 51.2334V45.7259C42.5123 45.5299 43.2909 45.1806 43.9844 44.6962C44.6383 44.239 45.2068 43.6705 45.664 43.0167L45.6763 42.9994C46.2522 43.8303 47.0071 44.5216 47.8855 45.0223C48.7638 45.523 49.7433 45.8204 50.7517 45.8927V51.2334Z" fill="white"/>
</svg>
