<svg width="58" height="58" viewBox="0 0 58 58" fill="none" xmlns="http://www.w3.org/2000/svg">
<g clip-path="url(#clip0_137_2180)">
<path d="M2.15353 23.385C2.34098 23.6111 2.57279 23.7964 2.83466 23.9294C3.09653 24.0624 3.38289 24.1403 3.67605 24.1583H3.81334C4.17114 24.1577 4.52321 24.0684 4.83799 23.8983V39.1211C4.84008 41.0047 6.3666 42.5313 8.25026 42.5334H27.9999L22.3731 49.0399C20.4159 51.3021 20.6632 54.7226 22.9255 56.6798C25.1878 58.6369 28.6083 58.3896 30.5654 56.1273L42.1652 42.7092C46.4324 43.874 50.9977 42.7031 54.1774 39.6282C57.3572 36.5533 58.6807 32.03 57.6596 27.726C57.5814 27.3891 57.4113 27.0805 57.1681 26.8346C56.9249 26.5886 56.6182 26.415 56.2821 26.3331C55.9509 26.2502 55.6031 26.2613 55.2778 26.3651C54.9526 26.4689 54.6627 26.6613 54.4407 26.9208L49.0671 33.1354L43.3764 33.031L42.4524 27.4138L47.8269 21.2011C48.0507 20.9439 48.199 20.6297 48.2551 20.2934C48.3112 19.9571 48.2731 19.6118 48.1449 19.2958C48.0147 18.9756 47.7984 18.6978 47.5199 18.493C47.2415 18.2883 46.9118 18.1647 46.5673 18.1359C45.3162 18.0321 44.0566 18.1181 42.8312 18.391L38.6707 14.6037V6.05201C38.6691 4.84612 37.692 3.86894 36.4862 3.86742H32.1556C30.9497 3.86904 29.9725 4.84622 29.971 6.05201V6.70448L23.2199 0.573977C22.3943 -0.191326 21.1185 -0.191326 20.2928 0.573977L0.730625 18.3342C-0.160357 19.1588 -0.245506 20.5382 0.537301 21.4661L2.15353 23.385ZM17.4043 40.6V29.967C17.4043 29.4331 17.8371 29.0003 18.3709 29.0003H25.1374C25.6713 29.0003 26.1041 29.4331 26.1041 29.967V40.6001H17.4043V40.6ZM28.0375 40.6V29.967C28.0375 28.3654 26.7391 27.067 25.1375 27.067H18.371C16.7694 27.067 15.4711 28.3654 15.4711 29.967V40.6001H8.25017C7.43378 40.5991 6.77227 39.9375 6.77122 39.1212V22.2387L21.7543 8.63391L36.4261 21.965C36.2802 22.1167 36.1245 22.2549 35.9863 22.4154C32.8232 26.0613 32.0409 31.2021 33.9767 35.6238L29.6722 40.6H28.0375ZM45.4701 20.0153C45.7369 20.0153 46.0047 20.025 46.2714 20.0452L40.7006 26.4869C40.6079 26.5942 40.5399 26.7206 40.5015 26.8571C40.4631 26.9935 40.4552 27.1368 40.4783 27.2767L41.6064 34.1341C41.643 34.3572 41.7566 34.5605 41.9276 34.7085C42.0985 34.8564 42.316 34.9398 42.5421 34.9441L49.4904 35.0717C49.7777 35.0772 50.0526 34.9546 50.2405 34.7372L55.8141 28.2916C56.6524 32.0168 55.4223 35.905 52.5941 38.4703C49.7659 41.0357 45.7765 41.8817 42.1506 40.6851C41.9688 40.6257 41.7735 40.6216 41.5894 40.6732C41.4053 40.7248 41.2406 40.8299 41.1162 40.9751L29.1009 54.862C28.4952 55.5561 27.6393 55.982 26.7204 56.0466C25.8016 56.1112 24.8945 55.8092 24.1977 55.2067C23.5009 54.6043 23.0711 53.7503 23.0023 52.8317C22.9335 51.9132 23.2314 51.0047 23.8307 50.3052L35.8481 36.4145C35.9727 36.2702 36.0519 36.0922 36.0756 35.903C36.0993 35.7138 36.0666 35.5218 35.9814 35.3512C35.1745 33.7347 34.7941 31.9388 34.8763 30.134C34.9585 28.3292 35.5007 26.5753 36.4514 25.039C37.402 23.5026 38.7295 22.2347 40.308 21.3556C41.8864 20.4766 43.6633 20.0156 45.47 20.0163V20.0153H45.4701ZM31.9041 6.05201C31.9058 5.98589 31.9329 5.92294 31.9797 5.87617C32.0264 5.8294 32.0894 5.80237 32.1555 5.80066H36.4861C36.5522 5.80237 36.6151 5.8294 36.6619 5.87617C36.7087 5.92294 36.7357 5.98589 36.7374 6.05201V12.8485L31.9041 8.4599V6.05201ZM2.03461 19.7591L21.5958 1.99888C21.6388 1.95732 21.6964 1.9341 21.7562 1.9341C21.8161 1.9341 21.8736 1.95732 21.9167 1.99888L40.6812 19.0438C39.679 19.4628 38.7351 20.0096 37.8731 20.6707L22.4067 6.61657C22.2288 6.45489 21.9971 6.36531 21.7567 6.36531C21.5162 6.36531 21.2845 6.45489 21.1066 6.61657L5.12788 21.1221H5.12208L3.96794 22.1709C3.92214 22.2117 3.86291 22.234 3.80163 22.2337C3.76869 22.2312 3.73666 22.2217 3.70766 22.2059C3.67866 22.1901 3.65336 22.1683 3.63343 22.1419L2.01234 20.2222C1.95973 20.1552 1.93301 20.0715 1.9371 19.9865C1.94119 19.9014 1.97581 19.8207 2.03461 19.7591Z" fill="white"/>
<path fill-rule="evenodd" clip-rule="evenodd" d="M27.8915 49.5014L26.1177 51.571C25.9588 51.7667 25.8826 52.0167 25.9053 52.2677C25.9281 52.5187 26.048 52.751 26.2395 52.9148C26.431 53.0788 26.679 53.1614 26.9305 53.1451C27.1821 53.1288 27.4173 53.0149 27.5861 52.8276L29.3599 50.758C29.5181 50.5623 29.5938 50.3126 29.5707 50.0619C29.5477 49.8113 29.4279 49.5795 29.2366 49.4158C29.0454 49.2522 28.7979 49.1696 28.5467 49.1855C28.2955 49.2015 28.0604 49.3149 27.8915 49.5014Z" fill="white"/>
</g>
<defs>
<clipPath id="clip0_137_2180">
<rect width="58" height="58" fill="white"/>
</clipPath>
</defs>
</svg>
