<svg width="54" height="58" viewBox="0 0 54 58" fill="none" xmlns="http://www.w3.org/2000/svg">
<path d="M26.6334 57.9981C26.7339 57.9981 26.8354 57.9816 26.934 57.9507C34.5445 55.4683 40.7292 51.7506 45.3169 46.8999C50.446 41.4779 53.2706 34.0172 53.2706 25.8915V4.92853C53.2706 4.7861 53.2391 4.64543 53.1784 4.51658C53.1177 4.38773 53.0293 4.27388 52.9195 4.18319C52.8097 4.09249 52.6812 4.02718 52.5432 3.99193C52.4052 3.95667 52.2611 3.95235 52.1212 3.97927C35.5373 7.17021 27.3497 0.305971 27.2714 0.237339C27.0953 0.0844475 26.8701 0.000177851 26.6369 2.81197e-07C26.4038 -0.000177289 26.1784 0.0837492 26.0021 0.236372C25.9209 0.305972 17.7275 7.17021 1.14936 3.98024C1.00949 3.95332 0.865411 3.95764 0.727412 3.99289C0.589414 4.02814 0.46091 4.09345 0.351093 4.18415C0.241275 4.27485 0.152857 4.3887 0.0921624 4.51755C0.0314679 4.6464 -3.2632e-06 4.78707 2.53781e-10 4.9295V25.8934C2.53781e-10 34.0191 2.82457 41.4798 7.95366 46.9018C12.5405 51.7525 18.7261 55.4703 26.3366 57.9526C26.4352 57.9845 26.5357 58 26.6372 58L26.6334 57.9981ZM1.93042 25.8915V6.08562C16.323 8.5332 24.3946 3.78787 26.6334 2.18516C28.8721 3.78787 36.9437 8.5332 51.3363 6.08562V25.8915C51.3363 33.5203 48.6993 40.5103 43.9114 45.5717C39.6088 50.1217 33.7963 53.6336 26.6334 56.0135C19.4704 53.6336 13.6579 50.1208 9.35532 45.5717C4.56746 40.5103 1.93042 33.5203 1.93042 25.8915Z" fill="white"/>
</svg>
