<svg width="61" height="58" viewBox="0 0 61 58" fill="none" xmlns="http://www.w3.org/2000/svg">
<path d="M16.3246 23.6905C16.3246 23.9755 16.4378 24.2489 16.6393 24.4504C16.8409 24.652 17.1142 24.7652 17.3992 24.7652H23.6883C23.9734 24.7652 24.2467 24.652 24.4483 24.4504C24.6498 24.2489 24.763 23.9755 24.763 23.6905V18.3794C26.1689 18.1259 27.441 17.3865 28.3571 16.2904C29.2732 15.1943 29.7751 13.8111 29.7751 12.3826C29.7751 10.9541 29.2732 9.57092 28.3571 8.47482C27.441 7.37872 26.1689 6.63933 24.763 6.38581V1.07469C24.763 0.789665 24.6498 0.516314 24.4483 0.31477C24.2467 0.113226 23.9734 0 23.6883 0H4.72971C3.47567 0.00113823 2.27331 0.499812 1.38656 1.38656C0.499811 2.27331 0.00113823 3.47567 0 4.72972V23.6905C0 23.9755 0.113226 24.2489 0.31477 24.4504C0.516314 24.652 0.789665 24.7652 1.07469 24.7652H7.36486C7.64988 24.7652 7.92323 24.652 8.12478 24.4504C8.32632 24.2489 8.43955 23.9755 8.43955 23.6905C8.45663 22.6561 8.87951 21.6699 9.61701 20.9445C10.3545 20.2191 11.3476 19.8125 12.3821 19.8125C13.4165 19.8125 14.4096 20.2191 15.1471 20.9445C15.8846 21.6699 16.3075 22.6561 16.3246 23.6905ZM6.38366 22.6158H2.14938V4.72972C2.15052 4.046 2.42263 3.39062 2.90608 2.90716C3.38954 2.4237 4.04493 2.15159 4.72864 2.15046H22.6136V7.36486C22.6136 7.64988 22.7269 7.92324 22.9284 8.12478C23.13 8.32632 23.4033 8.43955 23.6883 8.43955C24.7227 8.45663 25.7089 8.87951 26.4343 9.61701C27.1597 10.3545 27.5663 11.3476 27.5663 12.3821C27.5663 13.4165 27.1597 14.4096 26.4343 15.1471C25.7089 15.8846 24.7227 16.3075 23.6883 16.3246C23.4033 16.3246 23.13 16.4378 22.9284 16.6393C22.7269 16.8409 22.6136 17.1142 22.6136 17.3992V22.6158H18.3794C18.1168 21.2172 17.3737 19.9544 16.2785 19.0457C15.1834 18.137 13.8051 17.6397 12.3821 17.6397C10.959 17.6397 9.58074 18.137 8.48559 19.0457C7.39045 19.9544 6.64732 21.2172 6.38474 22.6158H6.38366Z" fill="white"/>
<path d="M55.4549 11.3076H36.4941C36.2091 11.3076 35.9357 11.4208 35.7342 11.6224C35.5326 11.8239 35.4194 12.0973 35.4194 12.3823V18.6725C35.4194 18.9575 35.5326 19.2309 35.7342 19.4324C35.9357 19.6339 36.2091 19.7472 36.4941 19.7472C37.5284 19.7642 38.5146 20.1871 39.2401 20.9246C39.9655 21.6621 40.372 22.6552 40.372 23.6897C40.372 24.7242 39.9655 25.7172 39.2401 26.4547C38.5146 27.1922 37.5284 27.6151 36.4941 27.6322C36.2091 27.6322 35.9357 27.7454 35.7342 27.9469C35.5326 28.1485 35.4194 28.4218 35.4194 28.7069V33.2356H31.183C30.9295 31.8298 30.1901 30.5576 29.094 29.6415C27.9979 28.7254 26.6147 28.2235 25.1862 28.2235C23.7577 28.2235 22.3745 28.7254 21.2784 29.6415C20.1823 30.5576 19.4429 31.8298 19.1894 33.2356H13.8794C13.5944 33.2356 13.321 33.3488 13.1195 33.5504C12.9179 33.7519 12.8047 34.0253 12.8047 34.3103V53.2711C12.8061 54.5248 13.3048 55.7267 14.1912 56.6132C15.0777 57.4996 16.2797 57.9983 17.5333 57.9997H55.4549C56.7087 57.9986 57.9109 57.5001 58.7976 56.6135C59.6844 55.727 60.1832 54.5249 60.1846 53.2711V16.0363C60.1832 14.7826 59.6845 13.5807 58.798 12.6942C57.9115 11.8077 56.7096 11.309 55.456 11.3076H55.4549ZM42.5854 23.6913C42.5838 22.2624 42.0808 20.8793 41.164 19.7833C40.2473 18.6872 38.9749 17.9476 37.5688 17.6934V13.4591H55.4527C56.1366 13.46 56.7923 13.732 57.276 14.2155C57.7597 14.699 58.0319 15.3545 58.0331 16.0384V33.2345H52.8176C52.5326 33.2345 52.2592 33.3478 52.0577 33.5493C51.8561 33.7509 51.7429 34.0242 51.7429 34.3092C51.7258 35.3436 51.3029 36.3298 50.5654 37.0552C49.8279 37.7806 48.8349 38.1872 47.8004 38.1872C46.7659 38.1872 45.7729 37.7806 45.0353 37.0552C44.2978 36.3298 43.875 35.3436 43.8579 34.3092C43.8579 34.0242 43.7447 33.7509 43.5431 33.5493C43.3416 33.3478 43.0682 33.2345 42.7832 33.2345H37.5688V29.6881C38.9747 29.4339 40.2469 28.6945 41.1637 27.5986C42.0804 26.5028 42.5836 25.12 42.5854 23.6913ZM14.9551 53.2711V35.385H20.1706C20.4556 35.385 20.729 35.2718 20.9305 35.0702C21.1321 34.8687 21.2453 34.5953 21.2453 34.3103C21.2453 33.2648 21.6606 32.2622 22.3999 31.5229C23.1391 30.7836 24.1418 30.3683 25.1873 30.3683C26.2328 30.3683 27.2354 30.7836 27.9747 31.5229C28.7139 32.2622 29.1292 33.2648 29.1292 34.3103C29.1292 34.5953 29.2425 34.8687 29.444 35.0702C29.6456 35.2718 29.9189 35.385 30.2039 35.385H35.4194V39.6214C34.0135 39.8749 32.7414 40.6143 31.8253 41.7104C30.9092 42.8065 30.4073 44.1897 30.4073 45.6182C30.4073 47.0467 30.9092 48.4299 31.8253 49.526C32.7414 50.6221 34.0135 51.3615 35.4194 51.615V55.8503H17.5344C16.8507 55.8492 16.1953 55.5771 15.7118 55.0936C15.2284 54.6102 14.9563 53.9548 14.9551 53.2711ZM55.4538 55.8503H37.5699V50.6359C37.5699 50.3509 37.4566 50.0776 37.2551 49.876C37.0536 49.6745 36.7802 49.5612 36.4952 49.5612C35.4496 49.5612 34.4468 49.1459 33.7074 48.4065C32.968 47.6671 32.5527 46.6644 32.5527 45.6187C32.5527 44.5731 32.968 43.5703 33.7074 42.831C34.4468 42.0916 35.4496 41.6762 36.4952 41.6762C36.7802 41.6762 37.0536 41.563 37.2551 41.3615C37.4566 41.1599 37.5699 40.8866 37.5699 40.6015V36.0706H41.8041C42.0571 37.4771 42.7963 38.75 43.8925 39.6667C44.9888 40.5835 46.3724 41.0857 47.8015 41.0857C49.2305 41.0857 50.6141 40.5835 51.7104 39.6667C52.8067 38.75 53.5459 37.4771 53.7988 36.0706H58.0341V53.2711C58.033 53.9548 57.7609 54.6102 57.2774 55.0936C56.794 55.5771 56.1375 55.8492 55.4538 55.8503Z" fill="white"/>
</svg>
