<svg width="54" height="54" viewBox="0 0 54 54" fill="none" xmlns="http://www.w3.org/2000/svg">
<mask id="mask0_137_2677" style="mask-type:luminance" maskUnits="userSpaceOnUse" x="0" y="0" width="54" height="54">
<path d="M53.5 53.5V0.5H0.5V53.5H53.5Z" fill="white" stroke="white"/>
</mask>
<g mask="url(#mask0_137_2677)">
<path d="M35.4414 46.4048C34.1321 47.0413 32.7618 47.5441 31.3515 47.9056V50.2137C31.3515 51.3139 30.4486 52.2139 29.3484 52.2139H22.6605C21.5573 52.2139 20.6574 51.3139 20.6574 50.2137V47.9056C18.6708 47.3978 16.7671 46.6085 15.004 45.5616L13.3716 47.194C12.5913 47.9743 11.3176 47.9743 10.5403 47.194L5.81069 42.4642C5.03044 41.6869 5.03044 40.4103 5.81069 39.6329L7.44314 38.0005C6.39627 36.2374 5.60696 34.3336 5.0992 32.3469H2.79112C1.69098 32.3469 0.791016 31.444 0.791016 30.3438V23.6557C0.791016 22.5525 1.69098 21.6526 2.79112 21.6526H5.0992C5.60696 19.6659 6.39626 17.7621 7.44314 15.999L5.81069 14.3665C5.03044 13.5863 5.03044 12.3125 5.81069 11.5352L10.5403 6.80546C11.3176 6.0251 12.5913 6.0251 13.3716 6.80546L15.004 8.4379C16.767 7.39097 18.6708 6.60163 20.6574 6.09386V3.78578C20.6574 2.68553 21.5573 1.78568 22.6605 1.78568H29.3484C30.4486 1.78568 31.3515 2.68553 31.3515 3.78578V6.09386C33.3381 6.60163 35.2419 7.39097 37.005 8.4379L38.6373 6.80546C39.4146 6.0251 40.6912 6.0251 41.4685 6.80546L46.1983 11.5352C46.9785 12.3125 46.9785 13.5863 46.1983 14.3665L44.5659 15.999C45.6128 17.7621 46.402 19.6659 46.9098 21.6526H49.2178C50.318 21.6526 51.2178 22.5525 51.2178 23.6557V30.3438C51.2178 31.2348 50.6289 31.9941 49.8217 32.2513" stroke="black" stroke-miterlimit="10" stroke-linecap="round" stroke-linejoin="round"/>
<path d="M16.1257 15.554C12.9148 18.3256 10.8848 22.4245 10.8848 26.9989C10.8848 35.3522 17.6534 42.1211 26.0036 42.1211C28.5329 42.1211 30.9126 41.5021 33.0054 40.4049M40.8383 29.9467C41.0298 28.9758 41.126 27.9885 41.1254 26.9989C41.1254 18.6485 34.3567 11.8796 26.0036 11.8796C23.4384 11.8796 21.0228 12.5195 18.9061 13.6466" stroke="black" stroke-miterlimit="10" stroke-linecap="round" stroke-linejoin="round"/>
<path d="M22.8696 41.7949V32.1679C19.7125 30.9989 17.4492 27.9524 17.4492 24.4035C17.4492 21.5692 18.8903 19.0548 21.0788 17.5629C23.3749 15.9933 22.9294 18.4718 22.9294 18.8874V23.8593C22.9294 25.5994 24.2927 27.0345 26.0027 27.1511C27.7128 27.0345 29.0761 25.5994 29.0761 23.8593V18.8874C29.0761 18.4718 28.6337 15.9933 30.9297 17.5629C33.1182 19.0548 34.5592 21.5692 34.5592 24.4035C34.5592 27.9524 32.2959 30.9989 29.1388 32.1679V41.7949" stroke="black" stroke-miterlimit="10" stroke-linecap="round" stroke-linejoin="round"/>
<path d="M47.8539 48.7281C46.4368 49.4845 44.8164 49.915 43.0973 49.915C37.5126 49.915 32.9863 45.3885 32.9863 39.8036C32.9863 34.2189 37.5126 29.6924 43.0973 29.6924C48.6821 29.6924 53.2085 34.2189 53.2085 39.8036C53.2085 42.3838 52.2398 44.7367 50.6493 46.5246" stroke="black" stroke-miterlimit="10" stroke-linecap="round" stroke-linejoin="round"/>
<path d="M41.9464 39.6962L45.211 35.8035C45.8897 34.9933 47.1035 34.8856 47.9167 35.5643C48.727 36.243 48.8345 37.4569 48.1529 38.27L43.6504 43.6426C43.3097 44.0522 42.8702 44.2795 42.341 44.3242C41.8118 44.3692 41.3425 44.2196 40.9358 43.8758L38.4036 41.7262C37.5963 41.0415 37.4977 39.8277 38.1793 39.0204C38.8639 38.2132 40.0808 38.1146 40.885 38.7962L41.9464 39.6962Z" stroke="black" stroke-miterlimit="10" stroke-linecap="round" stroke-linejoin="round"/>
</g>
</svg>
