<svg width="58" height="58" viewBox="0 0 58 58" fill="none" xmlns="http://www.w3.org/2000/svg">
<g clip-path="url(#clip0_137_1809)">
<path d="M46.702 41.6588H57.1501C57.6196 41.6588 58 41.2783 58 40.8089C58 40.3395 57.6196 39.959 57.1501 39.959H46.702C46.4766 39.959 46.2604 40.0485 46.101 40.2079C45.9416 40.3673 45.8521 40.5835 45.8521 40.8089C45.8521 41.0343 45.9416 41.2505 46.101 41.4099C46.2604 41.5693 46.4766 41.6588 46.702 41.6588Z" fill="#393939"/>
<path d="M57.1501 55.8245H33.0069C33.9078 54.8639 34.4613 53.5736 34.4613 52.1558C34.4613 49.1956 32.0529 46.7872 29.0927 46.7872C29.0348 46.7872 28.9774 46.7898 28.92 46.7917C29.2102 46.1738 29.3733 45.485 29.3733 44.7585C29.3733 43.5778 28.9439 42.496 28.2342 41.6592H43.08C43.5495 41.6592 43.9299 41.2786 43.9299 40.8092C43.9299 40.3398 43.5495 39.9593 43.08 39.9593H27.5741C23.3949 39.9593 19.9949 36.5594 19.9949 32.3802V8.985H20.0746C21.3704 8.985 22.4247 7.93076 22.4247 6.63491V2.82568C22.4247 1.52983 21.3704 0.475586 20.0746 0.475586H2.35009C1.05424 0.475586 0 1.52983 0 2.82568V6.63491C0 7.93076 1.05424 8.985 2.35009 8.985H2.42976V32.3803C2.42976 39.0966 5.04525 45.4108 9.79427 50.16C14.5434 54.9091 20.8576 57.5245 27.5739 57.5245H57.1501C57.3755 57.5245 57.5917 57.4349 57.7511 57.2755C57.9105 57.1161 58.0001 56.8999 58.0001 56.6745C58.0001 56.4491 57.9105 56.2329 57.7511 56.0735C57.5917 55.9141 57.3755 55.8245 57.1501 55.8245ZM32.7614 52.1558C32.7614 54.1787 31.1157 55.8245 29.0927 55.8245C27.0698 55.8245 25.424 54.1787 25.424 52.1558C25.424 50.1329 27.0698 48.4871 29.0927 48.4871C31.1156 48.4871 32.7614 50.1329 32.7614 52.1558ZM27.6733 44.7585C27.6733 46.4676 26.283 47.8579 24.5739 47.8579C22.8649 47.8579 21.4746 46.4676 21.4746 44.7585C21.4746 43.0495 22.8649 41.6592 24.5739 41.6592C26.283 41.6592 27.6733 43.0496 27.6733 44.7585ZM22.3801 49.0247C23.0058 49.348 23.6955 49.5285 24.3993 49.5532C24.0281 50.2198 23.8045 50.9583 23.7434 51.7188C23.4897 51.8959 23.188 51.9912 22.8786 51.9919C22.0368 51.9919 21.3518 51.307 21.3518 50.4651C21.352 50.1479 21.4512 49.8386 21.6355 49.5804C21.8198 49.3222 22.0801 49.1279 22.3801 49.0247ZM4.1296 32.3803V22.6567H6.53159C6.757 22.6567 6.97318 22.5672 7.13257 22.4078C7.29197 22.2484 7.38151 22.0322 7.38151 21.8068C7.38151 21.5814 7.29197 21.3652 7.13257 21.2058C6.97318 21.0464 6.757 20.9569 6.53159 20.9569H4.1296V8.985H11.3598C11.5852 8.985 11.8014 8.89545 11.9608 8.73606C12.1202 8.57667 12.2097 8.36049 12.2097 8.13508C12.2097 7.90967 12.1202 7.69348 11.9608 7.53409C11.8014 7.3747 11.5852 7.28516 11.3598 7.28516H2.35009C2.17769 7.28498 2.0124 7.21641 1.89049 7.09451C1.76859 6.9726 1.70002 6.80731 1.69984 6.63491V2.82568C1.70002 2.65327 1.76859 2.48799 1.89049 2.36608C2.0124 2.24417 2.17769 2.17561 2.35009 2.17543H20.0745C20.2469 2.17561 20.4122 2.24417 20.5341 2.36608C20.656 2.48799 20.7245 2.65327 20.7247 2.82568V6.63491C20.7245 6.80731 20.656 6.9726 20.5341 7.09451C20.4122 7.21641 20.2469 7.28498 20.0745 7.28516H14.982C14.7565 7.28516 14.5404 7.3747 14.381 7.53409C14.2216 7.69348 14.132 7.90967 14.132 8.13508C14.132 8.36049 14.2216 8.57667 14.381 8.73606C14.5404 8.89545 14.7565 8.985 14.982 8.985H18.295V20.9569H10.1537C9.92831 20.9569 9.71213 21.0464 9.55274 21.2058C9.39335 21.3652 9.30381 21.5814 9.30381 21.8068C9.30381 22.0322 9.39335 22.2484 9.55274 22.4078C9.71213 22.5672 9.92831 22.6567 10.1537 22.6567H18.295V32.3803C18.295 35.738 20.0876 38.6849 22.7662 40.314C21.0136 41.0295 19.7748 42.7517 19.7748 44.7585C19.7748 45.9542 20.2153 47.0481 20.9413 47.8893C20.1489 48.4847 19.652 49.4277 19.652 50.4651C19.652 52.2443 21.0995 53.6918 22.8786 53.6918C23.2294 53.6918 23.5743 53.6342 23.9015 53.5243C24.1161 54.3377 24.5179 55.0754 25.0568 55.6902C19.7464 55.1269 14.8255 52.787 10.9963 48.9578C6.56831 44.5299 4.1296 38.6425 4.1296 32.3803Z" fill="#393939"/>
<path d="M12.9123 34.3311C11.307 34.3311 10.0012 35.637 10.0012 37.2421C10.0012 38.8472 11.3072 40.1531 12.9123 40.1531C14.5174 40.1531 15.8233 38.8472 15.8233 37.2421C15.8233 35.637 14.5174 34.3311 12.9123 34.3311ZM12.9123 38.4534C12.2443 38.4534 11.7011 37.91 11.7011 37.2422C11.7011 36.5744 12.2444 36.031 12.9123 36.031C13.5801 36.031 14.1235 36.5744 14.1235 37.2422C14.1235 37.91 13.5801 38.4534 12.9123 38.4534Z" fill="#393939"/>
</g>
<defs>
<clipPath id="clip0_137_1809">
<rect width="58" height="58" fill="white"/>
</clipPath>
</defs>
</svg>
