<svg width="56" height="56" viewBox="0 0 56 56" fill="none" xmlns="http://www.w3.org/2000/svg">
<mask id="mask0_137_2607" style="mask-type:luminance" maskUnits="userSpaceOnUse" x="-1" y="0" width="57" height="57">
<path d="M54.9995 55.001V0.999516H0.998047V55.001H54.9995Z" fill="white" stroke="white" stroke-width="2"/>
</mask>
<g mask="url(#mask0_137_2607)">
<path d="M30.3952 20.5078L31.2501 19.6547L33.4874 17.4224C34.642 16.2704 34.642 14.3836 33.4874 13.2317C32.3329 12.0796 30.442 12.0796 29.2874 13.2317L26.1952 16.3171" stroke="black" stroke-width="2" stroke-miterlimit="10" stroke-linecap="round" stroke-linejoin="round"/>
<path d="M44.7798 26.5883C43.7688 25.5796 42.1119 25.5796 41.1009 26.5883L37.1723 30.5113C36.1613 31.5201 36.1613 33.1703 37.1723 34.179C38.1832 35.1877 39.8371 35.1877 40.8482 34.179L44.7798 30.256C45.7909 29.2473 45.7909 27.5971 44.7798 26.5883Z" stroke="black" stroke-width="2" stroke-miterlimit="10" stroke-linecap="round" stroke-linejoin="round"/>
<path d="M37.2941 22.0049L37.7216 21.5784C38.8417 20.4233 38.8293 18.5645 37.6872 17.4218C36.5327 16.2699 34.6417 16.2699 33.4871 17.4218L31.9394 18.9661" stroke="black" stroke-width="2" stroke-miterlimit="10" stroke-linecap="round" stroke-linejoin="round"/>
<path d="M36.8356 46.552C36.7764 45.1416 37.0447 43.7156 37.647 42.4112L24.0732 28.8644M39.6846 34.8486L42.4555 37.6132C45.7694 36.0939 49.8414 36.6917 52.5624 39.4066C54.7343 41.5736 55.555 44.5999 55.0215 47.4145C54.4628 50.3691 52.9027 48.1336 52.5843 47.8161L48.7742 44.0146C47.4419 42.6851 45.2982 42.6291 43.8972 43.8495C42.6739 45.2475 42.7301 47.3865 44.0625 48.716L47.8725 52.5175C48.1908 52.835 50.4313 54.3918 47.47 54.9491C44.6492 55.4815 41.6161 54.6626 39.4444 52.4956C38.7849 51.836 38.2321 51.0776 37.8062 50.2478M21.7517 16.9585L18.3503 13.5617C19.8731 10.2552 19.2739 6.19215 16.5529 3.47728C14.3812 1.31029 11.3483 0.491379 8.52734 1.02383C5.56605 1.58111 7.80654 3.13789 8.12483 3.45541L11.9349 7.25695C13.2672 8.58643 13.3235 10.7254 12.1003 12.1233C10.6992 13.3438 8.55546 13.2877 7.22312 11.9583L3.41306 8.1568C3.09477 7.83917 1.5346 5.6037 0.9759 8.55843C0.442464 11.3731 1.26302 14.3993 3.43493 16.5663C6.15592 19.2812 10.228 19.879 13.5419 18.3597L17.1428 21.9525" stroke="black" stroke-width="2" stroke-miterlimit="10" stroke-linecap="round" stroke-linejoin="round"/>
<path d="M15.7727 43.0833L20.4783 47.7783C21.2054 48.5038 21.2054 49.69 20.4783 50.4155L16.2939 54.5907C15.5668 55.3161 14.3779 55.3161 13.6509 54.5907L2.096 43.0615C1.36897 42.336 1.36897 41.1498 2.096 40.4243L6.28047 36.2493C7.00751 35.5238 8.19633 35.5238 8.92348 36.2493L13.0611 40.3777" stroke="black" stroke-width="2" stroke-miterlimit="10" stroke-linecap="round" stroke-linejoin="round"/>
<path d="M20.4785 47.7783L26.0515 42.2177C28.1391 40.1348 28.5447 40.5831 31.0099 40.935C32.1145 41.0937 33.6903 40.5052 34.9572 39.7269" stroke="black" stroke-width="2" stroke-miterlimit="10" stroke-linecap="round" stroke-linejoin="round"/>
<path d="M41.1013 22.3973C39.9467 21.2453 38.0558 21.2453 36.9013 22.3973L33.8213 25.4703C32.6637 26.6254 32.6637 28.509 33.8213 29.661C34.9759 30.8161 36.8669 30.8161 38.0215 29.661L41.1013 26.588C42.259 25.4361 42.259 23.5493 41.1013 22.3973Z" stroke="black" stroke-width="2" stroke-miterlimit="10" stroke-linecap="round" stroke-linejoin="round"/>
<path d="M34.202 25.0935C34.2864 24.2747 32.9321 23.0386 31.5403 21.6499L25.4213 15.5445C24.8034 14.928 23.7861 14.928 23.1653 15.5476L18.1132 20.5883C16.965 21.734 16.45 23.4185 16.5406 24.9316C16.681 27.248 15.6012 29.5893 12.3998 32.7807L8.92373 36.249M24.0577 22.5653C24.1106 22.6213 26.1795 24.6825 26.2326 24.7355C27.8707 26.3171 31.1752 27.6807 33.3065 26.1614" stroke="black" stroke-width="2" stroke-miterlimit="10" stroke-linecap="round" stroke-linejoin="round"/>
<path d="M24.0581 22.5659C25.8834 24.3873 25.3779 27.8433 22.9316 30.2842" stroke="black" stroke-width="2" stroke-miterlimit="10" stroke-linecap="round" stroke-linejoin="round"/>
</g>
</svg>
