<svg width="50" height="58" viewBox="0 0 50 58" fill="none" xmlns="http://www.w3.org/2000/svg">
<path d="M8.87259 4.80769C9.41708 4.80769 9.85847 4.3663 9.85847 3.82181C9.85847 3.27733 9.41708 2.83594 8.87259 2.83594C8.32811 2.83594 7.88672 3.27733 7.88672 3.82181C7.88672 4.3663 8.32811 4.80769 8.87259 4.80769Z" fill="white"/>
<path d="M39.5341 5.96276C39.8277 6.05173 40.1244 6.09363 40.416 6.09363C41.7225 6.09363 42.9347 5.24504 43.3332 3.93086V3.93037C43.8195 2.32339 42.9075 0.619308 41.3008 0.132285C39.6901 -0.357696 37.9897 0.556458 37.5027 2.16418C37.3855 2.54677 37.3455 2.94883 37.3848 3.34704C37.4241 3.74524 37.5421 4.13168 37.7319 4.48394C37.9196 4.8374 38.1755 5.15012 38.4848 5.40397C38.7942 5.65781 39.1508 5.84775 39.5341 5.96276ZM39.3897 2.73598C39.4569 2.51533 39.5932 2.32209 39.7785 2.18471C39.9638 2.04734 40.1883 1.9731 40.4189 1.97292C40.5865 1.97349 40.7517 2.01317 40.9012 2.08881C41.0507 2.16446 41.1806 2.27396 41.2803 2.40862C41.3801 2.54327 41.447 2.69936 41.4758 2.86445C41.5046 3.02954 41.4945 3.19907 41.4462 3.35955C41.4054 3.49465 41.3383 3.62037 41.2488 3.72952C41.1592 3.83866 41.0491 3.92908 40.9246 3.9956C40.8001 4.06213 40.6637 4.10345 40.5233 4.11721C40.3828 4.13097 40.241 4.1169 40.1059 4.07579C39.9708 4.03521 39.8451 3.96824 39.736 3.87877C39.627 3.78929 39.5367 3.67908 39.4705 3.55451C39.4035 3.43023 39.3618 3.29388 39.3479 3.15336C39.3341 3.01284 39.3483 2.87097 39.3897 2.73598ZM49.2938 11.7735C49.3631 11.2133 49.5933 8.56276 47.8978 7.63209C46.4786 6.85177 44.5251 7.59684 41.7514 9.97453C39.4447 11.9512 37.3341 12.8629 35.6658 12.6058C34.8429 12.4812 34.0926 12.064 33.5526 11.4307C33.6162 10.5116 33.5844 8.43361 32.1238 7.63209C30.7056 6.85177 28.7511 7.59684 25.9773 9.97453C23.6706 11.9512 21.5611 12.8629 19.8918 12.6058C19.0689 12.4812 18.3186 12.064 17.7785 11.4307C17.8421 10.5116 17.8103 8.43361 16.3498 7.63209C14.9306 6.85177 12.9761 7.59684 10.2033 9.97453C7.89662 11.9512 5.78808 12.8629 4.11776 12.6058C2.58029 12.3719 1.85616 11.2421 1.83126 11.2017C1.71986 11.0174 1.5514 10.8745 1.35143 10.7945C1.15146 10.7146 0.930884 10.7021 0.723141 10.7588C0.515273 10.8163 0.331986 10.9403 0.201371 11.1119C0.070756 11.2836 1.83143e-05 11.4933 0 11.7089V55.0875C0 55.2662 0.0480614 55.4414 0.140487 55.595C0.187563 55.6733 1.3265 57.5297 3.76728 57.9253C6.06634 58.2995 8.6698 57.2648 11.4857 54.8501C13.8762 52.801 15.0731 52.5567 15.4004 52.7389C15.7969 52.955 15.8913 54.1728 15.7836 54.948C15.7518 55.1723 15.7982 55.4005 15.9145 55.595C15.9616 55.6733 17.1005 57.5297 19.5413 57.9253C21.8433 58.2995 24.4438 57.2648 27.2597 54.8501C29.6502 52.801 30.8471 52.5567 31.1744 52.7389C31.571 52.955 31.6654 54.1728 31.5576 54.948C31.5259 55.1723 31.5722 55.4005 31.6885 55.595C31.7356 55.6733 32.8745 57.5297 35.3153 57.9253C35.6214 57.9754 35.9335 58 36.2502 58C38.3144 58 40.5922 56.9439 43.0337 54.8504C45.4242 52.8012 46.6201 52.557 46.9484 52.7391C47.1389 52.8431 47.2604 53.1786 47.3221 53.5855V55.088C47.3221 55.6056 47.7216 56.0349 48.2377 56.0714C48.7691 56.1027 49.211 55.7386 49.2842 55.2275C49.3064 55.0692 49.2938 11.7735 49.2938 11.7735ZM47.3221 31.0701C45.9615 30.7339 44.1682 31.5645 41.7514 33.6356C39.4447 35.6125 37.3341 36.5254 35.6658 36.2669C34.8421 36.1429 34.0912 35.7245 33.5523 35.0892C33.5827 34.6478 33.5718 34.2044 33.5198 33.7649V25.734C34.0154 26.0174 34.6035 26.2622 35.3153 26.3775C35.6214 26.4276 35.9335 26.4522 36.2502 26.4522C38.3144 26.4522 40.5922 25.3961 43.0337 23.3026C45.4242 21.2539 46.6201 21.0097 46.9484 21.1913C47.1404 21.2961 47.2604 21.6372 47.3221 22.0476V31.0701ZM31.548 31.0701C30.188 30.7339 28.3942 31.5645 25.9773 33.6356C23.6706 35.6125 21.5611 36.5254 19.8918 36.2669C19.068 36.1429 18.3172 35.7245 17.7783 35.0892C17.8087 34.6478 17.7978 34.2044 17.7458 33.7649V25.734C18.2414 26.0174 18.8295 26.2622 19.5413 26.3775C19.8474 26.4276 20.1594 26.4522 20.4762 26.4522C22.5403 26.4522 24.8182 25.3961 27.2597 23.3026C29.6502 21.2539 30.8471 21.0097 31.1744 21.1913C31.3664 21.2961 31.4864 21.6372 31.548 22.0476V31.0701ZM15.774 31.0701C14.4133 30.7339 12.6195 31.5645 10.2033 33.6356C7.89662 35.6125 5.78808 36.5254 4.11776 36.2669C3.27696 36.1403 2.51264 35.7073 1.97175 35.0513V25.7338C2.4674 26.0172 3.05548 26.2619 3.76728 26.3773C4.07339 26.4273 4.38542 26.452 4.70214 26.452C6.76631 26.452 9.04418 25.3959 11.4857 23.3023C13.8762 21.2537 15.0731 21.0094 15.4004 21.1911C15.5924 21.2958 15.7124 21.637 15.774 22.0473V31.0701ZM1.97175 37.5643C2.4674 37.8477 3.05548 38.0925 3.76728 38.2078C4.07339 38.2578 4.38542 38.2825 4.70214 38.2825C6.76631 38.2825 9.04418 37.2264 11.4857 35.1329C13.8762 33.0837 15.0731 32.8409 15.4004 33.0216C15.5924 33.1264 15.7124 33.4675 15.774 33.8778V47.8302C14.4133 47.4943 12.6195 48.3241 10.2033 50.3954C7.89662 52.3724 5.78808 53.2823 4.11776 53.0267C3.27705 52.9004 2.51272 52.4677 1.97175 51.8119V37.5643ZM17.7132 50.319C17.7226 50.2646 17.7458 50.2153 17.7458 50.1581V37.5643C18.2414 37.8477 18.8295 38.0925 19.5413 38.2078C19.8474 38.2578 20.1594 38.2825 20.4762 38.2825C22.5403 38.2825 24.8182 37.2264 27.2597 35.1329C29.6502 33.0837 30.8471 32.8409 31.1744 33.0216C31.3664 33.1264 31.4864 33.4675 31.548 33.8778V47.8304C30.188 47.4948 28.3942 48.3246 25.9773 50.3957C23.6706 52.3726 21.5611 53.2826 19.8918 53.027C19.0689 52.9024 18.3186 52.4851 17.7785 51.8518C17.8042 51.4782 17.8086 50.912 17.7132 50.319ZM33.4873 50.319C33.4966 50.2646 33.5198 50.2153 33.5198 50.1581V37.5643C34.0154 37.8477 34.6035 38.0925 35.3153 38.2078C35.6214 38.2578 35.9335 38.2825 36.2502 38.2825C38.3144 38.2825 40.5922 37.2264 43.0337 35.1329C45.4242 33.0837 46.6201 32.8409 46.9484 33.0216C47.1404 33.1264 47.2604 33.4675 47.3221 33.8778V47.8302C45.9615 47.4945 44.1682 48.3241 41.7514 50.3954C39.4447 52.3724 37.3341 53.2823 35.6658 53.0267C34.8429 52.9021 34.0926 52.4849 33.5526 51.8516C33.5782 51.4782 33.5826 50.912 33.4873 50.319ZM35.3153 14.5468C37.6163 14.9217 40.2178 13.8862 43.0337 11.4716C45.4242 9.42244 46.6201 9.18016 46.9484 9.36033C47.345 9.57648 47.4394 10.7943 47.3317 11.5719C47.3251 11.6174 47.3219 11.6632 47.3221 11.7092V19.24C45.9615 18.9044 44.1682 19.734 41.7514 21.8053C39.4447 23.7822 37.3341 24.6922 35.6658 24.4366C34.8421 24.3126 34.0912 23.8942 33.5523 23.259C33.5827 22.8175 33.5718 22.3741 33.5198 21.9347V13.9032C34.0154 14.1869 34.6035 14.4314 35.3153 14.5468ZM19.5413 14.5468C21.8433 14.9217 24.4438 13.8862 27.2597 11.4716C29.6502 9.42244 30.8471 9.18016 31.1744 9.36033C31.571 9.57648 31.6654 10.7943 31.5576 11.5694C31.5537 11.5963 31.5616 11.6227 31.5601 11.6495C31.5586 11.6702 31.548 11.688 31.548 11.7089V19.2398C30.188 18.9041 28.3942 19.734 25.9773 21.805C23.6706 23.782 21.5611 24.6919 19.8918 24.4363C19.068 24.3123 18.3172 23.894 17.7783 23.2587C17.8087 22.8172 17.7978 22.3739 17.7458 21.9344V13.9032C18.2414 14.1869 18.8295 14.4314 19.5413 14.5468ZM3.76728 14.5468C6.06634 14.9217 8.6698 13.8862 11.4857 11.4716C13.8762 9.42244 15.0731 9.18016 15.4004 9.36033C15.7969 9.57648 15.8913 10.7943 15.7836 11.5694C15.7797 11.5963 15.7876 11.6227 15.7861 11.6495C15.7846 11.6702 15.774 11.688 15.774 11.7089V19.2398C14.4133 18.9039 12.6195 19.7337 10.2033 21.805C7.89662 23.782 5.78808 24.6919 4.11776 24.4363C3.27696 24.3097 2.51264 23.8768 1.97175 23.2208V13.9158C2.46469 14.1958 3.06164 14.4322 3.76728 14.5468ZM10.2033 53.3531C7.89662 55.33 5.78808 56.2429 4.11776 55.9844C3.27736 55.8573 2.51331 55.4249 1.97175 54.7698V54.3242C2.4674 54.6076 3.05548 54.8523 3.76728 54.9677C6.06634 55.3431 8.6698 54.3077 11.4857 51.8925C13.8762 49.8438 15.0731 49.5991 15.4004 49.7812C15.6158 49.8986 15.7395 50.3136 15.7925 50.7905C14.4298 50.4433 12.6301 51.2724 10.2033 53.3531ZM25.9773 53.3531C23.6706 55.33 21.5611 56.2429 19.8918 55.9844C19.0689 55.8598 18.3186 55.4425 17.7785 54.8092C17.7874 54.6793 17.7928 54.5223 17.7941 54.3532C18.2799 54.6244 18.8534 54.8563 19.5413 54.9677C21.8433 55.3431 24.4438 54.3077 27.2597 51.8925C29.6502 49.8438 30.8471 49.5991 31.1744 49.7812C31.3898 49.8986 31.5135 50.3136 31.5665 50.7903C30.2045 50.4433 28.4048 51.2726 25.9773 53.3531ZM41.7514 53.3531C39.4447 55.33 37.3341 56.2429 35.6658 55.9844C34.8429 55.8598 34.0926 55.4425 33.5526 54.8092C33.5614 54.6793 33.5669 54.5223 33.5681 54.3532C34.0539 54.6244 34.6274 54.8563 35.3153 54.9677C35.6214 55.0177 35.9335 55.0424 36.2502 55.0424C38.3144 55.0424 40.5922 53.9863 43.0337 51.8927C45.4242 49.8441 46.6201 49.5994 46.9484 49.7815C47.1404 49.8862 47.2604 50.2274 47.3221 50.638V50.7859C45.9615 50.4484 44.167 51.2827 41.7514 53.3531Z" fill="white"/>
<path d="M45.3502 15.653C45.8951 15.653 46.3361 15.2116 46.3361 14.6671V11.7095C46.3361 11.1651 45.8951 10.7236 45.3502 10.7236C44.8053 10.7236 44.3643 11.1651 44.3643 11.7095V14.6671C44.3643 15.2116 44.8053 15.653 45.3502 15.653ZM13.8022 39.314C14.3471 39.314 14.788 38.8726 14.788 38.3282V35.3705C14.788 34.8261 14.3471 34.3847 13.8022 34.3847C13.2572 34.3847 12.8163 34.8261 12.8163 35.3705V38.3282C12.8163 38.8726 13.2572 39.314 13.8022 39.314Z" fill="white"/>
</svg>
