<svg width="58" height="58" viewBox="0 0 58 58" fill="none" xmlns="http://www.w3.org/2000/svg">
<path d="M20.4711 22.3981C20.9718 22.3981 21.3773 22.8037 21.3773 23.3044V29.0002C21.3773 29.5009 20.9718 29.9064 20.4711 29.9064C19.9704 29.9064 19.5648 29.5009 19.5648 29.0002V23.3044C19.5648 22.8037 19.9704 22.3981 20.4711 22.3981ZM4.80086 23.3044V29.0002C4.80086 29.5009 5.20641 29.9064 5.70711 29.9064C6.20781 29.9064 6.61336 29.5009 6.61336 29.0002V23.3044C6.61336 22.8037 6.20781 22.3981 5.70711 22.3981C5.20641 22.3981 4.80086 22.8037 4.80086 23.3044ZM0.90625 29.9064C0.405547 29.9064 0 29.5009 0 29.0002V22.8558C0 18.3336 3.42336 14.5693 7.81754 14.0266C6.61109 12.7375 5.87023 11.0077 5.87023 9.10797C5.87023 5.1318 9.10895 1.89648 13.0896 1.89648C17.0726 1.89648 20.3125 5.1318 20.3125 9.10797C20.3125 11.0088 19.5716 12.7386 18.364 14.0278C22.7593 14.5727 26.1793 18.3359 26.1793 22.8569V29.0002C26.1793 29.5009 25.7738 29.9064 25.273 29.9064C24.7723 29.9064 24.3668 29.5009 24.3668 29.0002V22.8558C24.3668 18.9804 21.2108 15.8018 17.3309 15.77H15.8503C14.9996 16.1223 14.0673 16.3183 13.0908 16.3183C12.1143 16.3183 11.1831 16.1223 10.3324 15.77H8.84387C4.96965 15.8018 1.8125 18.9793 1.8125 22.8558V29.0002C1.8125 29.5009 1.40695 29.9064 0.90625 29.9064ZM7.68273 9.10684C7.68273 12.0839 10.1081 14.5058 13.0896 14.5058C16.0723 14.5058 18.5 12.0839 18.5 9.10684C18.5 6.1298 16.0735 3.70785 13.0896 3.70785C10.1081 3.70785 7.68273 6.1298 7.68273 9.10684ZM37.5289 48.5967C37.0282 48.5967 36.6227 49.0022 36.6227 49.5029V55.1987C36.6227 55.6994 37.0282 56.105 37.5289 56.105C38.0296 56.105 38.4352 55.6994 38.4352 55.1987V49.5029C38.4352 49.0022 38.0296 48.5967 37.5289 48.5967ZM52.2895 48.5967C51.7888 48.5967 51.3832 49.0022 51.3832 49.5029V55.1987C51.3832 55.6994 51.7888 56.105 52.2895 56.105C52.7902 56.105 53.1957 55.6994 53.1957 55.1987V49.5029C53.1957 49.0022 52.7902 48.5967 52.2895 48.5967ZM58 49.0532V55.1976C58 55.6983 57.5945 56.1038 57.0938 56.1038C56.593 56.1038 56.1875 55.6983 56.1875 55.1976V49.0532C56.1875 45.1778 53.0303 41.9992 49.1482 41.9675H47.6687C46.7943 42.33 45.8569 42.5163 44.9104 42.5157C43.9327 42.5157 43.0016 42.3198 42.1508 41.9675H40.6623C36.7881 41.9992 33.6309 45.1778 33.6309 49.0532V55.1976C33.6309 55.6983 33.2254 56.1038 32.7247 56.1038C32.224 56.1038 31.8184 55.6983 31.8184 55.1976V49.0532C31.8184 44.5299 35.2418 40.7655 39.636 40.2241C38.4284 38.9349 37.6875 37.2051 37.6875 35.3054C37.6875 31.3292 40.9274 28.0939 44.9104 28.0939C48.8911 28.0939 52.1298 31.3292 52.1298 35.3054C52.1298 37.2062 51.3889 38.9361 50.1813 40.2252C54.5789 40.7701 58 44.5333 58 49.0532ZM44.9115 40.7044C47.893 40.7044 50.3184 38.2824 50.3184 35.3054C50.3184 32.3284 47.893 29.9064 44.9115 29.9064C41.9288 29.9064 39.5012 32.3284 39.5012 35.3054C39.5012 38.2824 41.9277 40.7044 44.9115 40.7044ZM33.8802 18.2781H31.6814C30.5429 18.2781 29.6163 17.3526 29.6163 16.2141V7.94004C29.6163 6.80156 30.5429 5.87605 31.6814 5.87605H55.6007C56.7392 5.87605 57.6658 6.80156 57.6658 7.94004V16.2141C57.6658 17.3526 56.7392 18.2781 55.6007 18.2781H41.9571L35.3528 23.5785C35.1918 23.7076 34.9916 23.7779 34.7853 23.7779C34.545 23.7776 34.3147 23.682 34.1448 23.5121C33.9749 23.3422 33.8793 23.1119 33.879 22.8716V18.2781H33.8802ZM34.7864 16.4656C35.2871 16.4656 35.6927 16.8711 35.6927 17.3718V20.9821L41.0713 16.665C41.2322 16.5359 41.4324 16.4655 41.6388 16.4656H55.6007C55.7378 16.4656 55.8533 16.35 55.8533 16.2141V7.94004C55.8533 7.8041 55.7378 7.68855 55.6007 7.68855H31.6814C31.542 7.68855 31.4288 7.80184 31.4288 7.94004V16.2141C31.4288 16.3478 31.5466 16.4656 31.6814 16.4656H34.7864ZM41.2729 12.9833H52.3099C52.8106 12.9833 53.2161 12.5778 53.2161 12.0771C53.2161 11.5764 52.8106 11.1708 52.3099 11.1708H41.2729C40.7722 11.1708 40.3666 11.5764 40.3666 12.0771C40.3666 12.5778 40.7722 12.9833 41.2729 12.9833ZM37.4157 12.9833C37.9164 12.9833 38.3219 12.5778 38.3219 12.0771C38.3219 11.5764 37.9164 11.1708 37.4157 11.1708H34.9722C34.4715 11.1708 34.0659 11.5764 34.0659 12.0771C34.0659 12.5778 34.4715 12.9833 34.9722 12.9833H37.4157ZM28.3837 36.2864V44.5605C28.3837 45.6989 27.4571 46.6245 26.3186 46.6245H24.1198V51.218C24.1198 51.3888 24.0715 51.556 23.9805 51.7005C23.8895 51.8451 23.7595 51.9609 23.6055 52.0348C23.4809 52.0948 23.3473 52.1243 23.2136 52.1243C23.0108 52.1243 22.8103 52.0563 22.6461 51.9249L16.0418 46.6245H2.3993C1.26082 46.6245 0.33418 45.6989 0.33418 44.5605V36.2864C0.33418 35.1479 1.26082 34.2224 2.3993 34.2224H26.3186C27.4582 34.2224 28.3837 35.1479 28.3837 36.2864ZM26.5712 36.2864C26.5712 36.1505 26.4557 36.0349 26.3186 36.0349H2.3993C2.26223 36.0349 2.14668 36.1505 2.14668 36.2864V44.5605C2.14668 44.6964 2.26223 44.812 2.3993 44.812H16.3612C16.5674 44.812 16.7679 44.8822 16.9288 45.0113L22.3073 49.3285V45.7182C22.3073 45.2175 22.7129 44.812 23.2136 44.812H26.3186C26.4534 44.812 26.5712 44.6941 26.5712 44.5605V36.2864ZM16.7271 39.5172H5.69125C5.19055 39.5172 4.785 39.9227 4.785 40.4234C4.785 40.9241 5.19055 41.3297 5.69125 41.3297H16.7271C17.2278 41.3297 17.6334 40.9241 17.6334 40.4234C17.6334 39.9227 17.2278 39.5172 16.7271 39.5172ZM23.0278 39.5172H20.5843C20.0836 39.5172 19.6781 39.9227 19.6781 40.4234C19.6781 40.9241 20.0836 41.3297 20.5843 41.3297H23.0278C23.5285 41.3297 23.9341 40.9241 23.9341 40.4234C23.9341 39.9227 23.5274 39.5172 23.0278 39.5172Z" fill="black"/>
</svg>
