<svg width="56" height="56" viewBox="0 0 56 56" fill="none" xmlns="http://www.w3.org/2000/svg">
<mask id="mask0_137_2299" style="mask-type:luminance" maskUnits="userSpaceOnUse" x="-1" y="0" width="57" height="57">
<path d="M54.9995 55.001V0.999516H0.998047V55.001H54.9995Z" fill="white" stroke="white" stroke-width="2"/>
</mask>
<g mask="url(#mask0_137_2299)">
<path d="M30.3952 20.5078L31.2501 19.6547L33.4874 17.4224C34.642 16.2704 34.642 14.3836 33.4874 13.2317C32.3329 12.0796 30.442 12.0796 29.2874 13.2317L26.1952 16.3171" stroke="black" stroke-width="2" stroke-miterlimit="10" stroke-linecap="round" stroke-linejoin="round"/>
<path d="M44.7802 26.5883C43.7692 25.5796 42.1123 25.5796 41.1013 26.5883L37.1727 30.5113C36.1617 31.5201 36.1617 33.1703 37.1727 34.179C38.1836 35.1877 39.8375 35.1877 40.8486 34.179L44.7802 30.256C45.7913 29.2473 45.7913 27.5971 44.7802 26.5883Z" stroke="black" stroke-width="2" stroke-miterlimit="10" stroke-linecap="round" stroke-linejoin="round"/>
<path d="M37.2944 22.0049L37.7218 21.5784C38.842 20.4233 38.8296 18.5645 37.6875 17.4218C36.533 16.2699 34.642 16.2699 33.4874 17.4218L31.9397 18.9661" stroke="black" stroke-width="2" stroke-miterlimit="10" stroke-linecap="round" stroke-linejoin="round"/>
<path d="M36.8357 46.5511C36.7765 45.1406 37.0448 43.7147 37.6471 42.4102L24.0733 28.8635M39.6847 34.8476L42.4556 37.6123C45.7695 36.0929 49.8415 36.6908 52.5625 39.4056C54.7344 41.5726 55.5551 44.5989 55.0216 47.4135C54.4629 50.3681 52.9028 48.1327 52.5844 47.8151L48.7743 44.0136C47.442 42.6841 45.2983 42.6281 43.8973 43.8485C42.674 45.2465 42.7302 47.3855 44.0626 48.715L47.8726 52.5165C48.1909 52.834 50.4314 54.3908 47.4701 54.9481C44.6493 55.4806 41.6162 54.6616 39.4445 52.4946C38.785 51.835 38.2322 51.0767 37.8063 50.2468M21.7518 16.9576L18.3504 13.5607C19.8732 10.2542 19.274 6.19118 16.553 3.47631C14.3813 1.30931 11.3484 0.490403 8.52744 1.02285C5.56615 1.58013 7.80664 3.13691 8.12493 3.45443L11.935 7.25597C13.2673 8.58546 13.3236 10.7244 12.1004 12.1223C10.6993 13.3428 8.55556 13.2867 7.22322 11.9574L3.41315 8.15582C3.09486 7.83819 1.5347 5.60272 0.975999 8.55746C0.442564 11.3721 1.26312 14.3983 3.43503 16.5653C6.15602 19.2802 10.2281 19.8781 13.542 18.3587L17.1429 21.9515" stroke="black" stroke-width="2" stroke-miterlimit="10" stroke-linecap="round" stroke-linejoin="round"/>
<path d="M15.7731 43.0833L20.4787 47.7783C21.2058 48.5038 21.2058 49.69 20.4787 50.4155L16.2943 54.5907C15.5672 55.3161 14.3784 55.3161 13.6513 54.5907L2.09642 43.0615C1.36939 42.336 1.36939 41.1498 2.09642 40.4243L6.28089 36.2493C7.00793 35.5238 8.19675 35.5238 8.9239 36.2493L13.0616 40.3777" stroke="black" stroke-width="2" stroke-miterlimit="10" stroke-linecap="round" stroke-linejoin="round"/>
<path d="M20.4785 47.7783L26.0515 42.2177C28.1391 40.1348 28.5447 40.5831 31.0099 40.935C32.1145 41.0937 33.6903 40.5052 34.9572 39.7269" stroke="black" stroke-width="2" stroke-miterlimit="10" stroke-linecap="round" stroke-linejoin="round"/>
<path d="M41.1013 22.3973C39.9467 21.2453 38.0558 21.2453 36.9013 22.3973L33.8214 25.4703C32.6637 26.6254 32.6637 28.509 33.8214 29.661C34.976 30.8161 36.8669 30.8161 38.0215 29.661L41.1013 26.588C42.259 25.4361 42.259 23.5493 41.1013 22.3973Z" stroke="black" stroke-width="2" stroke-miterlimit="10" stroke-linecap="round" stroke-linejoin="round"/>
<path d="M34.2021 25.0935C34.2865 24.2747 32.9322 23.0386 31.5404 21.6499L25.4214 15.5445C24.8035 14.928 23.7862 14.928 23.1654 15.5476L18.1133 20.5883C16.9651 21.734 16.4501 23.4185 16.5407 24.9316C16.6811 27.248 15.6013 29.5893 12.3999 32.7807L8.92383 36.249M24.0578 22.5653C24.1107 22.6213 26.1796 24.6825 26.2327 24.7355C27.8708 26.3171 31.1753 27.6807 33.3066 26.1614" stroke="black" stroke-width="2" stroke-miterlimit="10" stroke-linecap="round" stroke-linejoin="round"/>
<path d="M24.0578 22.565C25.8831 24.3863 25.3776 27.8423 22.9313 30.2832" stroke="black" stroke-width="2" stroke-miterlimit="10" stroke-linecap="round" stroke-linejoin="round"/>
</g>
</svg>
