<svg width="58" height="58" viewBox="0 0 58 58" fill="none" xmlns="http://www.w3.org/2000/svg">
<g clip-path="url(#clip0_137_1891)">
<path fill-rule="evenodd" clip-rule="evenodd" d="M53.3566 33.6823C52.8627 32.6232 52.1935 31.7419 51.3988 31.1144C52.1935 30.4862 52.8627 29.6035 53.3566 28.5457C53.8513 29.6049 54.5211 30.4862 55.3159 31.1144C54.521 31.7419 53.8513 32.6232 53.3566 33.6823ZM57.3958 30.2786C55.7728 29.7504 54.5003 27.6811 54.2312 25.1285C54.1219 24.0899 52.593 24.0887 52.4826 25.1285C52.2128 27.6798 50.9403 29.7504 49.3173 30.2786C48.512 30.5396 48.5117 31.6865 49.3173 31.9493C50.9403 32.4782 52.2128 34.5475 52.4826 37.0993C52.593 38.1399 54.1218 38.1387 54.2312 37.0993C54.5003 34.5473 55.7728 32.4782 57.3958 31.9493C58.2036 31.6857 58.1994 30.538 57.3958 30.2786ZM9.3423 17.9581C10.0089 19.5777 10.9921 20.8986 12.1862 21.7584C10.9921 22.6195 10.0089 23.9405 9.3423 25.5594C8.67587 23.9405 7.69114 22.6195 6.49707 21.7584C7.69114 20.8986 8.67587 19.5778 9.3423 17.9581ZM4.32516 22.5941C6.45412 23.2882 8.11881 25.9723 8.46846 29.2751C8.5781 30.3147 10.1057 30.3152 10.2156 29.2751C10.5659 25.9723 12.2312 23.288 14.3589 22.5941C15.1641 22.332 15.1647 21.1864 14.3589 20.9235C12.2312 20.2295 10.5659 17.5447 10.2156 14.2425C10.1926 14.0268 10.0908 13.8273 9.92955 13.6822C9.76834 13.5371 9.55919 13.4567 9.3423 13.4565C9.12533 13.4566 8.91606 13.5369 8.75474 13.682C8.59343 13.8271 8.49146 14.0267 8.46846 14.2425C8.11812 17.5448 6.45288 20.2296 4.32516 20.9235C3.51691 21.1871 3.51995 22.3333 4.32516 22.5941ZM20.9406 6.57138C21.4352 7.63054 22.1051 8.51184 22.8998 9.14002C22.1051 9.76764 21.4352 10.6488 20.9406 11.708C20.446 10.6488 19.7775 9.7675 18.9827 9.14002C19.7773 8.51184 20.446 7.62916 20.9406 6.57138ZM16.9013 9.97506C18.5243 10.5039 19.7968 12.5732 20.0666 15.125C20.177 16.1653 21.7055 16.1646 21.815 15.125C22.0855 12.5732 23.3568 10.5039 24.9796 9.97506C25.7854 9.71227 25.785 8.56569 24.9796 8.30442C23.3567 7.77553 22.0855 5.70554 21.815 3.1543C21.7055 2.11558 20.1768 2.11489 20.0666 3.1543C19.7968 5.70554 18.5243 7.77553 16.9013 8.30442C16.0959 8.56569 16.0957 9.71185 16.9013 9.97506ZM31.7072 53.8665H29.2943V51.4529H31.7072V53.8665ZM31.9226 49.6949H29.0788C28.2277 49.6949 27.5363 50.3862 27.5363 51.2367V54.0819C27.5363 54.9317 28.2276 55.6244 29.0788 55.6244H31.9226C32.773 55.6244 33.4644 54.9317 33.4644 54.0819V51.2367C33.4644 50.3863 32.773 49.6949 31.9226 49.6949ZM23.9603 46.1195H21.5467V43.706H23.9603V46.1195ZM24.1757 41.9486H21.3304C20.4813 41.9486 19.7886 42.6392 19.7886 43.4904V46.3343C19.7886 47.1853 20.4813 47.8773 21.3304 47.8773H24.1757C25.0267 47.8773 25.718 47.1853 25.718 46.3343V43.4904C25.7182 42.6394 25.0267 41.9486 24.1757 41.9486ZM31.7072 46.1195H29.2943V43.706H31.7072V46.1195ZM31.9226 41.9486H29.0788C28.2277 41.9486 27.5363 42.6392 27.5363 43.4904V46.3343C27.5363 47.1853 28.2276 47.8773 29.0788 47.8773H31.9226C32.773 47.8773 33.4644 47.1853 33.4644 46.3343V43.4904C33.4644 42.6394 32.773 41.9486 31.9226 41.9486ZM23.9603 53.8665H21.5467V51.4529H23.9603V53.8665ZM24.1757 49.6949H21.3304C20.4813 49.6949 19.7886 50.3862 19.7886 51.2367V54.0819C19.7886 54.9317 20.4813 55.6244 21.3304 55.6244H24.1757C25.0267 55.6244 25.718 54.9317 25.718 54.0819V51.2367C25.7182 50.3863 25.0267 49.6949 24.1757 49.6949ZM51.4974 51.7287V48.3097L26.6269 23.4405L1.75777 48.3095V51.7285H5.68896L26.0059 31.4128C26.0875 31.3311 26.1843 31.2663 26.2909 31.2221C26.3975 31.1779 26.5117 31.1551 26.6271 31.1551C26.7425 31.1551 26.8568 31.1779 26.9634 31.2221C27.07 31.2663 27.1668 31.3311 27.2484 31.4128L47.5648 51.7285H51.4974V51.7287ZM40.036 21.1893H42.5577V36.8852L40.036 34.3622V21.1893ZM35.7424 15.3876H30.4205C29.7104 15.3876 27.9302 15.5145 26.3262 15.9782C27.3068 13.8572 28.7096 13.0585 31.1326 13.0585H44.2484C44.5283 14.6996 45.7485 15.556 46.9104 15.556C48.0742 15.556 49.2944 14.6996 49.5743 13.0585H51.5328L51.5389 19.4316H49.5743C49.2944 17.7898 48.0742 16.9347 46.9104 16.9347C45.7485 16.9347 44.5283 17.7898 44.2484 19.4316H37.8868V17.5321C37.8869 16.35 36.9251 15.3876 35.7424 15.3876ZM44.3156 38.643V21.1893H44.7103C45.0284 21.1895 45.3344 21.0676 45.5651 20.8486C45.7958 20.6296 45.9335 20.3304 45.9499 20.0128C46.0412 18.247 47.7827 18.2505 47.8729 20.0128C47.889 20.3303 48.0265 20.6295 48.257 20.8485C48.4875 21.0675 48.7933 21.1895 49.1113 21.1893H51.5391C52.5049 21.1893 53.2909 20.404 53.2909 19.4375V13.0524C53.2909 12.0866 52.5049 11.3006 51.5391 11.3006H49.1113C48.7933 11.3004 48.4875 11.4224 48.257 11.6414C48.0265 11.8604 47.889 12.1596 47.8729 12.4771C47.7827 14.2403 46.0412 14.2437 45.9499 12.4771C45.9335 12.1595 45.7958 11.8603 45.5651 11.6413C45.3344 11.4224 45.0284 11.3004 44.7103 11.3006H31.1327C26.3437 11.3006 24.8228 14.3639 23.9663 17.3588C23.7379 18.1556 24.6514 18.7969 25.3228 18.3145C26.5671 17.4218 29.495 17.1453 30.4206 17.1453H35.7425C35.845 17.1453 35.9434 17.1861 36.0159 17.2586C36.0884 17.3311 36.1292 17.4294 36.1292 17.532V20.3101C36.1291 20.4255 36.1517 20.5398 36.1959 20.6465C36.24 20.7532 36.3047 20.8501 36.3863 20.9317C36.4679 21.0134 36.5647 21.0781 36.6714 21.1223C36.778 21.1665 36.8923 21.1893 37.0077 21.1893H38.2783V32.6044L27.2485 21.576C26.9055 21.233 26.3484 21.233 26.0061 21.576L0.257679 47.3242C0.176016 47.4057 0.111222 47.5025 0.0670056 47.609C0.0227895 47.7155 1.95829e-05 47.8298 1.08537e-08 47.9451V52.6079C-1.81254e-05 52.7233 0.0226929 52.8375 0.0668354 52.9441C0.110978 53.0508 0.175687 53.1476 0.257269 53.2292C0.338851 53.3108 0.435706 53.3755 0.542305 53.4197C0.648903 53.4639 0.763155 53.4866 0.878538 53.4866H6.05338C6.28634 53.4866 6.51046 53.3939 6.67424 53.2288L26.6268 33.2769L46.5801 53.2288C46.6616 53.3106 46.7584 53.3755 46.8651 53.4197C46.9718 53.4639 47.0861 53.4867 47.2016 53.4866H52.3759C52.4913 53.4866 52.6055 53.4639 52.7121 53.4197C52.8187 53.3755 52.9156 53.3108 52.9972 53.2292C53.0787 53.1476 53.1435 53.0508 53.1876 52.9441C53.2317 52.8375 53.2545 52.7233 53.2544 52.6079V47.9451C53.2544 47.7121 53.1618 47.4894 52.9967 47.3242L44.3156 38.643Z" fill="#393939"/>
</g>
<defs>
<clipPath id="clip0_137_1891">
<rect width="58" height="58" fill="white"/>
</clipPath>
</defs>
</svg>
