<svg width="55" height="51" viewBox="0 0 55 51" fill="none" xmlns="http://www.w3.org/2000/svg">
<path d="M41.5544 25.2565L24.8536 12.9605C24.671 12.8262 24.4503 12.7538 24.2237 12.7539C23.997 12.754 23.7764 12.8265 23.5938 12.9608L6.89273 25.2652C6.67825 25.4231 6.53094 25.6559 6.48003 25.9173C6.42912 26.1787 6.47832 26.4498 6.61789 26.6766L8.99849 30.5477C9.07487 30.6719 9.17598 30.779 9.29555 30.8624C9.41511 30.9458 9.55056 31.0038 9.69347 31.0326C9.83638 31.061 9.9836 31.0599 10.1261 31.0293C10.2685 30.9987 10.4032 30.9393 10.5218 30.8547L10.6698 30.7485V43.5523C10.6698 44.1387 11.1451 44.6143 11.7319 44.6143H36.716C37.3024 44.6143 37.778 44.1387 37.778 43.5523V30.7372L37.915 30.8354C38.0333 30.92 38.1677 30.9794 38.3099 31.01C38.4521 31.0406 38.599 31.0417 38.7417 31.0133C38.8843 30.9847 39.0195 30.9272 39.139 30.8443C39.2585 30.7614 39.3597 30.6549 39.4364 30.5314L41.8279 26.6714C42.1193 26.2004 42.0004 25.5847 41.5544 25.2565ZM21.6199 42.4903V30.2297H26.8276V42.4903H21.6199ZM35.6537 42.4903H28.9516V29.1677C28.9516 28.5816 28.4765 28.1057 27.8896 28.1057H20.5578C19.971 28.1057 19.4958 28.5816 19.4958 29.1677V42.4903H12.7939V29.2258L24.2241 21.0313L35.654 29.2162V42.4903H35.6537ZM38.2287 28.4471L24.8417 18.8617C24.6613 18.7325 24.4451 18.6632 24.2233 18.6633C24.0015 18.6634 23.7853 18.733 23.6051 18.8624L10.2105 28.4641L8.93876 26.3958L24.2241 15.1346L39.5061 26.386L38.2287 28.4471Z" fill="#393939"/>
<path d="M53.5351 7.01953H19.1413L12.6557 0.533613C12.557 0.435002 12.44 0.356787 12.3111 0.303432C12.1822 0.250078 12.0441 0.22263 11.9046 0.222656H1.28418C0.697439 0.222656 0.222168 0.697928 0.222168 1.28467V45.8891C0.222168 48.3488 2.223 50.3496 4.68262 50.3496H50.135C52.5956 50.3496 54.5971 48.3477 54.5971 45.8874V8.08154C54.5971 7.4948 54.1219 7.01953 53.5351 7.01953ZM52.4731 45.8874C52.4731 47.1768 51.4244 48.2256 50.135 48.2256C48.8456 48.2256 47.7969 47.1768 47.7969 45.8874V20.8257C47.7969 20.2389 47.3211 19.7637 46.7349 19.7637C46.1482 19.7637 45.6729 20.2389 45.6729 20.8257V45.8874C45.6719 46.7135 45.9018 47.5233 46.3367 48.2256H4.68262C3.39427 48.2256 2.34619 47.1775 2.34619 45.8891V2.34668H11.4645L17.9508 8.83225C18.0493 8.9309 18.1664 9.00917 18.2952 9.06258C18.424 9.116 18.5621 9.14351 18.7015 9.14355H45.6729V12.3296C45.6729 12.916 46.1481 13.3916 46.7349 13.3916C47.3209 13.3916 47.7969 12.916 47.7969 12.3296V9.14355H52.4731V45.8874Z" fill="#393939"/>
</svg>
