<svg width="58" height="58" viewBox="0 0 58 58" fill="none" xmlns="http://www.w3.org/2000/svg">
<g clip-path="url(#clip0_137_1857)">
<path d="M26.5892 6.8125H12.1686C11.294 6.8125 10.5825 7.52402 10.5825 8.39855V26.4089C10.5825 27.2834 11.294 27.995 12.1686 27.995H26.5892C27.4637 27.995 28.1752 27.2834 28.1752 26.4089V8.39855C28.1752 7.52402 27.4637 6.8125 26.5892 6.8125ZM26.5244 26.344H12.2334V8.46335H26.5244V26.344ZM26.5892 29.865H12.1686C11.294 29.865 10.5825 30.5765 10.5825 31.4511V49.4613C10.5825 50.336 11.294 51.0474 12.1686 51.0474H26.5892C27.4637 51.0474 28.1752 50.3358 28.1752 49.4613V31.4511C28.1752 30.5765 27.4637 29.865 26.5892 29.865ZM26.5244 49.3966H12.2334V31.516H26.5244V49.3966ZM45.8317 6.8125H31.4112C30.5366 6.8125 29.825 7.52402 29.825 8.39855V26.4089C29.825 27.2834 30.5366 27.995 31.4112 27.995H45.8317C46.7063 27.995 47.4178 27.2834 47.4178 26.4089V8.39855C47.4177 7.52402 46.7063 6.8125 45.8317 6.8125ZM45.7669 26.344H31.4759V8.46335H45.7669V26.344ZM45.8317 29.865H31.4112C30.5366 29.865 29.825 30.5765 29.825 31.4511V49.4613C29.825 50.336 30.5366 51.0474 31.4112 51.0474H45.8317C46.7063 51.0474 47.4178 50.3358 47.4178 49.4613V31.4511C47.4177 30.5765 46.7063 29.865 45.8317 29.865ZM45.7669 49.3966H31.4759V31.516H45.7669V49.3966Z" fill="#393939"/>
<path d="M55.9069 52.0642H54.2307V12.4713C54.2307 12.3629 54.2093 12.2556 54.1678 12.1554C54.1264 12.0553 54.0656 11.9643 53.9889 11.8876C53.9123 11.8109 53.8213 11.7501 53.7211 11.7087C53.6209 11.6672 53.5136 11.6458 53.4052 11.6458C53.2968 11.6458 53.1895 11.6672 53.0893 11.7087C52.9892 11.7501 52.8982 11.8109 52.8215 11.8876C52.7448 11.9643 52.684 12.0553 52.6426 12.1554C52.6011 12.2556 52.5797 12.3629 52.5797 12.4713V52.0642H50.6098V5.40063C50.6098 4.41939 49.8115 3.62109 48.8302 3.62109H9.16989C8.18865 3.62109 7.39036 4.41939 7.39036 5.40063V52.0642H5.42039V43.9259C5.42039 43.8175 5.39904 43.7101 5.35756 43.61C5.31607 43.5098 5.25527 43.4188 5.17862 43.3422C5.10196 43.2655 5.01096 43.2047 4.91081 43.1632C4.81066 43.1218 4.70332 43.1004 4.59491 43.1004C4.48651 43.1004 4.37917 43.1218 4.27902 43.1632C4.17886 43.2047 4.08786 43.2655 4.01121 43.3422C3.93456 43.4188 3.87375 43.5098 3.83227 43.61C3.79079 43.7101 3.76943 43.8175 3.76943 43.9259V52.0642H2.09332C1.18107 52.0642 0.438965 52.8065 0.438965 53.7186V56.346C0.438965 57.2583 1.18118 58.0004 2.09332 58.0004H55.9069C56.8192 58.0004 57.5613 57.2582 57.5613 56.346V53.7186C57.5613 52.8063 56.8192 52.0642 55.9069 52.0642ZM9.0412 5.40063C9.0412 5.32972 9.09886 5.27194 9.16989 5.27194H48.8303C48.9013 5.27194 48.959 5.3296 48.959 5.40063V52.0642H9.0412V5.40063ZM55.9085 56.3494L55.9069 56.3496L2.08981 56.346L2.09332 53.7151L55.9104 53.7186L55.9085 56.3494Z" fill="#393939"/>
<path d="M52.6732 0H5.32703C4.46825 0 3.76953 0.698605 3.76953 1.5575V40.007C3.76954 40.1154 3.7909 40.2227 3.83239 40.3229C3.87388 40.423 3.93469 40.514 4.01135 40.5907C4.08801 40.6673 4.17901 40.7281 4.27917 40.7696C4.37932 40.8111 4.48666 40.8324 4.59507 40.8324C4.70347 40.8324 4.81081 40.811 4.91096 40.7695C5.01111 40.728 5.10211 40.6672 5.17875 40.5906C5.2554 40.5139 5.3162 40.4229 5.35768 40.3228C5.39916 40.2226 5.4205 40.1153 5.42049 40.0069V1.65085H52.5799V8.54311C52.5799 8.76204 52.6669 8.972 52.8217 9.12681C52.9765 9.28162 53.1865 9.36859 53.4054 9.36859C53.6243 9.36859 53.8343 9.28162 53.9891 9.12681C54.1439 8.972 54.2309 8.76204 54.2309 8.54311V1.5575C54.2307 0.698605 53.5319 0 52.6732 0Z" fill="#393939"/>
</g>
<defs>
<clipPath id="clip0_137_1857">
<rect width="58" height="58" fill="white"/>
</clipPath>
</defs>
</svg>
