<svg width="57" height="57" viewBox="0 0 57 57" fill="none" xmlns="http://www.w3.org/2000/svg">
<path fill-rule="evenodd" clip-rule="evenodd" d="M32.9294 1.11328H36.0577C36.4526 1.11384 36.8312 1.27095 37.1104 1.55018C37.3897 1.8294 37.5468 2.20795 37.5474 2.60285V5.03671C39.0004 5.37243 40.3875 5.94729 41.6521 6.7378L43.3734 5.01645C43.6531 4.73768 44.0318 4.58115 44.4267 4.58115C44.8215 4.58115 45.2002 4.73768 45.4799 5.01645L47.692 7.22854C47.9707 7.50817 48.1273 7.88691 48.1273 8.28176C48.1273 8.6766 47.9707 9.05534 47.692 9.33497L45.9708 11.0562C46.7612 12.3208 47.3359 13.708 47.6716 15.161H50.1051C50.5 15.1617 50.8785 15.3189 51.1577 15.5981C51.4369 15.8773 51.5941 16.2558 51.5948 16.6507V19.779C51.5942 20.1739 51.4371 20.5525 51.1578 20.8317C50.8786 21.1109 50.5 21.268 50.1051 21.2686H47.6716C47.3362 22.7217 46.7614 24.1088 45.9707 25.3732L47.692 27.0945C47.9708 27.3741 48.1273 27.7529 48.1273 28.1478C48.1273 28.5426 47.9708 28.9214 47.692 29.201L45.4798 31.4131C45.2001 31.6919 44.8214 31.8484 44.4265 31.8484C44.0317 31.8484 43.653 31.6919 43.3733 31.4131L41.6521 29.6919C40.3877 30.4826 39.0005 31.0574 37.5474 31.3928V33.8263C37.5467 34.2211 37.3895 34.5996 37.1103 34.8788C36.8311 35.158 36.4526 35.3152 36.0577 35.316H32.9294C32.5345 35.3152 32.1561 35.158 31.8769 34.8788C31.5976 34.5996 31.4405 34.2211 31.4397 33.8263V31.3926C29.9868 31.0568 28.5996 30.4821 27.335 29.6919L25.6138 31.4131C25.3342 31.6919 24.9554 31.8484 24.5606 31.8484C24.1658 31.8484 23.787 31.6919 23.5074 31.4131L21.2952 29.2014C21.0164 28.9217 20.8599 28.543 20.8599 28.1481C20.8599 27.7533 21.0164 27.3746 21.2952 27.0949L23.0163 25.3738C22.2259 24.1092 21.6512 22.722 21.3156 21.269H18.8819C18.487 21.2684 18.1085 21.1113 17.8293 20.8321C17.5501 20.5529 17.3929 20.1743 17.3923 19.7794V16.6511C17.3929 16.2562 17.55 15.8777 17.8292 15.5984C18.1085 15.3192 18.487 15.162 18.8819 15.1614H21.3154C21.6511 13.7084 22.226 12.3213 23.0164 11.0568L21.2952 9.33509C21.0164 9.05545 20.8599 8.67671 20.8599 8.28187C20.8599 7.88702 21.0164 7.50828 21.2952 7.22865L23.5073 5.01645C23.7869 4.73768 24.1656 4.58115 24.5605 4.58115C24.9553 4.58115 25.3341 4.73768 25.6137 5.01645L27.3351 6.7378C28.5996 5.94735 29.9867 5.37253 31.4397 5.03682V2.60319C31.4402 2.20823 31.5973 1.82959 31.8766 1.5503C32.1558 1.271 32.5345 1.11384 32.9294 1.11328ZM41.095 41.7182C40.9934 42.7667 40.5057 43.7401 39.7267 44.4492C38.9476 45.1583 37.9329 45.5526 36.8794 45.5555H27.0671C26.8899 45.5555 26.72 45.4851 26.5948 45.3598C26.4695 45.2346 26.3991 45.0647 26.3991 44.8875C26.3991 44.7103 26.4695 44.5404 26.5948 44.4152C26.72 44.2899 26.8899 44.2195 27.0671 44.2195H36.8794C39.4224 44.2195 40.7658 41.1149 38.9258 39.2749C38.6576 39.0052 38.3387 38.791 37.9876 38.6449C37.6364 38.4987 37.2598 38.4233 36.8794 38.423H29.3871V38.4211C29.2718 38.4212 29.1584 38.3913 29.0582 38.3343C22.5068 34.5931 18.6526 36.0828 15.0051 37.4925C13.2462 38.1725 11.5317 38.835 9.58157 38.9621V52.1795C14.7508 52.231 18.1777 52.877 21.4919 53.5017C23.6789 53.9137 25.8161 54.3171 28.391 54.526C29.6286 54.6262 30.7357 54.4333 31.7901 53.7716L54.0141 39.8254C55.1865 39.0898 54.2157 37.6355 53.329 36.9852C52.3961 36.3012 51.0773 35.9977 49.8444 36.7043L41.095 41.7185V41.7182ZM3.00964 35.3004C2.50698 35.3013 2.02518 35.5015 1.66975 35.8569C1.31432 36.2124 1.11422 36.6942 1.11328 37.1968V53.9639C1.11431 54.4664 1.31441 54.9481 1.66979 55.3035C2.02516 55.6589 2.50685 55.859 3.00942 55.86H7.6852C8.18776 55.859 8.66945 55.6589 9.0248 55.3035C9.38015 54.9481 9.58023 54.4664 9.58123 53.9639V53.5154C14.6437 53.567 18.0002 54.1996 21.2464 54.8116C23.478 55.2323 25.6587 55.6435 28.2864 55.8571C29.8064 55.9806 31.1944 55.7183 32.4996 54.8997L54.7238 40.9526C55.7293 40.3217 56.0263 39.3717 55.8292 38.3906C55.632 37.4095 54.9442 36.5168 54.1169 35.9102C52.8095 34.9515 50.946 34.5347 49.1815 35.5458L40.9752 40.2488C40.7358 39.3444 40.2046 38.5443 39.464 37.9727C38.7235 37.401 37.815 37.0897 36.8794 37.0871H29.5582C22.5566 33.1477 18.4308 34.7412 14.5253 36.2507C12.8983 36.8794 11.3121 37.4925 9.58168 37.6229V37.1967C9.58068 36.6942 9.3806 36.2125 9.02525 35.8571C8.66989 35.5017 8.18821 35.3016 7.68565 35.3006L3.00964 35.3004ZM7.68543 36.6363C7.83371 36.6372 7.97566 36.6965 8.08051 36.8014C8.18535 36.9063 8.24464 37.0482 8.24552 37.1965V53.9639C8.24464 54.1121 8.18535 54.2541 8.08051 54.359C7.97566 54.4638 7.83371 54.5232 7.68543 54.5241H3.00964C2.8613 54.5232 2.71926 54.464 2.61435 54.3591C2.50943 54.2542 2.4501 54.1122 2.44922 53.9639V37.1968C2.45012 37.0485 2.50944 36.9066 2.6143 36.8017C2.71916 36.6969 2.86113 36.6375 3.00942 36.6366L7.68543 36.6363ZM30.0973 18.6838L32.7156 21.302C32.8408 21.4272 33.0107 21.4975 33.1878 21.4975C33.3649 21.4975 33.5348 21.4272 33.6601 21.302L38.8898 16.0721C39.0115 15.9461 39.0788 15.7774 39.0773 15.6023C39.0758 15.4271 39.0055 15.2596 38.8817 15.1357C38.7578 15.0119 38.5903 14.9416 38.4151 14.9401C38.24 14.9386 38.0713 15.0059 37.9453 15.1276L33.1878 19.8852L31.0418 17.7392C30.9159 17.6176 30.7471 17.5502 30.572 17.5518C30.3969 17.5533 30.2293 17.6235 30.1055 17.7474C29.9816 17.8712 29.9114 18.0388 29.9099 18.2139C29.9083 18.389 29.9757 18.5578 30.0973 18.6838ZM36.0577 2.44922H32.9294C32.8888 2.44977 32.8501 2.46612 32.8213 2.49481C32.7926 2.52351 32.7762 2.56227 32.7757 2.60285V5.57754H32.7741C32.774 5.73299 32.7197 5.88353 32.6203 6.00312C32.521 6.12272 32.3831 6.20385 32.2303 6.23248C30.5919 6.53996 29.0346 7.18229 27.6559 8.11927C27.5274 8.21939 27.3668 8.2691 27.2042 8.25906C27.0416 8.24901 26.8883 8.1799 26.7731 8.06472L24.669 5.96062C24.6398 5.93245 24.6008 5.91671 24.5603 5.91671C24.5197 5.91671 24.4807 5.93245 24.4516 5.96062L22.2397 8.17304C22.2114 8.20214 22.1955 8.24115 22.1955 8.28176C22.1955 8.32236 22.2114 8.36137 22.2397 8.39047L24.3438 10.4946L24.3429 10.4955C24.4527 10.6053 24.5207 10.7501 24.5351 10.9047C24.5496 11.0594 24.5096 11.2142 24.4221 11.3426C23.4812 12.7172 22.8338 14.271 22.5201 15.907C22.501 16.0696 22.4229 16.2195 22.3006 16.3282C22.1783 16.437 22.0203 16.4971 21.8566 16.497H18.8819C18.8413 16.4976 18.8026 16.514 18.7739 16.5427C18.7452 16.5714 18.7288 16.6102 18.7283 16.6508V19.7791C18.7289 19.8197 18.7452 19.8584 18.7739 19.8871C18.8026 19.9158 18.8414 19.9322 18.8819 19.9327H21.8564V19.9343C22.0118 19.9343 22.1623 19.9887 22.2819 20.088C22.4015 20.1873 22.4826 20.3253 22.5112 20.478C22.8188 22.1164 23.4612 23.6737 24.3981 25.0525C24.4982 25.181 24.5479 25.3417 24.5379 25.5042C24.5279 25.6668 24.4587 25.8201 24.3436 25.9353L22.2395 28.0394C22.2111 28.0685 22.1953 28.1075 22.1953 28.1481C22.1953 28.1888 22.2111 28.2278 22.2395 28.2569L24.4516 30.469C24.4807 30.4973 24.5197 30.5131 24.5603 30.5131C24.6009 30.5131 24.6399 30.4973 24.669 30.469L26.7731 28.3648L26.774 28.3657C26.8838 28.2559 27.0286 28.1879 27.1833 28.1735C27.3379 28.159 27.4928 28.199 27.6211 28.2866C28.9956 29.2276 30.5495 29.875 32.1855 30.1885C32.3481 30.2076 32.498 30.2857 32.6067 30.408C32.7155 30.5304 32.7756 30.6884 32.7756 30.852V33.8264C32.7761 33.867 32.7925 33.9058 32.8212 33.9345C32.8499 33.9632 32.8887 33.9796 32.9293 33.9801H36.0576C36.0982 33.9796 36.137 33.9632 36.1657 33.9345C36.1944 33.9058 36.2108 33.867 36.2114 33.8264V30.852H36.2129C36.213 30.6966 36.2673 30.5461 36.3666 30.4265C36.4659 30.3069 36.6039 30.2257 36.7567 30.1971C38.3948 29.889 39.952 29.2469 41.3311 28.3107C41.4596 28.2106 41.6203 28.1609 41.7829 28.171C41.9454 28.181 42.0988 28.2501 42.214 28.3653L44.3181 30.4694C44.3472 30.4977 44.3862 30.5136 44.4268 30.5136C44.4674 30.5136 44.5064 30.4977 44.5355 30.4694L46.7477 28.2573C46.7758 28.2281 46.7916 28.1892 46.7916 28.1486C46.7916 28.108 46.7758 28.0691 46.7477 28.0399L44.6436 25.9358L44.6445 25.9349C44.5346 25.825 44.4666 25.6803 44.4522 25.5256C44.4377 25.3709 44.4777 25.2161 44.5653 25.0878C45.5056 23.7128 46.153 22.1591 46.4672 20.5233C46.4863 20.3608 46.5645 20.2109 46.6868 20.1021C46.8091 19.9933 46.9671 19.9333 47.1308 19.9333H50.1051C50.1457 19.9328 50.1845 19.9164 50.2132 19.8877C50.2419 19.859 50.2583 19.8203 50.2589 19.7797V16.6513C50.2583 16.6107 50.2419 16.572 50.2132 16.5432C50.1845 16.5145 50.1457 16.4982 50.1051 16.4976H47.1308V16.496C46.9753 16.496 46.8248 16.4416 46.7052 16.3424C46.5856 16.2431 46.5045 16.1051 46.4758 15.9523C46.1682 14.3139 45.5259 12.7566 44.5891 11.3777C44.489 11.2492 44.4393 11.0886 44.4494 10.926C44.4594 10.7634 44.5285 10.6101 44.6437 10.4949L46.7478 8.3908C46.776 8.36162 46.7917 8.32265 46.7917 8.28209C46.7917 8.24153 46.776 8.20256 46.7478 8.17338L44.5353 5.96095C44.5061 5.93278 44.4671 5.91704 44.4265 5.91704C44.386 5.91704 44.347 5.93278 44.3178 5.96095L42.2137 8.06505L42.2128 8.06427C42.103 8.17408 41.9582 8.24207 41.8036 8.25652C41.6489 8.27097 41.4941 8.23098 41.3657 8.14343C39.9911 7.2025 38.4373 6.55501 36.8013 6.24139C36.6387 6.22229 36.4888 6.14417 36.3801 6.02186C36.2713 5.89955 36.2112 5.74155 36.2113 5.57787V2.60319C36.2108 2.56258 36.1944 2.52377 36.1658 2.49501C36.1371 2.46625 36.0983 2.44982 36.0577 2.44922ZM34.4936 9.32985C32.7363 9.32983 31.0186 9.85089 29.5575 10.8271C28.0964 11.8034 26.9576 13.191 26.2851 14.8144C25.6127 16.4379 25.4367 18.2243 25.7795 19.9477C26.1223 21.6712 26.9685 23.2543 28.211 24.4969C29.4536 25.7394 31.0367 26.5856 32.7601 26.9284C34.4836 27.2713 36.27 27.0953 37.8934 26.4229C39.5169 25.7504 40.9045 24.6116 41.8808 23.1506C42.857 21.6895 43.3781 19.9717 43.3781 18.2145C43.378 15.8582 42.442 13.5984 40.7758 11.9322C39.1096 10.2661 36.8499 9.32997 34.4936 9.32985ZM34.4936 10.6658C33.0006 10.6658 31.5411 11.1085 30.2997 11.9379C29.0583 12.7674 28.0908 13.9463 27.5194 15.3257C26.948 16.705 26.7985 18.2228 27.0898 19.6871C27.381 21.1514 28.1 22.4965 29.1557 23.5522C30.2114 24.6079 31.5564 25.3269 33.0207 25.6182C34.485 25.9094 36.0028 25.76 37.3822 25.1886C38.7616 24.6173 39.9405 23.6497 40.77 22.4084C41.5994 21.167 42.0422 19.7075 42.0422 18.2145C42.0422 17.2232 41.847 16.2416 41.4677 15.3258C41.0883 14.4099 40.5323 13.5778 39.8313 12.8768C39.1304 12.1759 38.2982 11.6199 37.3823 11.2406C36.4665 10.8612 35.4849 10.6661 34.4936 10.6661V10.6658Z" fill="black"/>
</svg>
