<svg width="59" height="58" viewBox="0 0 59 58" fill="none" xmlns="http://www.w3.org/2000/svg">
<path d="M35.565 3.84511C21.044 18.4783 21.0369 18.116 19.8723 19.8795C17.9838 21.1616 18.5223 21.0066 3.85587 35.5547C-1.28441 40.695 -1.28617 49.012 3.85587 54.154C8.98256 59.2815 17.3272 59.2825 22.4547 54.154C36.8964 39.5973 36.9802 39.8902 38.1498 38.1159C40.016 36.8547 39.3821 37.1106 54.1648 22.4444C59.3041 17.3042 59.3068 8.98816 54.1648 3.84511C49.0373 -1.28259 40.6922 -1.28082 35.565 3.84511ZM18.4493 31.9411C19.1032 33.6805 20.1214 35.2599 21.4355 36.5736C22.7513 37.8861 24.3318 38.903 26.0715 39.5566L16.9646 48.6637C14.8634 50.7639 11.4451 50.7634 9.34593 48.6637C7.24372 46.5615 7.24296 43.148 9.34593 41.045L18.4493 31.9411ZM21.1726 52.8722C16.7522 57.2925 9.55907 57.2925 5.13748 52.8722C0.705571 48.4393 0.704313 41.2705 5.13748 36.8366L18.0089 23.9654C17.5306 25.6516 17.4236 27.9773 17.8673 29.9595L8.06407 39.7632C5.25324 42.573 5.25223 47.1345 8.06407 49.9456C10.8704 52.7529 15.4389 52.7531 18.2465 49.9456L32.3754 35.8167C33.0704 35.1216 33.5996 34.3259 33.9449 33.4608C33.9454 33.4596 33.946 33.4584 33.9467 33.4573C33.9482 33.4532 33.9504 33.4495 33.9519 33.4454C35.0033 30.8701 34.5055 27.7631 32.3754 25.6337C30.894 24.1518 28.8736 23.4306 26.8448 23.5539C27.1604 23.2238 29.1901 21.2026 30.511 19.8792C32.3188 20.4197 33.9718 21.3772 35.3017 22.7072C39.1071 26.5112 39.7216 32.5277 36.7348 36.982C35.7426 38.5442 35.7421 38.2005 21.1726 52.8722ZM25.6352 25.6134C27.563 25.0029 29.6642 25.4845 31.0938 26.9156C32.4454 28.2672 33.0636 30.2939 32.385 32.3855C30.4604 32.9945 28.3572 32.5139 26.9261 31.0833C25.5768 29.7342 24.955 27.7095 25.6352 25.6134ZM39.5703 26.058C38.9169 24.3184 37.8986 22.7388 36.5839 21.4255C35.2695 20.1107 33.6875 19.0976 31.9532 18.4376L41.0553 9.33543C43.156 7.23573 46.572 7.23397 48.6745 9.33543C50.7769 11.4379 50.7774 14.8512 48.6745 16.9541L39.5703 26.058ZM52.8829 21.1626L40.0105 34.0345C40.547 31.961 40.5605 29.9265 40.1476 28.0442L49.9563 18.236C52.7672 15.4262 52.7682 10.8647 49.9563 8.05357C47.1483 5.246 42.5815 5.24424 39.7734 8.05357L25.644 22.183C22.8462 24.9825 22.8208 29.5432 25.644 32.3654C27.0512 33.7726 29.0167 34.5791 31.1708 34.4495C30.8578 34.7761 28.6458 36.9803 27.5167 38.1116C25.7089 37.5817 24.0526 36.6272 22.7174 35.292C21.2531 33.8274 20.2272 32.0073 19.742 30.0035C18.9 26.8706 19.621 23.446 21.279 21.0287C22.6042 19.0966 21.5895 20.5237 36.8466 5.12698C41.2667 0.707899 48.4608 0.706138 52.8827 5.12698C57.3055 9.55234 57.3229 16.7196 52.8829 21.1626ZM16.0429 16.0321C16.1271 15.948 16.1939 15.848 16.2394 15.7381C16.285 15.6281 16.3085 15.5102 16.3085 15.3912C16.3085 15.2721 16.285 15.1543 16.2394 15.0443C16.1939 14.9343 16.1271 14.8344 16.0429 14.7502L10.0684 8.77628C9.98423 8.69211 9.88431 8.62535 9.77433 8.57979C9.66436 8.53424 9.5465 8.5108 9.42747 8.5108C9.30843 8.5108 9.19057 8.53424 9.0806 8.57979C8.97062 8.62535 8.8707 8.69211 8.78653 8.77628C8.70237 8.86045 8.6356 8.96037 8.59005 9.07034C8.5445 9.18031 8.52105 9.29818 8.52105 9.41721C8.52105 9.53624 8.5445 9.65411 8.59005 9.76408C8.6356 9.87405 8.70237 9.97397 8.78653 10.0581L14.761 16.0321C14.8452 16.1163 14.9451 16.1831 15.055 16.2287C15.165 16.2742 15.2829 16.2977 15.4019 16.2977C15.521 16.2977 15.6389 16.2742 15.7488 16.2287C15.8588 16.1831 15.9587 16.1163 16.0429 16.0321ZM4.52851 18.2775C4.28811 18.2775 4.05756 18.373 3.88758 18.543C3.71759 18.713 3.6221 18.9435 3.6221 19.1839C3.6221 19.4243 3.71759 19.6549 3.88758 19.8249C4.05756 19.9948 4.28811 20.0903 4.52851 20.0903H12.9771C13.2175 20.0903 13.4481 19.9948 13.6181 19.8249C13.788 19.6549 13.8835 19.4243 13.8835 19.1839C13.8835 18.9435 13.788 18.713 13.6181 18.543C13.4481 18.373 13.2175 18.2775 12.9771 18.2775H4.52851ZM18.2878 4.51775V12.9664C18.2878 13.2068 18.3833 13.4373 18.5532 13.6073C18.7232 13.7773 18.9538 13.8728 19.1942 13.8728C19.4346 13.8728 19.6651 13.7773 19.8351 13.6073C20.0051 13.4373 20.1006 13.2068 20.1006 12.9664V4.51775C20.1006 4.27736 20.0051 4.04681 19.8351 3.87682C19.6651 3.70684 19.4346 3.61134 19.1942 3.61134C18.9538 3.61134 18.7232 3.70684 18.5532 3.87682C18.3833 4.04681 18.2878 4.27736 18.2878 4.51775ZM41.9775 41.967C41.8933 42.0512 41.8265 42.1511 41.781 42.2611C41.7354 42.3711 41.712 42.4889 41.712 42.608C41.712 42.727 41.7354 42.8449 41.781 42.9549C41.8265 43.0648 41.8933 43.1647 41.9775 43.2489L47.952 49.2229C48.0362 49.307 48.1361 49.3738 48.2461 49.4194C48.356 49.4649 48.4739 49.4883 48.5929 49.4883C48.712 49.4883 48.8298 49.4649 48.9398 49.4194C49.0498 49.3738 49.1497 49.307 49.2339 49.2229C49.318 49.1387 49.3848 49.0388 49.4304 48.9288C49.4759 48.8188 49.4994 48.701 49.4994 48.5819C49.4994 48.4629 49.4759 48.345 49.4304 48.2351C49.3848 48.1251 49.318 48.0252 49.2339 47.941L43.2594 41.967C43.1753 41.8828 43.0753 41.816 42.9654 41.7705C42.8554 41.7249 42.7375 41.7014 42.6185 41.7014C42.4994 41.7014 42.3816 41.7249 42.2716 41.7705C42.1616 41.816 42.0617 41.8828 41.9775 41.967ZM53.4919 39.7216C53.7323 39.7216 53.9628 39.6261 54.1328 39.4562C54.3028 39.2862 54.3983 39.0556 54.3983 38.8152C54.3983 38.5748 54.3028 38.3443 54.1328 38.1743C53.9628 38.0043 53.7323 37.9088 53.4919 37.9088H45.0433C44.8029 37.9088 44.5723 38.0043 44.4024 38.1743C44.2324 38.3443 44.1369 38.5748 44.1369 38.8152C44.1369 39.0556 44.2324 39.2862 44.4024 39.4562C44.5723 39.6261 44.8029 39.7216 45.0433 39.7216H53.4919ZM39.7316 53.4814V45.0328C39.7316 44.7924 39.6361 44.5618 39.4662 44.3919C39.2962 44.2219 39.0656 44.1264 38.8252 44.1264C38.5848 44.1264 38.3543 44.2219 38.1843 44.3919C38.0143 44.5618 37.9188 44.7924 37.9188 45.0328V53.4814C37.9188 53.7218 38.0143 53.9523 38.1843 54.1223C38.3543 54.2923 38.5848 54.3878 38.8252 54.3878C39.0656 54.3878 39.2962 54.2923 39.4662 54.1223C39.6361 53.9523 39.7316 53.7218 39.7316 53.4814Z" fill="white"/>
</svg>
