<svg width="54" height="54" viewBox="0 0 54 54" fill="none" xmlns="http://www.w3.org/2000/svg">
<mask id="mask0_137_2374" style="mask-type:luminance" maskUnits="userSpaceOnUse" x="0" y="0" width="54" height="54">
<path d="M53.5 53.5V0.5H0.5V53.5H53.5Z" fill="white" stroke="white"/>
</mask>
<g mask="url(#mask0_137_2374)">
<path d="M35.4414 46.4048C34.1321 47.0413 32.7618 47.5441 31.3515 47.9056V50.2137C31.3515 51.3139 30.4486 52.2139 29.3484 52.2139H22.6605C21.5573 52.2139 20.6574 51.3139 20.6574 50.2137V47.9056C18.6708 47.3978 16.7671 46.6085 15.004 45.5616L13.3716 47.194C12.5913 47.9743 11.3176 47.9743 10.5403 47.194L5.81069 42.4642C5.03044 41.6869 5.03044 40.4103 5.81069 39.6329L7.44314 38.0005C6.39627 36.2374 5.60696 34.3336 5.0992 32.3469H2.79112C1.69098 32.3469 0.791016 31.444 0.791016 30.3438V23.6557C0.791016 22.5525 1.69098 21.6526 2.79112 21.6526H5.0992C5.60696 19.6659 6.39626 17.7621 7.44314 15.999L5.81069 14.3665C5.03044 13.5863 5.03044 12.3125 5.81069 11.5352L10.5403 6.80546C11.3176 6.0251 12.5913 6.0251 13.3716 6.80546L15.004 8.4379C16.767 7.39097 18.6708 6.60163 20.6574 6.09386V3.78578C20.6574 2.68553 21.5573 1.78568 22.6605 1.78568H29.3484C30.4486 1.78568 31.3515 2.68553 31.3515 3.78578V6.09386C33.3381 6.60163 35.2419 7.39097 37.005 8.4379L38.6373 6.80546C39.4146 6.0251 40.6912 6.0251 41.4685 6.80546L46.1983 11.5352C46.9785 12.3125 46.9785 13.5863 46.1983 14.3665L44.5659 15.999C45.6128 17.7621 46.402 19.6659 46.9098 21.6526H49.2178C50.318 21.6526 51.2178 22.5525 51.2178 23.6557V30.3438C51.2178 31.2348 50.6289 31.9941 49.8217 32.2513" stroke="black" stroke-miterlimit="10" stroke-linecap="round" stroke-linejoin="round"/>
<path d="M16.1252 15.554C12.9143 18.3256 10.8843 22.4245 10.8843 26.9989C10.8843 35.3522 17.6529 42.1211 26.0031 42.1211C28.5324 42.1211 30.9122 41.5021 33.0049 40.4049M40.8378 29.9467C41.0293 28.9758 41.1255 27.9885 41.1249 26.9989C41.1249 18.6485 34.3562 11.8796 26.0031 11.8796C23.4379 11.8796 21.0224 12.5195 18.9056 13.6466" stroke="black" stroke-miterlimit="10" stroke-linecap="round" stroke-linejoin="round"/>
<path d="M22.8701 41.7949V32.1679C19.713 30.9989 17.4497 27.9524 17.4497 24.4035C17.4497 21.5692 18.8908 19.0548 21.0793 17.5629C23.3754 15.9933 22.9299 18.4718 22.9299 18.8874V23.8593C22.9299 25.5994 24.2932 27.0345 26.0032 27.1511C27.7133 27.0345 29.0766 25.5994 29.0766 23.8593V18.8874C29.0766 18.4718 28.6341 15.9933 30.9302 17.5629C33.1187 19.0548 34.5597 21.5692 34.5597 24.4035C34.5597 27.9524 32.2964 30.9989 29.1393 32.1679V41.7949" stroke="black" stroke-miterlimit="10" stroke-linecap="round" stroke-linejoin="round"/>
<path d="M47.8545 48.7281C46.4374 49.4845 44.817 49.915 43.0979 49.915C37.5132 49.915 32.9869 45.3885 32.9869 39.8036C32.9869 34.2189 37.5132 29.6924 43.0979 29.6924C48.6827 29.6924 53.2091 34.2189 53.2091 39.8036C53.2091 42.3838 52.2404 44.7367 50.6499 46.5246" stroke="black" stroke-miterlimit="10" stroke-linecap="round" stroke-linejoin="round"/>
<path d="M41.947 39.6962L45.2117 35.8035C45.8903 34.9933 47.1041 34.8856 47.9174 35.5643C48.7276 36.243 48.8351 37.4569 48.1535 38.27L43.651 43.6426C43.3103 44.0522 42.8708 44.2795 42.3416 44.3242C41.8124 44.3692 41.3431 44.2196 40.9364 43.8758L38.4042 41.7262C37.5969 41.0415 37.4983 39.8277 38.1799 39.0204C38.8645 38.2132 40.0814 38.1146 40.8856 38.7962L41.947 39.6962Z" stroke="black" stroke-miterlimit="10" stroke-linecap="round" stroke-linejoin="round"/>
</g>
</svg>
