<svg width="58" height="56" viewBox="0 0 58 56" fill="none" xmlns="http://www.w3.org/2000/svg">
<path d="M20.4711 21.3981C20.9718 21.3981 21.3773 21.8037 21.3773 22.3044V28.0002C21.3773 28.5009 20.9718 28.9064 20.4711 28.9064C19.9704 28.9064 19.5648 28.5009 19.5648 28.0002V22.3044C19.5648 21.8037 19.9704 21.3981 20.4711 21.3981ZM4.80086 22.3044V28.0002C4.80086 28.5009 5.20641 28.9064 5.70711 28.9064C6.20781 28.9064 6.61336 28.5009 6.61336 28.0002V22.3044C6.61336 21.8037 6.20781 21.3981 5.70711 21.3981C5.20641 21.3981 4.80086 21.8037 4.80086 22.3044ZM0.90625 28.9064C0.405547 28.9064 0 28.5009 0 28.0002V21.8558C0 17.3336 3.42336 13.5693 7.81754 13.0266C6.61109 11.7375 5.87023 10.0077 5.87023 8.10797C5.87023 4.1318 9.10895 0.896484 13.0896 0.896484C17.0726 0.896484 20.3125 4.1318 20.3125 8.10797C20.3125 10.0088 19.5716 11.7386 18.364 13.0278C22.7593 13.5727 26.1793 17.3359 26.1793 21.8569V28.0002C26.1793 28.5009 25.7738 28.9064 25.273 28.9064C24.7723 28.9064 24.3668 28.5009 24.3668 28.0002V21.8558C24.3668 17.9804 21.2108 14.8018 17.3309 14.77H15.8503C14.9996 15.1223 14.0673 15.3183 13.0908 15.3183C12.1143 15.3183 11.1831 15.1223 10.3324 14.77H8.84387C4.96965 14.8018 1.8125 17.9793 1.8125 21.8558V28.0002C1.8125 28.5009 1.40695 28.9064 0.90625 28.9064ZM7.68273 8.10684C7.68273 11.0839 10.1081 13.5058 13.0896 13.5058C16.0723 13.5058 18.5 11.0839 18.5 8.10684C18.5 5.1298 16.0735 2.70785 13.0896 2.70785C10.1081 2.70785 7.68273 5.1298 7.68273 8.10684ZM37.5289 47.5967C37.0282 47.5967 36.6227 48.0022 36.6227 48.5029V54.1987C36.6227 54.6994 37.0282 55.105 37.5289 55.105C38.0296 55.105 38.4352 54.6994 38.4352 54.1987V48.5029C38.4352 48.0022 38.0296 47.5967 37.5289 47.5967ZM52.2895 47.5967C51.7888 47.5967 51.3832 48.0022 51.3832 48.5029V54.1987C51.3832 54.6994 51.7888 55.105 52.2895 55.105C52.7902 55.105 53.1957 54.6994 53.1957 54.1987V48.5029C53.1957 48.0022 52.7902 47.5967 52.2895 47.5967ZM58 48.0532V54.1976C58 54.6983 57.5945 55.1038 57.0938 55.1038C56.593 55.1038 56.1875 54.6983 56.1875 54.1976V48.0532C56.1875 44.1778 53.0303 40.9992 49.1482 40.9675H47.6687C46.7943 41.33 45.8569 41.5163 44.9104 41.5157C43.9327 41.5157 43.0016 41.3198 42.1508 40.9675H40.6623C36.7881 40.9992 33.6309 44.1778 33.6309 48.0532V54.1976C33.6309 54.6983 33.2254 55.1038 32.7247 55.1038C32.224 55.1038 31.8184 54.6983 31.8184 54.1976V48.0532C31.8184 43.5299 35.2418 39.7655 39.636 39.2241C38.4284 37.9349 37.6875 36.2051 37.6875 34.3054C37.6875 30.3292 40.9274 27.0939 44.9104 27.0939C48.8911 27.0939 52.1298 30.3292 52.1298 34.3054C52.1298 36.2062 51.3889 37.9361 50.1813 39.2252C54.5789 39.7701 58 43.5333 58 48.0532ZM44.9115 39.7044C47.893 39.7044 50.3184 37.2824 50.3184 34.3054C50.3184 31.3284 47.893 28.9064 44.9115 28.9064C41.9288 28.9064 39.5012 31.3284 39.5012 34.3054C39.5012 37.2824 41.9277 39.7044 44.9115 39.7044ZM33.8802 17.2781H31.6814C30.5429 17.2781 29.6163 16.3526 29.6163 15.2141V6.94004C29.6163 5.80156 30.5429 4.87605 31.6814 4.87605H55.6007C56.7392 4.87605 57.6658 5.80156 57.6658 6.94004V15.2141C57.6658 16.3526 56.7392 17.2781 55.6007 17.2781H41.9571L35.3528 22.5785C35.1918 22.7076 34.9916 22.7779 34.7853 22.7779C34.545 22.7776 34.3147 22.682 34.1448 22.5121C33.9749 22.3422 33.8793 22.1119 33.879 21.8716V17.2781H33.8802ZM34.7864 15.4656C35.2871 15.4656 35.6927 15.8711 35.6927 16.3718V19.9821L41.0713 15.665C41.2322 15.5359 41.4324 15.4655 41.6388 15.4656H55.6007C55.7378 15.4656 55.8533 15.35 55.8533 15.2141V6.94004C55.8533 6.8041 55.7378 6.68855 55.6007 6.68855H31.6814C31.542 6.68855 31.4288 6.80184 31.4288 6.94004V15.2141C31.4288 15.3478 31.5466 15.4656 31.6814 15.4656H34.7864ZM41.2729 11.9833H52.3099C52.8106 11.9833 53.2161 11.5778 53.2161 11.0771C53.2161 10.5764 52.8106 10.1708 52.3099 10.1708H41.2729C40.7722 10.1708 40.3666 10.5764 40.3666 11.0771C40.3666 11.5778 40.7722 11.9833 41.2729 11.9833ZM37.4157 11.9833C37.9164 11.9833 38.3219 11.5778 38.3219 11.0771C38.3219 10.5764 37.9164 10.1708 37.4157 10.1708H34.9722C34.4715 10.1708 34.0659 10.5764 34.0659 11.0771C34.0659 11.5778 34.4715 11.9833 34.9722 11.9833H37.4157ZM28.3837 35.2864V43.5605C28.3837 44.6989 27.4571 45.6245 26.3186 45.6245H24.1198V50.218C24.1198 50.3888 24.0715 50.556 23.9805 50.7005C23.8895 50.8451 23.7595 50.9609 23.6055 51.0348C23.4809 51.0948 23.3473 51.1243 23.2136 51.1243C23.0108 51.1243 22.8103 51.0563 22.6461 50.9249L16.0418 45.6245H2.3993C1.26082 45.6245 0.33418 44.6989 0.33418 43.5605V35.2864C0.33418 34.1479 1.26082 33.2224 2.3993 33.2224H26.3186C27.4582 33.2224 28.3837 34.1479 28.3837 35.2864ZM26.5712 35.2864C26.5712 35.1505 26.4557 35.0349 26.3186 35.0349H2.3993C2.26223 35.0349 2.14668 35.1505 2.14668 35.2864V43.5605C2.14668 43.6964 2.26223 43.812 2.3993 43.812H16.3612C16.5674 43.812 16.7679 43.8822 16.9288 44.0113L22.3073 48.3285V44.7182C22.3073 44.2175 22.7129 43.812 23.2136 43.812H26.3186C26.4534 43.812 26.5712 43.6941 26.5712 43.5605V35.2864ZM16.7271 38.5172H5.69125C5.19055 38.5172 4.785 38.9227 4.785 39.4234C4.785 39.9241 5.19055 40.3297 5.69125 40.3297H16.7271C17.2278 40.3297 17.6334 39.9241 17.6334 39.4234C17.6334 38.9227 17.2278 38.5172 16.7271 38.5172ZM23.0278 38.5172H20.5843C20.0836 38.5172 19.6781 38.9227 19.6781 39.4234C19.6781 39.9241 20.0836 40.3297 20.5843 40.3297H23.0278C23.5285 40.3297 23.9341 39.9241 23.9341 39.4234C23.9341 38.9227 23.5274 38.5172 23.0278 38.5172Z" fill="black"/>
</svg>
