<svg width="58" height="58" viewBox="0 0 58 58" fill="none" xmlns="http://www.w3.org/2000/svg">
<g clip-path="url(#clip0_137_2175)">
<path fill-rule="evenodd" clip-rule="evenodd" d="M53.3565 33.6823C52.8625 32.6232 52.1934 31.7419 51.3986 31.1144C52.1934 30.4862 52.8625 29.6035 53.3565 28.5457C53.8511 29.6049 54.521 30.4862 55.3157 31.1144C54.5209 31.7419 53.8511 32.6232 53.3565 33.6823ZM57.3957 30.2786C55.7727 29.7504 54.5002 27.6811 54.231 25.1285C54.1218 24.0899 52.5928 24.0887 52.4825 25.1285C52.2127 27.6798 50.9402 29.7504 49.3172 30.2786C48.5118 30.5396 48.5116 31.6865 49.3172 31.9493C50.9402 32.4782 52.2127 34.5475 52.4825 37.0993C52.5928 38.1399 54.1217 38.1387 54.231 37.0993C54.5002 34.5473 55.7727 32.4782 57.3957 31.9493C58.2035 31.6857 58.1992 30.538 57.3957 30.2786ZM9.34218 17.9581C10.0087 19.5777 10.992 20.8986 12.186 21.7584C10.992 22.6195 10.0087 23.9405 9.34218 25.5594C8.67575 23.9405 7.69102 22.6195 6.49694 21.7584C7.69102 20.8986 8.67575 19.5778 9.34218 17.9581ZM4.32504 22.5941C6.454 23.2882 8.11869 25.9723 8.46834 29.2751C8.57798 30.3147 10.1056 30.3152 10.2155 29.2751C10.5658 25.9723 12.2311 23.288 14.3588 22.5941C15.164 22.332 15.1645 21.1864 14.3588 20.9235C12.2311 20.2295 10.5658 17.5447 10.2155 14.2425C10.1925 14.0268 10.0906 13.8273 9.92943 13.6822C9.76822 13.5371 9.55907 13.4567 9.34218 13.4565C9.12521 13.4566 8.91594 13.5369 8.75462 13.682C8.59331 13.8271 8.49134 14.0267 8.46834 14.2425C8.118 17.5448 6.45276 20.2296 4.32504 20.9235C3.51679 21.1871 3.51983 22.3333 4.32504 22.5941ZM20.9405 6.57138C21.4351 7.63054 22.105 8.51184 22.8997 9.14002C22.105 9.76764 21.4351 10.6488 20.9405 11.708C20.4458 10.6488 19.7773 9.7675 18.9826 9.14002C19.7772 8.51184 20.4458 7.62916 20.9405 6.57138ZM16.9012 9.97506C18.5242 10.5039 19.7967 12.5732 20.0665 15.125C20.1768 16.1653 21.7054 16.1646 21.8149 15.125C22.0854 12.5732 23.3567 10.5039 24.9795 9.97506C25.7853 9.71227 25.7849 8.56569 24.9795 8.30442C23.3565 7.77553 22.0854 5.70554 21.8149 3.1543C21.7054 2.11558 20.1767 2.11489 20.0665 3.1543C19.7967 5.70554 18.5242 7.77553 16.9012 8.30442C16.0958 8.56569 16.0955 9.71185 16.9012 9.97506ZM31.7071 53.8665H29.2942V51.4529H31.7071V53.8665ZM31.9225 49.6949H29.0786C28.2276 49.6949 27.5361 50.3862 27.5361 51.2367V54.0819C27.5361 54.9317 28.2274 55.6244 29.0786 55.6244H31.9225C32.7729 55.6244 33.4643 54.9317 33.4643 54.0819V51.2367C33.4643 50.3863 32.7729 49.6949 31.9225 49.6949ZM23.9601 46.1195H21.5466V43.706H23.9601V46.1195ZM24.1756 41.9486H21.3303C20.4812 41.9486 19.7885 42.6392 19.7885 43.4904V46.3343C19.7885 47.1853 20.4812 47.8773 21.3303 47.8773H24.1756C25.0266 47.8773 25.7179 47.1853 25.7179 46.3343V43.4904C25.718 42.6394 25.0266 41.9486 24.1756 41.9486ZM31.7071 46.1195H29.2942V43.706H31.7071V46.1195ZM31.9225 41.9486H29.0786C28.2276 41.9486 27.5361 42.6392 27.5361 43.4904V46.3343C27.5361 47.1853 28.2274 47.8773 29.0786 47.8773H31.9225C32.7729 47.8773 33.4643 47.1853 33.4643 46.3343V43.4904C33.4643 42.6394 32.7729 41.9486 31.9225 41.9486ZM23.9601 53.8665H21.5466V51.4529H23.9601V53.8665ZM24.1756 49.6949H21.3303C20.4812 49.6949 19.7885 50.3862 19.7885 51.2367V54.0819C19.7885 54.9317 20.4812 55.6244 21.3303 55.6244H24.1756C25.0266 55.6244 25.7179 54.9317 25.7179 54.0819V51.2367C25.718 50.3863 25.0266 49.6949 24.1756 49.6949ZM51.4972 51.7287V48.3097L26.6268 23.4405L1.75764 48.3095V51.7285H5.68883L26.0058 31.4128C26.0873 31.3311 26.1842 31.2663 26.2908 31.2221C26.3974 31.1779 26.5116 31.1551 26.627 31.1551C26.7424 31.1551 26.8567 31.1779 26.9633 31.2221C27.0699 31.2663 27.1667 31.3311 27.2482 31.4128L47.5647 51.7285H51.4972V51.7287ZM40.0359 21.1893H42.5576V36.8852L40.0359 34.3622V21.1893ZM35.7422 15.3876H30.4203C29.7103 15.3876 27.9301 15.5145 26.3261 15.9782C27.3066 13.8572 28.7095 13.0585 31.1325 13.0585H44.2483C44.5282 14.6996 45.7483 15.556 46.9103 15.556C48.0741 15.556 49.2943 14.6996 49.5742 13.0585H51.5327L51.5388 19.4316H49.5742C49.2943 17.7898 48.0741 16.9347 46.9103 16.9347C45.7483 16.9347 44.5282 17.7898 44.2483 19.4316H37.8867V17.5321C37.8868 16.35 36.925 15.3876 35.7422 15.3876ZM44.3155 38.643V21.1893H44.7102C45.0282 21.1895 45.3342 21.0676 45.5649 20.8486C45.7957 20.6296 45.9334 20.3304 45.9498 20.0128C46.0411 18.247 47.7826 18.2505 47.8727 20.0128C47.8888 20.3303 48.0263 20.6295 48.2569 20.8485C48.4874 21.0675 48.7932 21.1895 49.1111 21.1893H51.5389C52.5047 21.1893 53.2908 20.404 53.2908 19.4375V13.0524C53.2908 12.0866 52.5047 11.3006 51.5389 11.3006H49.1111C48.7932 11.3004 48.4874 11.4224 48.2569 11.6414C48.0263 11.8604 47.8888 12.1596 47.8727 12.4771C47.7826 14.2403 46.0411 14.2437 45.9498 12.4771C45.9334 12.1595 45.7957 11.8603 45.5649 11.6413C45.3342 11.4224 45.0282 11.3004 44.7102 11.3006H31.1326C26.3436 11.3006 24.8227 14.3639 23.9662 17.3588C23.7378 18.1556 24.6513 18.7969 25.3227 18.3145C26.567 17.4218 29.4948 17.1453 30.4205 17.1453H35.7424C35.8449 17.1453 35.9433 17.1861 36.0158 17.2586C36.0883 17.3311 36.129 17.4294 36.129 17.532V20.3101C36.129 20.4255 36.1516 20.5398 36.1957 20.6465C36.2399 20.7532 36.3046 20.8501 36.3861 20.9317C36.4677 21.0134 36.5646 21.0781 36.6712 21.1223C36.7779 21.1665 36.8921 21.1893 37.0076 21.1893H38.2781V32.6044L27.2484 21.576C26.9053 21.233 26.3483 21.233 26.006 21.576L0.257557 47.3242C0.175894 47.4057 0.1111 47.5025 0.0668835 47.609C0.0226674 47.7155 -0.000102487 47.8298 -0.000122059 47.9451V52.6079C-0.000140196 52.7233 0.0225708 52.8375 0.0667133 52.9441C0.110856 53.0508 0.175565 53.1476 0.257147 53.2292C0.338729 53.3108 0.435584 53.3755 0.542182 53.4197C0.648781 53.4639 0.763033 53.4866 0.878416 53.4866H6.05326C6.28622 53.4866 6.51034 53.3939 6.67412 53.2288L26.6267 33.2769L46.5799 53.2288C46.6614 53.3106 46.7583 53.3755 46.865 53.4197C46.9716 53.4639 47.086 53.4867 47.2015 53.4866H52.3758C52.4912 53.4866 52.6054 53.4639 52.712 53.4197C52.8186 53.3755 52.9155 53.3108 52.997 53.2292C53.0786 53.1476 53.1433 53.0508 53.1875 52.9441C53.2316 52.8375 53.2543 52.7233 53.2543 52.6079V47.9451C53.2543 47.7121 53.1616 47.4894 52.9966 47.3242L44.3155 38.643Z" fill="white"/>
</g>
<defs>
<clipPath id="clip0_137_2175">
<rect width="58" height="58" fill="white"/>
</clipPath>
</defs>
</svg>
