<svg width="58" height="58" viewBox="0 0 58 58" fill="none" xmlns="http://www.w3.org/2000/svg">
<path d="M57.7514 6.54549C57.897 6.33937 57.982 6.09722 57.982 5.83056V4.17151C57.982 3.84359 57.8602 3.5409 57.631 3.311C57.5181 3.19828 57.3838 3.1092 57.2361 3.04893C57.0883 2.98867 56.9301 2.95845 56.7705 2.96002H37.3917C37.0039 2.96002 36.6407 3.14091 36.4101 3.4573L34.1024 6.62981L13.8414 34.4509H5.90151C3.22988 34.4509 1.05698 37.1679 1.05698 40.5062C1.05698 43.4978 2.80323 45.9835 5.08784 46.47L0.247634 53.1163C0.11536 53.2967 0.0357425 53.5103 0.0176379 53.7333C-0.000466627 53.9564 0.0436516 54.18 0.145085 54.3794C0.246518 54.5789 0.401288 54.7463 0.59218 54.863C0.783071 54.9797 1.0026 55.0411 1.22634 55.0405H56.7705C57.0917 55.0405 57.3998 54.9129 57.6269 54.6858C57.8541 54.4587 57.9817 54.1506 57.9817 53.8294C57.9817 53.5082 57.8541 53.2001 57.6269 52.973C57.3998 52.7459 57.0917 52.6183 56.7705 52.6183H43.8708L48.231 45.3515H56.7705C57.0917 45.3515 57.3998 45.2239 57.6269 44.9967C57.8541 44.7696 57.9817 44.4615 57.9817 44.1403C57.9817 43.8191 57.8541 43.5111 57.6269 43.2839C57.3998 43.0568 57.0917 42.9292 56.7705 42.9292H49.6846L55.4985 33.2394H56.7705C57.0797 33.2451 57.3793 33.132 57.6075 32.9234C57.8357 32.7147 57.9751 32.4264 57.997 32.118C58.0189 31.8095 57.9216 31.5044 57.7252 31.2656C57.5288 31.0268 57.2482 30.8725 56.9413 30.8344L57.3046 30.2298C57.4698 29.9543 57.519 29.6245 57.4411 29.3129C57.3633 29.0012 57.1648 28.7332 56.8894 28.5679C56.8512 28.5448 56.8102 28.5304 56.7705 28.5116C56.5005 28.3856 56.1934 28.3639 55.9084 28.4508C55.6233 28.5377 55.3806 28.727 55.2268 28.9823L54.1263 30.8164H40.1066L41.437 28.988C41.6232 28.7268 41.6989 28.4025 41.6474 28.0858C41.596 27.7691 41.4217 27.4855 41.1624 27.2965L41.1573 27.2922C40.637 26.9175 39.8507 27.0378 39.4745 27.5582L37.0688 30.8654L36.186 32.0798L31.1728 38.9726C30.6279 36.3745 28.7383 34.4502 26.4918 34.4502H16.8648L38.0093 5.38156H55.5598L45.9046 18.7051L45.168 19.7227C44.9734 19.9887 44.9014 20.3036 44.9504 20.6308C44.9777 20.8124 45.0541 20.9789 45.1586 21.1281C45.2358 21.2369 45.3266 21.3371 45.4339 21.4193L45.4368 21.4207C45.9572 21.7933 46.755 21.6729 47.1305 21.1519L47.1427 21.1403L47.1514 21.1288H56.7712C57.0926 21.1288 57.4007 21.0012 57.6279 20.774C57.8551 20.5468 57.9827 20.2386 57.9827 19.9173C57.9827 19.596 57.8551 19.2879 57.6279 19.0607C57.4007 18.8335 57.0926 18.7058 56.7712 18.7058H48.9106L56.7698 7.89464L57.7514 6.54549ZM18.58 52.6183L22.6801 46.5622H26.4911C27.5765 46.5622 28.5768 46.1082 29.3854 45.3515H45.4058L41.0456 52.6183H18.58ZM8.01748 46.5622H19.7555L15.6554 52.6183H3.60681L8.01748 46.5622ZM28.2756 42.9292C28.1202 43.1903 27.9271 43.4271 27.7026 43.6319C27.3437 43.9519 26.9293 44.14 26.4911 44.14C26.0529 44.14 25.6393 43.9519 25.2804 43.6319C25.0557 43.4273 24.8626 43.1905 24.7074 42.9292C24.3139 42.2806 24.0696 41.4287 24.0696 40.5062C24.0696 39.1938 24.5633 38.0205 25.2811 37.3813C25.64 37.0613 26.0544 36.8732 26.4918 36.8732C26.93 36.8732 27.3437 37.0613 27.7033 37.3813C28.4204 38.0205 28.9141 39.1945 28.9141 40.5062C28.9134 41.428 28.6684 42.2799 28.2756 42.9292ZM22.0538 42.9292C22.0819 43.0099 22.1143 43.0878 22.1453 43.1663C22.2808 43.5108 22.4408 43.8358 22.6246 44.14H5.90151C4.5884 44.14 3.47924 42.4759 3.47924 40.5062C3.47924 38.5373 4.58912 36.8732 5.90151 36.8732H22.6246C22.0134 37.8865 21.6466 39.1427 21.6466 40.5062C21.6466 41.3682 21.7936 42.1862 22.0538 42.9292ZM52.6734 33.2394L46.8595 42.9292H31.2953L38.3444 33.2394H52.6734ZM44.4884 24.1673C44.5497 24.4822 44.4646 24.8101 44.283 25.0638C44.1711 25.2199 44.0239 25.3473 43.8535 25.4357C43.6831 25.5241 43.4941 25.571 43.3021 25.5726C43.0492 25.5726 42.7962 25.4883 42.5908 25.3326L42.5879 25.3305C42.4563 25.2406 42.3451 25.124 42.2615 24.9883C42.1779 24.8526 42.1239 24.7008 42.1029 24.5428C42.0776 24.3866 42.0839 24.2269 42.1213 24.0732C42.1587 23.9195 42.2264 23.7748 42.3205 23.6477C42.696 23.1273 43.4809 22.9947 44.0135 23.3781L44.0171 23.3803C44.2707 23.5619 44.4401 23.853 44.4884 24.1673Z" fill="#393939"/>
</svg>
