<svg width="58" height="58" viewBox="0 0 58 58" fill="none" xmlns="http://www.w3.org/2000/svg">
<g clip-path="url(#clip0_137_2168)">
<path d="M26.5887 6.8125H12.1681C11.2936 6.8125 10.582 7.52402 10.582 8.39855V26.4089C10.582 27.2834 11.2936 27.995 12.1681 27.995H26.5887C27.4632 27.995 28.1747 27.2834 28.1747 26.4089V8.39855C28.1747 7.52402 27.4632 6.8125 26.5887 6.8125ZM26.5239 26.344H12.2329V8.46335H26.5239V26.344ZM26.5887 29.865H12.1681C11.2936 29.865 10.582 30.5765 10.582 31.4511V49.4613C10.582 50.336 11.2936 51.0474 12.1681 51.0474H26.5887C27.4632 51.0474 28.1747 50.3358 28.1747 49.4613V31.4511C28.1747 30.5765 27.4632 29.865 26.5887 29.865ZM26.5239 49.3966H12.2329V31.516H26.5239V49.3966ZM45.8312 6.8125H31.4107C30.5361 6.8125 29.8246 7.52402 29.8246 8.39855V26.4089C29.8246 27.2834 30.5361 27.995 31.4107 27.995H45.8312C46.7058 27.995 47.4174 27.2834 47.4174 26.4089V8.39855C47.4172 7.52402 46.7058 6.8125 45.8312 6.8125ZM45.7664 26.344H31.4754V8.46335H45.7664V26.344ZM45.8312 29.865H31.4107C30.5361 29.865 29.8246 30.5765 29.8246 31.4511V49.4613C29.8246 50.336 30.5361 51.0474 31.4107 51.0474H45.8312C46.7058 51.0474 47.4174 50.3358 47.4174 49.4613V31.4511C47.4172 30.5765 46.7058 29.865 45.8312 29.865ZM45.7664 49.3966H31.4754V31.516H45.7664V49.3966Z" fill="white"/>
<path d="M55.9064 52.0642H54.2302V12.4713C54.2302 12.3629 54.2088 12.2556 54.1674 12.1554C54.1259 12.0553 54.0651 11.9643 53.9884 11.8876C53.9118 11.8109 53.8208 11.7501 53.7206 11.7087C53.6205 11.6672 53.5131 11.6458 53.4047 11.6458C53.2963 11.6458 53.189 11.6672 53.0888 11.7087C52.9887 11.7501 52.8977 11.8109 52.821 11.8876C52.7444 11.9643 52.6836 12.0553 52.6421 12.1554C52.6006 12.2556 52.5792 12.3629 52.5792 12.4713V52.0642H50.6093V5.40063C50.6093 4.41939 49.811 3.62109 48.8297 3.62109H9.1694C8.18816 3.62109 7.38987 4.41939 7.38987 5.40063V52.0642H5.41991V43.9259C5.41991 43.8175 5.39855 43.7101 5.35707 43.61C5.31559 43.5098 5.25478 43.4188 5.17813 43.3422C5.10148 43.2655 5.01048 43.2047 4.91032 43.1632C4.81017 43.1218 4.70283 43.1004 4.59443 43.1004C4.48602 43.1004 4.37868 43.1218 4.27853 43.1632C4.17838 43.2047 4.08738 43.2655 4.01072 43.3422C3.93407 43.4188 3.87327 43.5098 3.83178 43.61C3.7903 43.7101 3.76894 43.8175 3.76894 43.9259V52.0642H2.09284C1.18058 52.0642 0.438477 52.8065 0.438477 53.7186V56.346C0.438477 57.2583 1.1807 58.0004 2.09284 58.0004H55.9064C56.8187 58.0004 57.5608 57.2582 57.5608 56.346V53.7186C57.5608 52.8063 56.8187 52.0642 55.9064 52.0642ZM9.04071 5.40063C9.04071 5.32972 9.09837 5.27194 9.1694 5.27194H48.8298C48.9008 5.27194 48.9585 5.3296 48.9585 5.40063V52.0642H9.04071V5.40063ZM55.908 56.3494L55.9064 56.3496L2.08932 56.346L2.09284 53.7151L55.9099 53.7186L55.908 56.3494Z" fill="white"/>
<path d="M52.6732 0H5.32703C4.46825 0 3.76953 0.698605 3.76953 1.5575V40.007C3.76954 40.1154 3.7909 40.2227 3.83239 40.3229C3.87388 40.423 3.93469 40.514 4.01135 40.5907C4.08801 40.6673 4.17901 40.7281 4.27917 40.7696C4.37932 40.8111 4.48666 40.8324 4.59507 40.8324C4.70347 40.8324 4.81081 40.811 4.91096 40.7695C5.01111 40.728 5.10211 40.6672 5.17875 40.5906C5.2554 40.5139 5.3162 40.4229 5.35768 40.3228C5.39916 40.2226 5.4205 40.1153 5.42049 40.0069V1.65085H52.5799V8.54311C52.5799 8.76204 52.6669 8.972 52.8217 9.12681C52.9765 9.28162 53.1865 9.36859 53.4054 9.36859C53.6243 9.36859 53.8343 9.28162 53.9891 9.12681C54.1439 8.972 54.2309 8.76204 54.2309 8.54311V1.5575C54.2307 0.698605 53.5319 0 52.6732 0Z" fill="white"/>
</g>
<defs>
<clipPath id="clip0_137_2168">
<rect width="58" height="58" fill="white"/>
</clipPath>
</defs>
</svg>
