<svg width="58" height="59" viewBox="0 0 58 59" fill="none" xmlns="http://www.w3.org/2000/svg">
<path d="M50.187 22.2193C50.2634 21.8531 50.3202 21.483 50.3572 21.1107C50.6852 18.1578 49.8833 15.1902 48.1126 12.8045C46.342 10.4187 43.7339 8.79152 40.8126 8.25012C40.3035 8.16219 39.8494 7.87751 39.5484 7.45757C37.9341 5.15435 35.7886 3.27406 33.2935 1.97592C30.7984 0.67777 28.0272 0 25.2146 0C22.4019 0 19.6307 0.67777 17.1356 1.97592C14.6405 3.27406 12.495 5.15435 10.8807 7.45757C10.5797 7.87751 10.1256 8.16219 9.61649 8.25012C6.69518 8.79152 4.08709 10.4187 2.31646 12.8045C0.545828 15.1902 -0.256085 18.1578 0.0719094 21.1107C0.397679 24.02 1.78536 26.7067 3.96913 28.6563C6.15289 30.6059 8.97919 31.6813 11.9066 31.6764C12.5436 31.6715 14.0173 31.4941 14.294 31.5062C14.2584 32.0765 14.2666 32.6487 14.3183 33.2177C14.5823 35.7231 15.7447 38.048 17.5906 39.7625C19.4365 41.477 21.8408 42.4649 24.3588 42.5435C24.9723 42.5594 25.5859 42.5187 26.1919 42.4219C26.6711 42.3644 27.1544 42.4913 27.5436 42.7769C30.0752 44.5033 33.0684 45.4268 36.1327 45.4268C39.197 45.4268 42.1902 44.5033 44.7219 42.7769C45.1131 42.4917 45.5977 42.365 46.0784 42.4219C46.6844 42.5187 47.298 42.5594 47.9115 42.5435C50.409 42.488 52.8016 41.5282 54.6452 39.8424C56.4887 38.1565 57.658 35.859 57.9359 33.3764C58.2139 30.8937 57.5816 28.3946 56.1566 26.3427C54.7315 24.2909 52.6104 22.8258 50.187 22.2193ZM13.4674 29.5953C12.9487 29.6849 12.4233 29.7305 11.8969 29.7315H11.8288C9.39487 29.7201 7.04978 28.8157 5.23844 27.1899C3.42711 25.5641 2.27554 23.33 2.00222 20.9114C1.72854 18.4438 2.3985 15.964 3.8776 13.9699C5.3567 11.9758 7.53542 10.6151 9.97629 10.161C10.9844 9.97944 11.8805 9.40825 12.4706 8.57102C13.9064 6.52408 15.8142 4.85311 18.0325 3.69951C20.2507 2.54591 22.7142 1.94363 25.2146 1.94363C27.7149 1.94363 30.1784 2.54591 32.3967 3.69951C34.6149 4.85311 36.5227 6.52408 37.9585 8.57102C38.5486 9.40825 39.4447 9.97944 40.4528 10.161C42.9372 10.6223 45.1484 12.023 46.627 14.0721C48.1056 16.1211 48.738 18.6611 48.3928 21.1642C46.9679 19.2301 45.1055 17.6606 42.9578 16.584C40.8102 15.5075 38.4383 14.9544 36.0359 14.97C33.6336 14.9857 31.2691 15.5696 29.1356 16.674C27.0022 17.7785 25.1604 19.3721 23.7607 21.3247C23.5059 21.7106 23.1125 21.9839 22.6619 22.0881C20.7456 22.4455 18.9705 23.3407 17.5439 24.6692C16.1173 25.9976 15.0981 27.7045 14.6051 29.5905C14.2281 29.5313 13.8439 29.533 13.4674 29.5953ZM56.0168 33.0378C55.8015 35.07 54.8574 36.9555 53.3593 38.3455C51.8612 39.7354 49.9104 40.5358 47.8677 40.5986C47.3698 40.613 46.8717 40.5805 46.3799 40.5014C45.4105 40.3652 44.4258 40.6053 43.6279 41.1723C41.4189 42.6771 38.808 43.4819 36.1351 43.4819C33.4623 43.4819 30.8514 42.6771 28.6424 41.1723C27.9941 40.716 27.2228 40.4669 26.4301 40.4576C26.2502 40.4576 24.9082 40.6132 24.4026 40.5986C22.3602 40.5349 20.4099 39.7342 18.912 38.3444C17.414 36.9546 16.4697 35.0697 16.2534 33.0378C16.046 30.9575 16.626 28.8751 17.8791 27.2016C19.1321 25.5282 20.9671 24.3854 23.0217 23.9989C23.9651 23.8046 24.7964 23.2521 25.341 22.4576C26.5705 20.7426 28.1909 19.3453 30.0681 18.3814C31.9452 17.4175 34.025 16.9147 36.1351 16.9147C38.2453 16.9147 40.3251 17.4175 42.2022 18.3814C44.0794 19.3453 45.6998 20.7426 46.9293 22.4576C47.4739 23.2521 48.3052 23.8046 49.2486 23.9989C51.1677 24.3584 52.8999 25.3796 54.1437 26.8846C55.3875 28.3896 56.0641 30.2831 56.0557 32.2355C56.0557 32.4981 56.0412 32.7704 56.0168 33.0378Z" fill="white"/>
<path d="M8.92059 44.1338C8.01362 44.1328 7.14411 43.772 6.50283 43.1307C5.86156 42.4893 5.5009 41.6197 5.5 40.7128C5.5 39.4763 6.56094 34.6836 8.92059 34.6836C11.2802 34.6836 12.3417 39.4773 12.3417 40.7128C12.3406 41.6198 11.9799 42.4893 11.3385 43.1307C10.6972 43.772 9.82759 44.1328 8.92059 44.1338ZM9.10243 36.824C9.08007 36.7976 9.05224 36.7765 9.02088 36.7619C8.98952 36.7474 8.95538 36.7399 8.92083 36.7399C8.88628 36.7399 8.85214 36.7474 8.82078 36.7619C8.78942 36.7765 8.76159 36.7976 8.73922 36.824C7.99299 37.9937 7.54829 39.3301 7.4449 40.7137C7.44134 40.9098 7.47688 41.1046 7.54946 41.2868C7.62203 41.469 7.73018 41.6349 7.86759 41.7748C8.00499 41.9148 8.1689 42.0259 8.34974 42.1018C8.53058 42.1776 8.72472 42.2167 8.92083 42.2167C9.11694 42.2167 9.31108 42.1776 9.49192 42.1018C9.67276 42.0259 9.83667 41.9148 9.97407 41.7748C10.1115 41.6349 10.2196 41.469 10.2922 41.2868C10.3648 41.1046 10.4003 40.9098 10.3968 40.7137C10.2938 39.3293 9.84905 37.992 9.10243 36.8215V36.824ZM8.92059 58.1249C8.01362 58.1239 7.14411 57.7631 6.50283 57.1218C5.86156 56.4804 5.5009 55.6108 5.5 54.7039C5.5 53.4669 6.56094 48.6747 8.92059 48.6747C11.2802 48.6747 12.3417 53.4684 12.3417 54.7039C12.3406 55.6109 11.9799 56.4804 11.3385 57.1218C10.6972 57.7631 9.82759 58.1239 8.92059 58.1249ZM9.10243 50.815C9.08011 50.7886 9.0523 50.7674 9.02094 50.7528C8.98957 50.7383 8.95541 50.7307 8.92083 50.7307C8.88625 50.7307 8.85209 50.7383 8.82072 50.7528C8.78936 50.7674 8.76154 50.7886 8.73922 50.815C7.99299 51.9848 7.54829 53.3212 7.4449 54.7048C7.44134 54.9009 7.47688 55.0957 7.54946 55.2779C7.62203 55.4601 7.73018 55.626 7.86759 55.7659C8.00499 55.9058 8.1689 56.017 8.34974 56.0929C8.53058 56.1687 8.72472 56.2078 8.92083 56.2078C9.11694 56.2078 9.31108 56.1687 9.49192 56.0929C9.67276 56.017 9.83667 55.9058 9.97407 55.7659C10.1115 55.626 10.2196 55.4601 10.2922 55.2779C10.3648 55.0957 10.4003 54.9009 10.3968 54.7048C10.2935 53.3212 9.84881 51.9847 9.10243 50.815ZM20.7358 58.1249C19.8289 58.1239 18.9593 57.7631 18.3181 57.1218C17.6768 56.4804 17.3161 55.6108 17.3152 54.7039C17.3152 53.4669 18.3762 48.6747 20.7358 48.6747C23.0955 48.6747 24.1569 53.4684 24.1569 54.7039C24.1559 55.6109 23.7951 56.4804 23.1538 57.1218C22.5124 57.7631 21.6428 58.1239 20.7358 58.1249ZM20.9172 50.815C20.8949 50.7886 20.8671 50.7674 20.8358 50.7529C20.8045 50.7383 20.7704 50.7308 20.7358 50.7308C20.7013 50.7308 20.6672 50.7383 20.6358 50.7529C20.6045 50.7674 20.5767 50.7886 20.5545 50.815C19.8082 51.9847 19.3635 53.3212 19.2601 54.7048C19.2566 54.9009 19.2921 55.0957 19.3647 55.2779C19.4373 55.4601 19.5454 55.626 19.6828 55.7659C19.8202 55.9058 19.9841 56.017 20.165 56.0929C20.3458 56.1687 20.54 56.2078 20.7361 56.2078C20.9322 56.2078 21.1263 56.1687 21.3072 56.0929C21.488 56.017 21.6519 55.9058 21.7893 55.7659C21.9267 55.626 22.0349 55.4601 22.1074 55.2779C22.18 55.0957 22.2156 54.9009 22.212 54.7048C22.1078 53.3209 21.6621 51.9845 20.9148 50.815H20.9172ZM32.5462 58.1249C31.6392 58.1239 30.7696 57.7631 30.1283 57.1218C29.4869 56.4804 29.1262 55.6109 29.1251 54.7039C29.1251 53.4669 30.1861 48.6747 32.5462 48.6747C34.9063 48.6747 35.9673 53.4684 35.9673 54.7039C35.9662 55.6109 35.6055 56.4804 34.9641 57.1218C34.3228 57.7631 33.4532 58.1239 32.5462 58.1249ZM32.7276 50.815C32.7053 50.7886 32.6775 50.7674 32.6462 50.7529C32.6149 50.7383 32.5808 50.7308 32.5462 50.7308C32.5117 50.7308 32.4775 50.7383 32.4462 50.7529C32.4149 50.7674 32.3871 50.7886 32.3648 50.815C31.6184 51.9847 31.1735 53.3212 31.07 54.7048C31.07 55.0963 31.2256 55.4718 31.5024 55.7487C31.7792 56.0255 32.1547 56.181 32.5462 56.181C32.9377 56.181 33.3132 56.0255 33.59 55.7487C33.8669 55.4718 34.0224 55.0963 34.0224 54.7048C33.9189 53.3212 33.474 51.9847 32.7276 50.815ZM44.359 58.1249C43.452 58.1239 42.5824 57.7631 41.9411 57.1218C41.2997 56.4804 40.939 55.6109 40.938 54.7039C40.938 53.4669 41.9984 48.6747 44.359 48.6747C46.7196 48.6747 47.7796 53.4684 47.7796 54.7039C47.7787 55.6108 47.418 56.4804 46.7768 57.1218C46.1355 57.7631 45.266 58.1239 44.359 58.1249ZM44.5404 50.815C44.5181 50.7886 44.4903 50.7674 44.459 50.7529C44.4277 50.7383 44.3936 50.7308 44.359 50.7308C44.3245 50.7308 44.2904 50.7383 44.259 50.7529C44.2277 50.7674 44.1999 50.7886 44.1777 50.815C43.4312 51.9847 42.9863 53.3212 42.8828 54.7048C42.8793 54.9009 42.9148 55.0957 42.9874 55.2779C43.06 55.4601 43.1681 55.626 43.3055 55.7659C43.4429 55.9058 43.6068 56.017 43.7877 56.0929C43.9685 56.1687 44.1627 56.2078 44.3588 56.2078C44.5549 56.2078 44.749 56.1687 44.9299 56.0929C45.1107 56.017 45.2746 55.9058 45.412 55.7659C45.5494 55.626 45.6576 55.4601 45.7301 55.2779C45.8027 55.0957 45.8383 54.9009 45.8347 54.7048C45.7314 53.3212 45.2867 51.9847 44.5404 50.815Z" fill="white"/>
</svg>
