<svg width="51" height="58" viewBox="0 0 51 58" fill="none" xmlns="http://www.w3.org/2000/svg">
<path d="M49.9787 0H0.617021C0.453377 0 0.296435 0.0650074 0.180721 0.180721C0.0650074 0.296435 0 0.453377 0 0.617021V52.4468C0 55.5088 2.49116 58 5.55319 58C7.70055 58 9.5658 56.774 10.4894 54.986C11.4129 56.7741 13.2782 58 15.4255 58C17.5729 58 19.4381 56.774 20.3617 54.986C21.2853 56.7741 23.1505 58 25.2979 58C27.4454 58 29.3105 56.774 30.234 54.986C31.1576 56.774 33.0227 58 35.1702 58C37.3177 58 39.1828 56.774 40.1064 54.986C41.0299 56.774 42.8951 58 45.0426 58C48.1046 58 50.5957 55.5088 50.5957 52.4468V0.617021C50.5957 0.453377 50.5307 0.296435 50.415 0.180721C50.2993 0.0650074 50.1424 0 49.9787 0ZM49.3617 9.25532C49.3617 11.6369 47.4241 13.5745 45.0426 13.5745C42.661 13.5745 40.7234 11.6369 40.7234 9.25532V1.23404H49.3617V9.25532ZM39.4894 17.8936C39.4894 20.2752 37.5518 22.2128 35.1702 22.2128C32.7886 22.2128 30.8511 20.2752 30.8511 17.8936V12.7404C31.8699 14.0006 33.4271 14.8085 35.1702 14.8085C36.9133 14.8085 38.4705 14.0006 39.4894 12.7404V17.8936ZM39.4894 26.5319C39.4894 28.9135 37.5518 30.8511 35.1702 30.8511C32.7886 30.8511 30.8511 28.9135 30.8511 26.5319V21.3787C31.8699 22.6389 33.4271 23.4468 35.1702 23.4468C36.9133 23.4468 38.4705 22.6389 39.4894 21.3787V26.5319ZM39.4894 35.1702C39.4894 37.5518 37.5518 39.4894 35.1702 39.4894C32.7886 39.4894 30.8511 37.5518 30.8511 35.1702V30.017C31.8699 31.2772 33.4271 32.0851 35.1702 32.0851C36.9133 32.0851 38.4705 31.2772 39.4894 30.017V35.1702ZM11.1064 30.017C12.1252 31.2772 13.6824 32.0851 15.4255 32.0851C17.1686 32.0851 18.7259 31.2772 19.7447 30.017V35.1702C19.7447 37.5518 17.8071 39.4894 15.4255 39.4894C13.044 39.4894 11.1064 37.5518 11.1064 35.1702V30.017ZM11.1064 21.3786C12.1252 22.6389 13.6824 23.4468 15.4255 23.4468C17.1686 23.4468 18.7259 22.6389 19.7447 21.3786V26.5319C19.7447 28.9135 17.8071 30.8511 15.4255 30.8511C13.044 30.8511 11.1064 28.9135 11.1064 26.5319V21.3786ZM29.617 26.5319C29.617 28.9135 27.6795 30.8511 25.2979 30.8511C22.9163 30.8511 20.9787 28.9135 20.9787 26.5319V21.3786C21.9975 22.6389 23.5548 23.4468 25.2979 23.4468C27.041 23.4468 28.5982 22.6389 29.617 21.3787V26.5319ZM20.9787 30.017C21.9975 31.2772 23.5548 32.0851 25.2979 32.0851C27.041 32.0851 28.5982 31.2772 29.617 30.017V35.1702C29.617 37.5518 27.6795 39.4894 25.2979 39.4894C22.9163 39.4894 20.9787 37.5518 20.9787 35.1702V30.017ZM29.617 17.8936C29.617 20.2752 27.6795 22.2128 25.2979 22.2128C22.9163 22.2128 20.9787 20.2752 20.9787 17.8936V12.7403C21.9975 14.0006 23.5548 14.8085 25.2979 14.8085C27.041 14.8085 28.5982 14.0006 29.617 12.7404V17.8936ZM19.7447 17.8936C19.7447 20.2752 17.8071 22.2128 15.4255 22.2128C13.044 22.2128 11.1064 20.2752 11.1064 17.8936V12.7403C12.1252 14.0006 13.6824 14.8085 15.4255 14.8085C17.1686 14.8085 18.7259 14.0006 19.7447 12.7403V17.8936ZM11.1064 38.6553C12.1252 39.9155 13.6824 40.7234 15.4255 40.7234C17.1686 40.7234 18.7259 39.9155 19.7447 38.6553V43.8085C19.7447 46.1901 17.8071 48.1277 15.4255 48.1277C13.044 48.1277 11.1064 46.1901 11.1064 43.8085V38.6553ZM20.9787 38.6553C21.9975 39.9155 23.5548 40.7234 25.2979 40.7234C27.041 40.7234 28.5982 39.9155 29.617 38.6553V43.8085C29.617 46.1901 27.6795 48.1277 25.2979 48.1277C22.9163 48.1277 20.9787 46.1901 20.9787 43.8085V38.6553ZM30.8511 38.6553C31.8699 39.9155 33.4271 40.7234 35.1702 40.7234C36.9133 40.7234 38.4705 39.9155 39.4894 38.6553V43.8085C39.4894 46.1901 37.5518 48.1277 35.1702 48.1277C32.7886 48.1277 30.8511 46.1901 30.8511 43.8085V38.6553ZM39.4894 9.25532C39.4894 11.6369 37.5518 13.5745 35.1702 13.5745C32.7886 13.5745 30.8511 11.6369 30.8511 9.25532V1.23404H39.4894V9.25532ZM29.617 9.25532C29.617 11.6369 27.6795 13.5745 25.2979 13.5745C22.9163 13.5745 20.9787 11.6369 20.9787 9.25532V1.23404H29.617V9.25532ZM19.7447 9.25532C19.7447 11.6369 17.8071 13.5745 15.4255 13.5745C13.044 13.5745 11.1064 11.6369 11.1064 9.25532V1.23404H19.7447V9.25532ZM1.23404 1.23404H9.87234V9.25532C9.87234 11.6369 7.93477 13.5745 5.55319 13.5745C3.17161 13.5745 1.23404 11.6369 1.23404 9.25532V1.23404ZM5.55319 14.8085C7.29628 14.8085 8.85351 14.0006 9.87234 12.7403V17.8936C9.87234 20.2752 7.93477 22.2128 5.55319 22.2128C3.17161 22.2128 1.23404 20.2752 1.23404 17.8936V12.7403C2.25287 14.0006 3.81011 14.8085 5.55319 14.8085ZM5.55319 23.4468C7.29628 23.4468 8.85351 22.6389 9.87234 21.3786V26.5319C9.87234 28.9135 7.93477 30.8511 5.55319 30.8511C3.17161 30.8511 1.23404 28.9135 1.23404 26.5319V21.3786C2.25287 22.6389 3.81011 23.4468 5.55319 23.4468ZM5.55319 32.0851C7.29628 32.0851 8.85351 31.2772 9.87234 30.017V35.1702C9.87234 37.5518 7.93477 39.4894 5.55319 39.4894C3.17161 39.4894 1.23404 37.5518 1.23404 35.1702V30.017C2.25287 31.2772 3.81011 32.0851 5.55319 32.0851ZM5.55319 40.7234C7.29628 40.7234 8.85351 39.9155 9.87234 38.6553V43.8085C9.87234 46.1901 7.93477 48.1277 5.55319 48.1277C3.17161 48.1277 1.23404 46.1901 1.23404 43.8085V38.6553C2.25287 39.9155 3.81011 40.7234 5.55319 40.7234ZM5.55319 56.766C3.17161 56.766 1.23404 54.8284 1.23404 52.4468V47.2936C2.25287 48.5538 3.81011 49.3617 5.55319 49.3617C7.29628 49.3617 8.85351 48.5538 9.87234 47.2936V52.4468C9.87234 54.8284 7.93477 56.766 5.55319 56.766ZM15.4255 56.766C13.044 56.766 11.1064 54.8284 11.1064 52.4468V47.2936C12.1252 48.5538 13.6824 49.3617 15.4255 49.3617C17.1686 49.3617 18.7259 48.5538 19.7447 47.2936V52.4468C19.7447 54.8284 17.8071 56.766 15.4255 56.766ZM25.2979 56.766C22.9163 56.766 20.9787 54.8284 20.9787 52.4468V47.2936C21.9975 48.5538 23.5548 49.3617 25.2979 49.3617C27.041 49.3617 28.5982 48.5538 29.617 47.2936V52.4468C29.617 54.8284 27.6795 56.766 25.2979 56.766ZM35.1702 56.766C32.7886 56.766 30.8511 54.8284 30.8511 52.4468V47.2936C31.8699 48.5538 33.4271 49.3617 35.1702 49.3617C36.9133 49.3617 38.4705 48.5538 39.4894 47.2936V52.4468C39.4894 54.8284 37.5518 56.766 35.1702 56.766ZM49.3617 52.4468C49.3617 54.8284 47.4241 56.766 45.0426 56.766C42.661 56.766 40.7234 54.8284 40.7234 52.4468V47.2936C41.7422 48.5538 43.2995 49.3617 45.0426 49.3617C46.7856 49.3617 48.3429 48.5538 49.3617 47.2936V52.4468ZM49.3617 43.8085C49.3617 46.1901 47.4241 48.1277 45.0426 48.1277C42.661 48.1277 40.7234 46.1901 40.7234 43.8085V38.6553C41.7422 39.9155 43.2995 40.7234 45.0426 40.7234C46.7856 40.7234 48.3429 39.9155 49.3617 38.6553V43.8085ZM49.3617 35.1702C49.3617 37.5518 47.4241 39.4894 45.0426 39.4894C42.661 39.4894 40.7234 37.5518 40.7234 35.1702V30.017C41.7422 31.2772 43.2995 32.0851 45.0426 32.0851C46.7856 32.0851 48.3429 31.2772 49.3617 30.017V35.1702ZM49.3617 26.5319C49.3617 28.9135 47.4241 30.8511 45.0426 30.8511C42.661 30.8511 40.7234 28.9135 40.7234 26.5319V21.3787C41.7422 22.6389 43.2995 23.4468 45.0426 23.4468C46.7856 23.4468 48.3429 22.6389 49.3617 21.3787V26.5319ZM49.3617 17.8936C49.3617 20.2752 47.4241 22.2128 45.0426 22.2128C42.661 22.2128 40.7234 20.2752 40.7234 17.8936V12.7404C41.7422 14.0006 43.2995 14.8085 45.0426 14.8085C46.7856 14.8085 48.3429 14.0006 49.3617 12.7404V17.8936Z" fill="white"/>
</svg>
