<svg width="58" height="58" viewBox="0 0 58 58" fill="none" xmlns="http://www.w3.org/2000/svg">
<g clip-path="url(#clip0_137_525)">
<path d="M9.06251 43.3292H5.36779C3.94513 43.3292 2.58066 42.7644 1.57416 41.759C0.567664 40.7535 0.00147809 39.3896 0 37.967V28.4611C0.00147632 27.0394 0.566896 25.6764 1.57219 24.6711C2.57748 23.6658 3.94052 23.1004 5.36222 23.0989H9.05693C9.35275 23.0989 9.63645 23.2164 9.84563 23.4256C10.0548 23.6347 10.1723 23.9184 10.1723 24.2143V42.2138C10.1723 42.5086 10.0556 42.7915 9.8476 43.0005C9.63963 43.2095 9.35736 43.3277 9.06251 43.3292ZM5.36779 25.3296C4.53677 25.3296 3.7397 25.6594 3.15155 26.2465C2.56341 26.8336 2.23225 27.6301 2.23077 28.4611V37.967C2.23225 38.797 2.56264 39.5927 3.14958 40.1796C3.73652 40.7665 4.53216 41.0969 5.36222 41.0984H7.94154V25.3296H5.36779Z" fill="#393939"/>
<path d="M13.823 43.3292H9.06241C8.76659 43.3292 8.48289 43.2117 8.27371 43.0025C8.06454 42.7933 7.94702 42.5096 7.94702 42.2138V24.2143C7.94702 23.9184 8.06454 23.6347 8.27371 23.4256C8.48289 23.2164 8.76659 23.0989 9.06241 23.0989H13.8265C14.1223 23.0989 14.406 23.2164 14.6152 23.4256C14.8244 23.6347 14.9419 23.9184 14.9419 24.2143V42.2138C14.9419 42.3606 14.9129 42.5059 14.8566 42.6414C14.8004 42.777 14.7179 42.9001 14.614 43.0037C14.51 43.1073 14.3866 43.1894 14.2509 43.2453C14.1152 43.3011 13.9698 43.3296 13.823 43.3292ZM10.1743 41.0984H12.7076V25.3296H10.1778L10.1743 41.0984ZM52.6377 43.3292H48.943C48.6472 43.3292 48.3635 43.2117 48.1543 43.0025C47.9451 42.7933 47.8276 42.5096 47.8276 42.2138V24.2143C47.8276 23.9184 47.9451 23.6347 48.1543 23.4256C48.3635 23.2164 48.6472 23.0989 48.943 23.0989H52.6377C54.0594 23.1004 55.4225 23.6658 56.4277 24.6711C57.433 25.6764 57.9985 27.0394 57.9999 28.4611V37.967C57.9985 39.3887 57.433 40.7517 56.4277 41.757C55.4225 42.7623 54.0594 43.3277 52.6377 43.3292ZM50.0584 41.0984H52.6377C53.4678 41.0969 54.2634 40.7665 54.8504 40.1796C55.4373 39.5927 55.7677 38.797 55.7692 37.967V28.4611C55.7677 27.631 55.4373 26.8354 54.8504 26.2485C54.2634 25.6615 53.4678 25.3311 52.6377 25.3296H50.0584V41.0984Z" fill="#393939"/>
<path d="M48.941 43.3292H44.1769C43.8811 43.3292 43.5974 43.2117 43.3882 43.0025C43.179 42.7933 43.0615 42.5096 43.0615 42.2138V24.2143C43.0615 23.9184 43.179 23.6347 43.3882 23.4256C43.5974 23.2164 43.8811 23.0989 44.1769 23.0989H48.941C49.2368 23.0989 49.5205 23.2164 49.7297 23.4256C49.9389 23.6347 50.0564 23.9184 50.0564 24.2143V42.2138C50.0564 42.5096 49.9389 42.7933 49.7297 43.0025C49.5205 43.2117 49.2368 43.3292 48.941 43.3292ZM45.2923 41.0984H47.8256V25.3296H45.2923V41.0984Z" fill="#393939"/>
<path d="M51.8453 25.3296H46.4698C46.174 25.3296 45.8903 25.2121 45.6811 25.0029C45.472 24.7937 45.3544 24.51 45.3544 24.2142C45.3544 15.4062 38.1888 8.23981 29.3807 8.23981C20.5727 8.23981 13.407 15.4062 13.407 24.2142C13.407 24.51 13.2895 24.7937 13.0803 25.0029C12.8711 25.2121 12.5874 25.3296 12.2916 25.3296H6.91617C6.62035 25.3296 6.33664 25.2121 6.12747 25.0029C5.91829 24.7937 5.80078 24.51 5.80078 24.2142C5.80078 17.9604 8.28509 11.9628 12.7072 7.54068C17.1293 3.11859 23.1269 0.634277 29.3807 0.634277C35.6345 0.634277 41.6322 3.11859 46.0543 7.54068C50.4764 11.9628 52.9607 17.9604 52.9607 24.2142C52.9607 24.51 52.8431 24.7937 52.634 25.0029C52.4248 25.2121 52.1411 25.3296 51.8453 25.3296ZM47.5517 23.0988H50.7013C50.415 17.6375 48.0438 12.4943 44.0769 8.7298C40.1099 4.96533 34.8496 2.86671 29.3807 2.86671C23.9119 2.86671 18.6516 4.96533 14.6846 8.7298C10.7176 12.4943 8.34645 17.6375 8.06013 23.0988H11.2097C11.7876 13.5776 19.7145 6.00904 29.3807 6.00904C39.0469 6.00904 46.9738 13.5776 47.5517 23.0988ZM33.3222 54.0445C33.0374 54.0439 32.7636 53.9343 32.557 53.7383C32.3504 53.5422 32.2266 53.2746 32.211 52.9902C32.1954 52.7058 32.2892 52.4263 32.4731 52.2088C32.657 51.9913 32.9172 51.8525 33.2002 51.8207C45.8626 50.4125 47.8348 42.0611 47.8529 41.9753C47.9256 41.6962 48.1036 41.4561 48.3495 41.3053C48.5955 41.1546 48.8902 41.105 49.1719 41.167C49.4537 41.229 49.7004 41.3977 49.8604 41.6377C50.0204 41.8777 50.0812 42.1704 50.03 42.4543C50.007 42.5602 49.4367 45.0698 47.0672 47.7461C45.6953 49.2957 43.993 50.5966 42.009 51.6116C39.5635 52.8608 36.6823 53.6778 33.4442 54.0375C33.4037 54.0422 33.363 54.0445 33.3222 54.0445Z" fill="#393939"/>
<path d="M30.2166 57.3662H28.5435C27.4223 57.3662 26.3471 56.9209 25.5543 56.1281C24.7615 55.3353 24.3162 54.2601 24.3162 53.1389C24.3162 52.0178 24.7615 50.9425 25.5543 50.1498C26.3471 49.357 27.4223 48.9116 28.5435 48.9116H30.2166C31.3377 48.9116 32.4129 49.357 33.2057 50.1498C33.9985 50.9425 34.4439 52.0178 34.4439 53.1389C34.4439 54.2601 33.9985 55.3353 33.2057 56.1281C32.4129 56.9209 31.3377 57.3662 30.2166 57.3662ZM28.5435 51.1424C28.014 51.1424 27.5061 51.3527 27.1317 51.7272C26.7573 52.1016 26.5469 52.6094 26.5469 53.1389C26.5469 53.6684 26.7573 54.1763 27.1317 54.5507C27.5061 54.9251 28.014 55.1355 28.5435 55.1355H30.2166C30.7461 55.1355 31.2539 54.9251 31.6283 54.5507C32.0027 54.1763 32.2131 53.6684 32.2131 53.1389C32.2131 52.6094 32.0027 52.1016 31.6283 51.7272C31.2539 51.3527 30.7461 51.1424 30.2166 51.1424H28.5435Z" fill="#393939"/>
</g>
<defs>
<clipPath id="clip0_137_525">
<rect width="58" height="58" fill="white"/>
</clipPath>
</defs>
</svg>
