<svg width="58" height="58" viewBox="0 0 58 58" fill="none" xmlns="http://www.w3.org/2000/svg">
<g clip-path="url(#clip0_137_540)">
<path d="M31.1016 29.3626C31.9995 28.8925 32.7139 28.135 33.1306 27.2111C33.5473 26.2872 33.6422 25.2502 33.4001 24.266C33.1581 23.2818 32.5931 22.4072 31.7954 21.7819C30.9978 21.1567 30.0135 20.8169 29 20.8169C27.9865 20.8169 27.0022 21.1567 26.2046 21.7819C25.4069 22.4072 24.8419 23.2818 24.5999 24.266C24.3578 25.2502 24.4527 26.2872 24.8694 27.2111C25.2861 28.135 26.0005 28.8925 26.8984 29.3626C25.6596 29.7985 24.5865 30.6078 23.8267 31.679C23.067 32.7502 22.6581 34.0306 22.6562 35.3438C22.6562 35.5842 22.7517 35.8147 22.9217 35.9846C23.0916 36.1546 23.3221 36.2501 23.5625 36.2501H34.4375C34.6779 36.2501 34.9084 36.1546 35.0783 35.9846C35.2483 35.8147 35.3438 35.5842 35.3438 35.3438C35.3419 34.0306 34.933 32.7502 34.1733 31.679C33.4135 30.6078 32.3404 29.7985 31.1016 29.3626ZM29 22.6563C29.5377 22.6563 30.0634 22.8158 30.5105 23.1145C30.9576 23.4132 31.306 23.8379 31.5118 24.3346C31.7176 24.8314 31.7714 25.3781 31.6665 25.9055C31.5616 26.4328 31.3027 26.9173 30.9224 27.2975C30.5422 27.6777 30.0578 27.9367 29.5304 28.0416C29.003 28.1465 28.4564 28.0926 27.9596 27.8869C27.4628 27.6811 27.0382 27.3326 26.7394 26.8855C26.4407 26.4384 26.2812 25.9128 26.2812 25.3751C26.2812 24.654 26.5677 23.9625 27.0776 23.4526C27.5874 22.9427 28.2789 22.6563 29 22.6563ZM24.5594 34.4376C24.7674 33.4132 25.3231 32.4923 26.1324 31.8308C26.9417 31.1694 27.9548 30.808 29 30.808C30.0452 30.808 31.0583 31.1694 31.8676 31.8308C32.6769 32.4923 33.2326 33.4132 33.4406 34.4376H24.5594Z" fill="#393939"/>
<path d="M48.0313 38.9688C45.9412 38.9672 43.9154 39.6915 42.3002 41.0178L37.9375 36.6552C39.6616 34.6476 40.6556 32.1156 40.7577 29.4713L50.0123 29.1287C50.2704 29.9653 50.8245 30.6792 51.571 31.1367C52.3174 31.5942 53.205 31.764 54.0676 31.6142C54.9301 31.4645 55.7086 31.0056 56.2572 30.3233C56.8058 29.641 57.087 28.7822 57.0481 27.9076C57.0092 27.033 56.6528 26.2025 56.0458 25.5717C55.4387 24.9409 54.6226 24.5529 53.7501 24.4804C52.8776 24.4079 52.0086 24.6558 51.3058 25.1778C50.603 25.6998 50.1144 26.4601 49.9317 27.3162L40.6988 27.6579C40.5011 25.9418 39.9284 24.2902 39.0213 22.8201C38.1142 21.35 36.8949 20.0974 35.4498 19.1509L37.1817 16.0026C38.4707 16.4526 39.8818 16.4018 41.1352 15.8603C42.3885 15.3189 43.3928 14.3263 43.9488 13.0793C44.5048 11.8323 44.572 10.4219 44.1371 9.12769C43.7022 7.83348 42.7969 6.74989 41.6007 6.0917C40.4045 5.43351 39.0047 5.24876 37.6786 5.57407C36.3526 5.89939 35.1972 6.71101 34.4415 7.84809C33.6857 8.98516 33.3847 10.3647 33.5981 11.7132C33.8116 13.0618 34.5239 14.2809 35.5939 15.129L33.8611 18.2791C31.8234 17.346 29.5605 17.0178 27.3416 17.3337C25.1228 17.6495 23.0413 18.5961 21.3449 20.0608L16.9822 15.6981C18.4564 13.8952 19.1811 11.5947 19.0067 9.27241C18.8322 6.95012 17.7718 4.78373 16.0448 3.22134C14.3178 1.65896 12.0564 0.820117 9.72829 0.878327C7.40018 0.936537 5.18351 1.88735 3.53677 3.53408C1.89003 5.18082 0.939223 7.3975 0.881013 9.72561C0.822803 12.0537 1.66164 14.3151 3.22403 16.0421C4.78641 17.7691 6.9528 18.8295 9.2751 19.004C11.5974 19.1785 13.8979 18.4537 15.7008 16.9796L20.0635 21.3422C18.909 22.6751 18.0721 24.2525 17.6157 25.9558C17.1594 27.659 17.0956 29.4436 17.429 31.1751L9.46943 33.3174C8.96489 32.3384 8.1185 31.5786 7.09087 31.1822C6.06324 30.7859 4.92587 30.7806 3.89456 31.1672C2.86325 31.5539 2.00977 32.3057 1.49606 33.28C0.982345 34.2543 0.844141 35.3832 1.10767 36.4527C1.3712 37.5221 2.01813 38.4576 2.9257 39.0816C3.83328 39.7057 4.93835 39.9748 6.03125 39.8381C7.12414 39.7013 8.12881 39.1681 8.85462 38.3397C9.58044 37.5112 9.9769 36.4452 9.96878 35.3438C9.96878 35.2532 9.94703 35.1626 9.94068 35.0719L17.9057 32.9277C18.8227 35.5022 20.6028 37.6797 22.9436 39.0902L21.025 42.9201C19.5009 42.4096 17.8399 42.4955 16.3765 43.1603C14.9131 43.8252 13.7559 45.0197 13.1377 46.5034C12.5196 47.9872 12.4864 49.65 13.0449 51.1572C13.6034 52.6645 14.7121 53.9042 16.1478 54.6269C17.5835 55.3495 19.2397 55.5015 20.783 55.0523C22.3263 54.603 23.6422 53.5858 24.4657 52.2055C25.2892 50.8251 25.5593 49.184 25.2216 47.6125C24.8838 46.041 23.9633 44.6558 22.6454 43.7357L24.5594 39.9059C26.5608 40.7264 28.7503 40.9767 30.8853 40.6291C33.0203 40.2815 35.0173 39.3496 36.6551 37.9366L41.0178 42.2993C39.7174 43.8925 38.9979 45.8809 38.9776 47.9374C38.9573 49.9939 39.6374 51.996 40.9061 53.6146C42.1748 55.2333 43.9566 56.3719 45.9584 56.8435C47.9602 57.315 50.0629 57.0912 51.9206 56.2091C53.7784 55.3269 55.2806 53.8387 56.1803 51.9894C57.08 50.1401 57.3236 48.0396 56.871 46.0334C56.4184 44.0273 55.2966 42.2348 53.6901 40.9509C52.0835 39.6669 50.0879 38.9679 48.0313 38.9688ZM53.4688 26.2813C53.8273 26.2813 54.1777 26.3876 54.4757 26.5868C54.7738 26.7859 55.0061 27.069 55.1433 27.4002C55.2805 27.7314 55.3164 28.0958 55.2464 28.4474C55.1765 28.799 55.0039 29.122 54.7504 29.3754C54.4969 29.6289 54.174 29.8015 53.8224 29.8715C53.4708 29.9414 53.1064 29.9055 52.7752 29.7683C52.444 29.6312 52.1609 29.3988 51.9617 29.1008C51.7626 28.8027 51.6563 28.4523 51.6563 28.0938C51.6563 27.6131 51.8472 27.1521 52.1871 26.8122C52.5271 26.4723 52.9881 26.2813 53.4688 26.2813ZM38.9688 7.25006C39.6857 7.25006 40.3866 7.46266 40.9827 7.86098C41.5788 8.2593 42.0435 8.82545 42.3178 9.48783C42.5922 10.1502 42.664 10.8791 42.5241 11.5823C42.3843 12.2854 42.039 12.9314 41.532 13.4383C41.0251 13.9453 40.3792 14.2905 39.676 14.4304C38.9728 14.5703 38.2439 14.4985 37.5815 14.2241C36.9192 13.9498 36.353 13.4851 35.9547 12.889C35.5564 12.2929 35.3438 11.592 35.3438 10.8751C35.3438 9.91365 35.7257 8.99162 36.4055 8.3118C37.0853 7.63198 38.0074 7.25006 38.9688 7.25006ZM5.43753 38.0626C4.89981 38.0626 4.37416 37.9031 3.92707 37.6044C3.47997 37.3056 3.1315 36.881 2.92573 36.3842C2.71995 35.8874 2.66611 35.3408 2.77102 34.8134C2.87592 34.286 3.13485 33.8016 3.51508 33.4214C3.8953 33.0411 4.37974 32.7822 4.90712 32.6773C5.43451 32.5724 5.98116 32.6262 6.47795 32.832C6.97473 33.0378 7.39934 33.3863 7.69808 33.8334C7.99682 34.2804 8.15628 34.8061 8.15628 35.3438C8.15628 36.0649 7.86984 36.7564 7.35997 37.2663C6.85011 37.7761 6.15858 38.0626 5.43753 38.0626ZM23.5625 48.9376C23.5625 49.8338 23.2968 50.7098 22.7989 51.455C22.301 52.2001 21.5933 52.7809 20.7653 53.1239C19.9373 53.4668 19.0262 53.5566 18.1473 53.3817C17.2683 53.2069 16.4609 52.7753 15.8272 52.1416C15.1935 51.5079 14.7619 50.7005 14.5871 49.8216C14.4123 48.9426 14.502 48.0315 14.8449 47.2035C15.1879 46.3755 15.7687 45.6679 16.5138 45.17C17.259 44.6721 18.1351 44.4063 19.0313 44.4063C20.2326 44.4077 21.3843 44.8856 22.2338 45.7351C23.0832 46.5845 23.5611 47.7362 23.5625 48.9376ZM2.71878 9.96881C2.71596 8.79083 3.00022 7.6299 3.54697 6.58649C4.09372 5.54307 4.88648 4.6486 5.85665 3.98046C6.82683 3.31232 7.9452 2.89065 9.11498 2.75193C10.2848 2.61321 11.4707 2.76162 12.5703 3.18431C13.6698 3.60701 14.6498 4.29126 15.4254 5.17786C16.201 6.06446 16.7489 7.12671 17.0217 8.27267C17.2945 9.41864 17.2839 10.6138 16.9909 11.7548C16.6979 12.8957 16.1313 13.9481 15.3401 14.8209C15.3819 14.719 15.4044 14.6102 15.4063 14.5001C15.4086 13.7857 15.2691 13.078 14.9959 12.418C14.7228 11.7579 14.3213 11.1586 13.8149 10.6548C13.4537 10.2937 13.0438 9.98501 12.5969 9.73771C13.0867 9.22419 13.415 8.57819 13.5411 7.87982C13.6672 7.18145 13.5855 6.46143 13.3062 5.80904C13.0269 5.15666 12.5622 4.60061 11.9699 4.20984C11.3775 3.81906 10.6834 3.61076 9.97376 3.61076C9.2641 3.61076 8.57005 3.81906 7.97767 4.20984C7.38529 4.60061 6.92063 5.15666 6.64133 5.80904C6.36202 6.46143 6.28035 7.18145 6.40643 7.87982C6.53252 8.57819 6.86082 9.22419 7.35062 9.73771C6.4974 10.2065 5.78567 10.8957 5.28974 11.7334C4.79381 12.5711 4.53187 13.5266 4.53128 14.5001C4.53312 14.609 4.55461 14.7168 4.59471 14.8182C3.38841 13.491 2.71963 11.7622 2.71878 9.96881ZM9.96878 9.06256C9.6103 9.06256 9.25987 8.95626 8.9618 8.7571C8.66374 8.55794 8.43143 8.27486 8.29424 7.94367C8.15706 7.61248 8.12117 7.24805 8.1911 6.89646C8.26104 6.54487 8.43366 6.22191 8.68714 5.96843C8.94063 5.71494 9.26358 5.54232 9.61517 5.47238C9.96676 5.40245 10.3312 5.43834 10.6624 5.57553C10.9936 5.71271 11.2767 5.94502 11.4758 6.24309C11.675 6.54115 11.7813 6.89158 11.7813 7.25006C11.7813 7.73076 11.5903 8.19178 11.2504 8.53169C10.9105 8.8716 10.4495 9.06256 9.96878 9.06256ZM9.96878 10.8751C10.7724 10.8751 11.5533 11.1421 12.1886 11.6342C12.824 12.1264 13.2778 12.8157 13.4787 13.5938H6.45796C6.6599 12.8161 7.11409 12.1273 7.74939 11.6353C8.3847 11.1433 9.16525 10.8759 9.96878 10.8751ZM5.12034 15.3429C5.22134 15.3831 5.32882 15.4046 5.43753 15.4063H14.5C14.6104 15.4048 14.7195 15.3827 14.8217 15.3411C13.4953 16.5478 11.7665 17.2166 9.97331 17.2166C8.18007 17.2166 6.45129 16.5478 5.12487 15.3411L5.12034 15.3429ZM19.0313 29.0001C19.0313 27.0284 19.6159 25.1011 20.7113 23.4617C21.8067 21.8224 23.3636 20.5446 25.1851 19.7901C27.0067 19.0356 29.0111 18.8382 30.9448 19.2229C32.8786 19.6075 34.6548 20.5569 36.049 21.9511C37.4432 23.3452 38.3926 25.1215 38.7772 27.0553C39.1619 28.989 38.9645 30.9934 38.2099 32.8149C37.4554 34.6365 36.1777 36.1934 34.5384 37.2888C32.899 38.3841 30.9717 38.9688 29 38.9688C26.3571 38.9657 23.8233 37.9144 21.9545 36.0456C20.0857 34.1768 19.0344 31.643 19.0313 29.0001ZM43.1828 53.4054C43.2838 53.4456 43.3913 53.4671 43.5 53.4688H52.5625C52.6729 53.4673 52.782 53.4452 52.8842 53.4036C51.5578 54.6103 49.829 55.2791 48.0358 55.2791C46.2426 55.2791 44.5138 54.6103 43.1874 53.4036L43.1828 53.4054ZM48.0313 47.1251C47.6728 47.1251 47.3224 47.0188 47.0243 46.8196C46.7262 46.6204 46.4939 46.3374 46.3567 46.0062C46.2196 45.675 46.1837 45.3105 46.2536 44.959C46.3235 44.6074 46.4962 44.2844 46.7496 44.0309C47.0031 43.7774 47.3261 43.6048 47.6777 43.5349C48.0293 43.465 48.3937 43.5008 48.7249 43.638C49.0561 43.7752 49.3392 44.0075 49.5383 44.3056C49.7375 44.6036 49.8438 44.9541 49.8438 45.3126C49.8438 45.7933 49.6528 46.2543 49.3129 46.5942C48.973 46.9341 48.512 47.1251 48.0313 47.1251ZM48.0313 48.9376C48.8349 48.9376 49.6158 49.2046 50.2511 49.6967C50.8865 50.1889 51.3403 50.8782 51.5412 51.6563H44.5205C44.7224 50.8786 45.1766 50.1898 45.8119 49.6978C46.4472 49.2058 47.2277 48.9384 48.0313 48.9376ZM53.4017 52.8834C53.4438 52.7815 53.4666 52.6727 53.4688 52.5626C53.4711 51.8482 53.3316 51.1405 53.0584 50.4805C52.7853 49.8204 52.3838 49.2211 51.8774 48.7173C51.5162 48.3562 51.1063 48.0475 50.6594 47.8002C51.1492 47.2867 51.4775 46.6407 51.6036 45.9423C51.7297 45.2439 51.648 44.5239 51.3687 43.8715C51.0894 43.2192 50.6247 42.6631 50.0324 42.2723C49.44 41.8816 48.7459 41.6733 48.0363 41.6733C47.3266 41.6733 46.6325 41.8816 46.0402 42.2723C45.4478 42.6631 44.9831 43.2192 44.7038 43.8715C44.4245 44.5239 44.3428 45.2439 44.4689 45.9423C44.595 46.6407 44.9233 47.2867 45.4131 47.8002C44.5599 48.269 43.8482 48.9582 43.3522 49.7959C42.8563 50.6336 42.5944 51.5891 42.5938 52.5626C42.5956 52.6715 42.6171 52.7793 42.6572 52.8807C41.7148 51.8406 41.0946 50.5493 40.8718 49.1636C40.6491 47.7779 40.8333 46.3573 41.4021 45.0742C41.971 43.7911 42.9001 42.7008 44.0766 41.9354C45.2531 41.1701 46.6264 40.7627 48.0299 40.7627C49.4334 40.7627 50.8068 41.1701 51.9833 41.9354C53.1598 42.7008 54.0888 43.7911 54.6577 45.0742C55.2266 46.3573 55.4108 47.7779 55.188 49.1636C54.9652 50.5493 54.345 51.8406 53.4026 52.8807L53.4017 52.8834Z" fill="#393939"/>
</g>
<defs>
<clipPath id="clip0_137_540">
<rect width="58" height="58" fill="white"/>
</clipPath>
</defs>
</svg>
