<svg width="18" height="18" viewBox="0 0 18 18" fill="none" xmlns="http://www.w3.org/2000/svg">
<path d="M13.8273 8.76928L8.64427 4.95326C8.5876 4.9116 8.5191 4.88914 8.44876 4.88916C8.37843 4.88918 8.30994 4.91168 8.25329 4.95337L3.07019 8.77197C3.00363 8.82098 2.95791 8.89321 2.94211 8.97435C2.92631 9.05549 2.94158 9.1396 2.98489 9.21001L3.7237 10.4114C3.74741 10.4499 3.77879 10.4832 3.81589 10.509C3.853 10.5349 3.89503 10.5529 3.93939 10.5619C3.98374 10.5707 4.02943 10.5703 4.07364 10.5608C4.11785 10.5514 4.15965 10.5329 4.19647 10.5066L4.2424 10.4737V14.4473C4.2424 14.6293 4.3899 14.7769 4.57199 14.7769H12.3257C12.5077 14.7769 12.6553 14.6293 12.6553 14.4473V10.4702L12.6978 10.5007C12.7345 10.5269 12.7762 10.5453 12.8204 10.5548C12.8645 10.5643 12.9101 10.5647 12.9543 10.5559C12.9986 10.547 13.0406 10.5292 13.0776 10.5034C13.1147 10.4777 13.1461 10.4447 13.17 10.4063L13.9121 9.20837C14.0026 9.06222 13.9657 8.87114 13.8273 8.76928ZM7.64068 14.1177V10.3127H9.25688V14.1177H7.64068ZM11.996 14.1177H9.91606V9.98309C9.91606 9.80121 9.76859 9.6535 9.58647 9.6535H7.31109C7.12897 9.6535 6.9815 9.80121 6.9815 9.98309V14.1177H4.90158V10.0011L8.44889 7.45801L11.9961 9.99815V14.1177H11.996ZM12.7951 9.75947L8.64055 6.78467C8.58459 6.7446 8.51747 6.72307 8.44864 6.7231C8.37981 6.72314 8.31272 6.74475 8.2568 6.78489L4.09983 9.76475L3.70517 9.12286L8.44889 5.628L13.1916 9.1198L12.7951 9.75947Z" fill="white"/>
<path d="M8.09045 11.8857C8.00312 11.886 7.91941 11.9207 7.85747 11.9822C7.79586 12.0442 7.76115 12.128 7.76086 12.2153C7.76119 12.3026 7.7959 12.3863 7.85747 12.4482C7.91939 12.5098 8.00309 12.5446 8.09045 12.5449C8.17747 12.5449 8.26226 12.5096 8.32354 12.4482C8.38521 12.3864 8.4199 12.3027 8.42004 12.2153C8.42004 12.1285 8.38513 12.0435 8.32354 11.9822C8.26159 11.9206 8.17783 11.8859 8.09045 11.8857ZM15.435 5.74609C15.3484 5.74609 15.2635 5.78132 15.2021 5.8426C15.1407 5.90388 15.1055 5.98867 15.1055 6.07568C15.1055 6.1623 15.1407 6.24739 15.2021 6.30866C15.264 6.37023 15.3477 6.40493 15.4351 6.40527C15.5218 6.40527 15.6069 6.36994 15.668 6.30866C15.7297 6.24675 15.7644 6.16303 15.7646 6.07568C15.7646 5.98894 15.7294 5.90388 15.668 5.8426C15.6061 5.78101 15.5224 5.74634 15.435 5.74609Z" fill="white"/>
<path d="M17.5454 3.10937H6.87144L4.85868 1.0965C4.82807 1.0659 4.79173 1.04163 4.75173 1.02507C4.71174 1.00851 4.66888 0.999992 4.62559 1H1.32959C1.1475 1 1 1.1475 1 1.32959V15.1724C1 15.9357 1.62095 16.5566 2.38428 16.5566H16.4902C17.2538 16.5566 17.875 15.9353 17.875 15.1718V3.43896C17.875 3.25687 17.7275 3.10937 17.5454 3.10937ZM17.2158 15.1718C17.2158 15.572 16.8903 15.8975 16.4902 15.8975C16.09 15.8975 15.7646 15.572 15.7646 15.1718V7.39404C15.7646 7.21195 15.6169 7.06445 15.435 7.06445C15.2529 7.06445 15.1054 7.21195 15.1054 7.39404V15.1718C15.1051 15.4282 15.1764 15.6795 15.3114 15.8975H2.38428C1.98444 15.8975 1.65918 15.5722 1.65918 15.1724V1.65918H4.48901L6.50199 3.67194C6.53257 3.70256 6.56889 3.72685 6.60887 3.74343C6.64884 3.76 6.69169 3.76854 6.73497 3.76855H15.1054V4.75732C15.1054 4.93931 15.2529 5.08691 15.435 5.08691C15.6169 5.08691 15.7646 4.93931 15.7646 4.75732V3.76855H17.2158V15.1718Z" fill="white"/>
</svg>
