<svg width="29" height="29" viewBox="0 0 29 29" fill="none" xmlns="http://www.w3.org/2000/svg">
<path d="M14.5 7.96078C13.2067 7.96078 11.9424 8.3443 10.867 9.06284C9.79164 9.78138 8.95349 10.8027 8.45855 11.9976C7.96361 13.1924 7.83412 14.5073 8.08643 15.7757C8.33875 17.0442 8.96155 18.2094 9.87608 19.1239C10.7906 20.0385 11.9558 20.6612 13.2243 20.9136C14.4927 21.1659 15.8076 21.0364 17.0025 20.5414C18.1973 20.0465 19.2186 19.2084 19.9372 18.133C20.6557 17.0576 21.0392 15.7933 21.0392 14.5C21.037 12.7664 20.3473 11.1044 19.1214 9.87857C17.8956 8.65272 16.2336 7.96304 14.5 7.96078ZM14.5 19.3333C13.5441 19.3333 12.6096 19.0499 11.8147 18.5188C11.0199 17.9877 10.4004 17.2328 10.0346 16.3496C9.66876 15.4665 9.57304 14.4946 9.75954 13.5571C9.94603 12.6195 10.4064 11.7583 11.0823 11.0823C11.7583 10.4064 12.6195 9.94603 13.5571 9.75954C14.4946 9.57304 15.4665 9.66876 16.3496 10.0346C17.2328 10.4004 17.9877 11.0199 18.5188 11.8147C19.0499 12.6096 19.3333 13.5441 19.3333 14.5C19.3333 15.7819 18.8241 17.0113 17.9177 17.9177C17.0113 18.8241 15.7819 19.3333 14.5 19.3333ZM21.3235 0H7.67647C5.64124 0.00225761 3.69001 0.811751 2.25088 2.25088C0.811751 3.69001 0.00225761 5.64124 0 7.67647V21.3235C0.00225761 23.3588 0.811751 25.31 2.25088 26.7491C3.69001 28.1882 5.64124 28.9977 7.67647 29H21.3235C23.3588 28.9977 25.31 28.1882 26.7491 26.7491C28.1882 25.31 28.9977 23.3588 29 21.3235V7.67647C28.9977 5.64124 28.1882 3.69001 26.7491 2.25088C25.31 0.811751 23.3588 0.00225761 21.3235 0ZM27.2941 21.3235C27.2941 22.907 26.6651 24.4257 25.5454 25.5454C24.4257 26.6651 22.907 27.2941 21.3235 27.2941H7.67647C6.09297 27.2941 4.57433 26.6651 3.45463 25.5454C2.33492 24.4257 1.70588 22.907 1.70588 21.3235V7.67647C1.70588 6.09297 2.33492 4.57433 3.45463 3.45463C4.57433 2.33492 6.09297 1.70588 7.67647 1.70588H21.3235C22.907 1.70588 24.4257 2.33492 25.5454 3.45463C26.6651 4.57433 27.2941 6.09297 27.2941 7.67647V21.3235ZM23.3137 7.10784C23.3137 7.389 23.2304 7.66385 23.0742 7.89762C22.9179 8.1314 22.6959 8.31361 22.4362 8.4212C22.1764 8.5288 21.8906 8.55695 21.6148 8.5021C21.3391 8.44725 21.0858 8.31185 20.887 8.11304C20.6881 7.91423 20.5528 7.66094 20.4979 7.38518C20.4431 7.10942 20.4712 6.82359 20.5788 6.56383C20.6864 6.30407 20.8686 6.08206 21.1024 5.92585C21.3362 5.76965 21.611 5.68627 21.8922 5.68627C22.2692 5.68627 22.6308 5.83605 22.8974 6.10264C23.164 6.36924 23.3137 6.73082 23.3137 7.10784Z" fill="black"/>
</svg>
