<svg width="50" height="50" viewBox="0 0 50 50" fill="none" xmlns="http://www.w3.org/2000/svg">
<path d="M25 0C11.1925 0 0 11.1925 0 25C0 38.8075 11.1925 50 25 50C38.8075 50 50 38.8075 50 25C50 11.1925 38.8075 0 25 0ZM25 47.5C12.5725 47.5 2.49997 37.4275 2.49997 25C2.49997 12.5725 12.5726 2.49997 25 2.49997C37.4274 2.49997 47.5 12.5726 47.5 25C47.5 37.4274 37.4274 47.5 25 47.5ZM25 33.75C23.62 33.75 22.5 34.87 22.5 36.25C22.5 37.6301 23.62 38.75 25 38.75C26.38 38.75 27.5 37.63 27.5 36.25C27.5 34.87 26.38 33.75 25 33.75ZM25 11.25C20.8575 11.25 17.5 14.6075 17.5 18.75H20C20 15.99 22.2375 13.75 25 13.75C27.7625 13.75 29.9999 15.99 29.9999 18.75C29.9999 21.51 27.7625 23.75 25 23.75C24.565 23.75 24.1525 23.6775 23.75 23.5725V29.9999C23.75 30.6899 24.31 31.25 25 31.25C25.69 31.25 26.25 30.6899 26.25 29.9999V26.1249C29.795 25.525 32.5 22.465 32.5 18.7499C32.5 14.6075 29.1425 11.25 25 11.25Z" fill="white"/>
</svg>
