<svg width="27" height="26" viewBox="0 0 27 26" fill="none" xmlns="http://www.w3.org/2000/svg">
<path d="M14.4427 0H12.4257C6.03887 0 0.842773 5.1961 0.842773 11.583C0.842773 17.9698 6.03887 23.1658 12.4256 23.1658H14.4426C15.4395 23.1658 16.4261 23.0392 17.3824 22.789L20.3619 25.7668C20.4734 25.8782 20.6154 25.954 20.7699 25.9847C20.9245 26.0154 21.0847 25.9996 21.2303 25.9393C21.3759 25.879 21.5003 25.7768 21.5879 25.6458C21.6754 25.5147 21.7222 25.3607 21.7222 25.2031V20.5924C22.9836 19.5708 24.0315 18.2804 24.7669 16.8387C25.6021 15.2014 26.0255 13.4331 26.0255 11.583C26.0255 5.1961 20.8294 0 14.4427 0ZM20.4457 19.5672C20.3471 19.6415 20.2672 19.7377 20.2121 19.8482C20.157 19.9586 20.1283 20.0804 20.1283 20.2038V23.28L18.1782 21.3308C18.0757 21.2285 17.9474 21.1561 17.8069 21.1212C17.6665 21.0863 17.5191 21.0903 17.3808 21.1328C16.4322 21.4243 15.4437 21.5721 14.4427 21.5721H12.4257C6.91764 21.5721 2.43662 17.091 2.43662 11.583C2.43662 6.07494 6.91772 1.59385 12.4257 1.59385H14.4427C19.9507 1.59385 24.4317 6.07494 24.4317 11.583C24.4317 14.7492 22.9789 17.6594 20.4457 19.5672Z" fill="#141515"/>
<path d="M17.0229 8.72007C16.9079 7.05172 15.563 5.70683 13.8945 5.59183C12.9488 5.52688 12.0462 5.84589 11.3553 6.49084C10.6739 7.12687 10.2832 8.02595 10.2832 8.95764C10.2832 9.39778 10.6401 9.75456 11.0801 9.75456C11.5202 9.75456 11.877 9.39778 11.877 8.95764C11.877 8.45884 12.078 7.99655 12.4429 7.65602C12.8074 7.31582 13.2838 7.14743 13.785 7.18201C14.6639 7.24258 15.3723 7.95096 15.4328 8.82973C15.494 9.71726 14.9117 10.5016 14.0483 10.6948C13.3488 10.8513 12.8603 11.4592 12.8603 12.173V14.0876C12.8603 14.5277 13.2172 14.8845 13.6572 14.8845C14.0974 14.8845 14.4541 14.5277 14.4541 14.0876V12.2367C16.0599 11.8487 17.1372 10.3793 17.0229 8.72007ZM14.2206 16.6765C14.0724 16.5282 13.8668 16.443 13.6572 16.443C13.4476 16.443 13.242 16.5282 13.0938 16.6765C12.9449 16.8263 12.861 17.0287 12.8603 17.2399C12.8603 17.4503 12.9456 17.6559 13.0938 17.8041C13.242 17.9523 13.4476 18.0368 13.6572 18.0368C13.8668 18.0368 14.0724 17.9523 14.2206 17.8041C14.3696 17.654 14.4534 17.4513 14.4541 17.2399C14.4541 17.0303 14.3688 16.8247 14.2206 16.6765Z" fill="#141515"/>
</svg>
