<svg width="22" height="29" viewBox="0 0 22 29" fill="none" xmlns="http://www.w3.org/2000/svg">
<path d="M10.7127 0C4.80561 0 0 4.80561 0 10.7127C0 12.6574 0.872142 14.7489 0.908692 14.8371C1.19037 15.5057 1.74618 16.5442 2.14696 17.153L9.49211 28.2822C9.7927 28.7385 10.2376 29 10.7127 29C11.1879 29 11.6328 28.7385 11.9334 28.2829L19.2791 17.153C19.6806 16.5442 20.2357 15.5057 20.5174 14.8371C20.554 14.7495 21.4255 12.658 21.4255 10.7127C21.4255 4.80561 16.6199 0 10.7127 0ZM19.3554 14.3481C19.104 14.9474 18.5866 15.9135 18.2268 16.4592L10.881 27.5891C10.736 27.809 10.69 27.809 10.5451 27.5891L3.19933 16.4592C2.8395 15.9135 2.32214 14.9468 2.07071 14.3475C2.06 14.3217 1.26032 12.3965 1.26032 10.7127C1.26032 5.50067 5.50067 1.26032 10.7127 1.26032C15.9248 1.26032 20.1651 5.50067 20.1651 10.7127C20.1651 12.399 19.3636 14.3292 19.3554 14.3481Z" fill="black"/>
<path d="M10.7134 5.04199C7.58595 5.04199 5.04199 7.58658 5.04199 10.7134C5.04199 13.8403 7.58595 16.3849 10.7134 16.3849C13.8409 16.3849 16.3849 13.8403 16.3849 10.7134C16.3849 7.58658 13.8409 5.04199 10.7134 5.04199ZM10.7134 15.1246C8.28165 15.1246 6.30231 13.1459 6.30231 10.7134C6.30231 8.28102 8.28165 6.30231 10.7134 6.30231C13.1452 6.30231 15.1246 8.28102 15.1246 10.7134C15.1246 13.1459 13.1452 15.1246 10.7134 15.1246Z" fill="black"/>
</svg>
