<svg width="27" height="30" viewBox="0 0 27 30" fill="none" xmlns="http://www.w3.org/2000/svg">
<path d="M18.5282 8.55737C17.3654 8.55737 16.5044 8.85066 15.8303 9.22112C15.7223 8.83694 15.3673 8.55566 14.9488 8.6397H9.83089C9.32494 8.55566 8.91503 8.96557 9.0711 9.49725V28.3634C8.91503 28.8436 9.32494 29.2553 9.83089 29.221H14.9488C15.4547 29.2553 15.8646 28.8436 15.8646 28.3377L15.8629 16.9357C15.8612 16.9305 15.8423 16.3851 16.1871 16.0095C16.4632 15.7111 16.9383 15.5584 17.5952 15.5584C18.6894 15.5584 19.1765 16.0061 19.3583 17.0077V28.3377C19.1782 28.8436 19.5881 29.2553 20.0941 29.221H25.4881C25.994 29.2553 26.404 28.8436 26.2222 28.3377V16.6269C26.4022 10.6721 22.1608 8.55737 18.5282 8.55737ZM24.5705 27.5059H21.01V17.0077C21.01 14.9822 19.7013 13.7267 17.5969 13.7267C16.4066 13.7267 15.4804 14.0766 14.8424 14.7661C13.9557 15.7265 14.0243 16.9442 14.2147 17.2152V27.5059H10.7468V10.3891H14.0329V10.9654C14.0316 11.1371 14.0787 11.3056 14.1688 11.4517C14.259 11.5978 14.3885 11.7155 14.5426 11.7913C14.6966 11.867 14.8689 11.8978 15.0397 11.8801C15.2105 11.8623 15.3727 11.7967 15.5079 11.6909L15.748 11.5056C16.4426 10.9585 17.1613 10.3908 18.5299 10.3908C19.9466 10.3908 24.5722 10.8419 24.5722 16.6287L24.5705 27.5059ZM3.92407 0.00585938C1.99972 0.00585938 0.435547 1.57004 0.435547 3.49438C0.435547 5.41873 1.99972 6.98291 3.92407 6.98291C5.84842 6.98291 7.4126 5.41873 7.4126 3.49438C7.4126 1.57004 5.84842 0.00585938 3.92407 0.00585938ZM3.92407 5.15117C3.01164 5.15117 2.26728 4.40682 2.26728 3.49438C2.26728 2.58195 3.01164 1.83759 3.92407 1.83759C4.83651 1.83759 5.58086 2.58195 5.58086 3.49438C5.58086 4.40682 4.83651 5.15117 3.92407 5.15117ZM6.37324 8.55566H1.28281C0.776854 8.55566 0.366943 8.96557 0.493861 9.49725V28.3634C0.366943 28.8436 0.776854 29.2553 1.28281 29.221H6.37324C6.8792 29.2553 7.28911 28.8436 7.28911 28.3377V9.47153C7.28911 9.22862 7.19262 8.99567 7.02086 8.82391C6.8491 8.65215 6.61615 8.55566 6.37324 8.55566ZM5.63918 27.5059H2.19868V10.3891H5.63918V27.5059Z" fill="black"/>
</svg>
