<svg width="69" height="69" viewBox="0 0 69 69" fill="none" xmlns="http://www.w3.org/2000/svg">
<g clip-path="url(#clip0_137_2035)">
<path fill-rule="evenodd" clip-rule="evenodd" d="M53.478 59.7032C48.587 59.7032 45.5958 54.408 47.9402 50.2445H38.7241C38.2794 50.2445 37.9156 49.8807 37.9156 49.4361V36.9053C37.9156 36.0565 39.0879 35.814 39.4517 36.5415C41.6344 41.0688 48.4657 39.5328 48.4657 34.48C48.4657 29.4677 41.6344 27.8913 39.4517 32.4185C39.0879 33.1865 37.9156 32.944 37.9156 32.0951V19.5644C37.9156 19.1198 38.2794 18.756 38.7241 18.756H47.9402C45.5958 14.5521 48.587 9.25684 53.478 9.25684C58.4095 9.25684 61.4007 14.5521 59.0562 18.756H68.1916C68.6362 18.756 69 19.1198 69 19.5644V32.0951C69 32.944 67.8278 33.1865 67.464 32.4185C65.2408 27.8913 58.4095 29.4677 58.4095 34.48C58.4095 39.5328 65.2812 41.0688 67.464 36.5415C67.8278 35.7735 69 36.0565 69 36.9053V49.4361C69 49.8807 68.6362 50.2445 68.1916 50.2445H59.0562C61.4007 54.408 58.4095 59.7032 53.478 59.7032ZM39.5325 48.6277H49.5571C50.2847 48.6277 50.6485 49.4765 50.123 50.002C47.1722 52.9528 49.2742 58.0864 53.478 58.0864C57.7223 58.0864 59.8243 52.9932 56.8735 50.002C56.348 49.4765 56.7118 48.6277 57.4394 48.6277H67.3831V39.2902C63.2601 42.8878 56.7926 39.937 56.7926 34.48C56.7926 29.0635 63.2601 26.1127 67.3831 29.7103V20.3728H57.4394C56.7118 20.3728 56.348 19.4836 56.8735 18.9985C59.8243 16.0073 57.7223 10.8737 53.478 10.8737C49.2742 10.8737 47.1722 16.0073 50.123 18.9985C50.6485 19.4836 50.2847 20.3728 49.5571 20.3728H39.5325V29.7103C43.6555 26.1127 50.123 29.0635 50.123 34.48C50.123 39.937 43.6555 42.8878 39.5325 39.2902V48.6277ZM25.8295 47.4554H15.6432C14.7944 47.4554 14.5114 46.3236 15.2794 45.9194C19.1195 43.8983 17.6643 38.0372 13.2988 38.0372C10.9947 38.0372 9.0949 39.8966 9.0949 42.2006C9.0949 43.7366 9.94376 45.1514 11.2777 45.879C12.0861 46.2832 11.9244 47.3746 10.9947 47.4554H0.808436C0.363796 47.4554 0 47.0916 0 46.647V22.3535C0 21.9089 0.363796 21.5451 0.808436 21.5451H10.9947C11.8032 21.5451 12.0861 22.6769 11.3585 23.0407C7.51845 25.1022 8.93322 30.9633 13.2988 30.9633C17.6643 30.9633 19.1195 25.0618 15.2794 23.0407C14.5114 22.6769 14.7944 21.5451 15.6432 21.5451H25.8295C26.2742 21.5451 26.638 21.9089 26.638 22.3535V30.1953C30.3568 26.7999 36.3392 29.4677 36.3392 34.48C36.3392 39.5328 30.3568 42.1602 26.638 38.8052V46.647C26.638 47.0916 26.2742 47.4554 25.8295 47.4554ZM17.8664 45.8386H25.0211V36.2182C25.0211 35.3289 26.2742 35.0864 26.5571 35.9352C28.174 40.3008 34.7223 39.169 34.7223 34.48C34.7223 29.8315 28.174 28.6997 26.5571 33.0249C26.2742 33.8737 25.0211 33.6716 25.0211 32.7823V23.1619H17.8664C20.8576 26.9212 18.1898 32.5802 13.2988 32.5802C8.40773 32.5802 5.73989 26.9212 8.77153 23.1619H1.61687V45.8386H8.77153C5.73989 42.0793 8.40773 36.4203 13.2988 36.4203C18.1898 36.4203 20.8576 42.0793 17.8664 45.8386Z" fill="black"/>
</g>
<defs>
<clipPath id="clip0_137_2035">
<rect width="69" height="69" fill="white"/>
</clipPath>
</defs>
</svg>
